<?xml version="1.0" standalone="no"?>
<!DOCTYPE svg PUBLIC "-//W3C//DTD SVG 1.1//EN" "http://www.w3.org/Graphics/SVG/1.1/DTD/svg11.dtd" >
<svg>
<metadata>
Created by FontForge 20090914 at Thu Dec 14 22:26:16 2017
 By www-data
Copyright (c) 2002, 2005 Parachute&#194;&#168;, www.parachute.gr.  All rights reserved.
</metadata>
<defs>
<font id="PFDinDisplayPro-Medium" horiz-adv-x="1818" >
  <font-face 
    font-family="PF DinDisplay Pro Medium"
    font-weight="500"
    font-stretch="normal"
    units-per-em="1000"
    panose-1="2 0 5 6 0 0 0 2 0 4"
    ascent="750"
    descent="-250"
    x-height="495"
    cap-height="689"
    bbox="-179 -298.002 1760 940"
    underline-thickness="50"
    underline-position="-50"
    unicode-range="U+0020-U+FB05"
  />
<missing-glyph horiz-adv-x="447" 
d="M0 700h447v-700h-447v700zM348 65l-125 226l-124 -226h249zM348 635h-250l125 -225zM65 129l121 221l-121 222v-443zM382 129v442l-121 -221z" />
    <glyph glyph-name="fj" unicode="fj" horiz-adv-x="507" 
d="M448 -52c0 -52 -13.667 -90.166 -41 -114.499s-64 -36.5 -110 -36.5h-53v94h36c24.667 0 41.334 5.66699 50.001 17s13 30 13 56v442h-156v-406h-104v406h-59v90h59v81c0 22.667 3.66699 42.5 11 59.5s17.166 31.167 29.499 42.5s26.833 19.666 43.5 24.999
s34.667 8 54 8h77v-91h-62c-19.333 0 -32.333 -5.33301 -39 -16s-10 -24 -10 -40v-69h261v-548zM335 638.001c0 17.333 5.83301 31.666 17.5 42.999s25.834 17 42.501 17c17.333 0 31.833 -5.66699 43.5 -17s17.5 -25.666 17.5 -42.999s-5.83301 -31.833 -17.5 -43.5
s-26.167 -17.5 -43.5 -17.5c-16.667 0 -30.834 5.83301 -42.501 17.5s-17.5 26.167 -17.5 43.5z" />
    <glyph glyph-name="ffj" unicode="ffj" horiz-adv-x="766" 
d="M707 -52c0 -52 -13.665 -90.165 -40.998 -114.498s-64.333 -36.5 -111 -36.5h-52v94h35c25.333 0 42.166 5.66699 50.499 17s12.5 30 12.5 56v442h-155v-406h-104v406h-155v-406h-104v406h-59v90h59v60c0 22.667 3.66699 42.5 11 59.5s17.166 31.167 29.499 42.5
s26.833 19.666 43.5 24.999s34.667 8 54 8h75v-90h-60c-19.333 0 -32.333 -5.5 -39 -16.5s-10 -24.5 -10 -40.5v-48h155v80c0 22.667 3.5 42.5 10.5 59.5s16.833 31.167 29.5 42.5s27.334 19.666 44.001 24.999s34.667 8 54 8h77v-90h-63
c-18.667 0 -31.334 -5.5 -38.001 -16.5s-10 -24.5 -10 -40.5v-68h261v-548zM593.002 637.002c0 16.667 5.83301 30.834 17.5 42.501s26.167 17.5 43.5 17.5c16.667 0 30.834 -5.83301 42.501 -17.5s17.5 -25.834 17.5 -42.501c0 -17.333 -5.83301 -32 -17.5 -44
s-25.834 -18 -42.501 -18c-17.333 0 -31.833 6 -43.5 18s-17.5 26.667 -17.5 44z" />
    <glyph glyph-name="ff" unicode="ff" horiz-adv-x="569" 
d="M568 406l-121.998 0.000976562v-406h-103v406h-156v-406h-104v406h-59v90h59v63c0 22.667 3.66699 42.5 11 59.5s17.166 31 29.499 42s26.833 19.333 43.5 25s34.667 8.5 54 8.5h88v-91h-73c-19.333 0 -32.333 -5.33301 -39 -16s-10 -24 -10 -40v-51h156v82
c0 22.667 3.5 42.5 10.5 59.5s16.833 31.167 29.5 42.5s27.167 19.666 43.5 24.999s34.166 8 53.499 8h88v-90h-73c-19.333 0 -32.333 -5.5 -39 -16.5s-10 -24.5 -10 -40.5v-70h122v-90z" />
    <glyph glyph-name="fi" unicode="fi" horiz-adv-x="507" 
d="M343 0l0.000976562 406h-156v-406h-104v406h-59v90h59v80c0 22.667 3.66699 42.5 11 59.5s17.166 31 29.499 42s26.833 19.333 43.5 25s34.667 8.5 54 8.5h78v-91h-63c-19.333 0 -32.333 -5.33301 -39 -16s-10 -24 -10 -40v-68h261v-496h-105zM335.001 636
c0 17.333 5.83301 31.833 17.5 43.5s25.834 17.5 42.501 17.5c17.333 0 31.833 -5.83301 43.5 -17.5s17.5 -26.167 17.5 -43.5s-5.83301 -31.833 -17.5 -43.5s-26.167 -17.5 -43.5 -17.5c-16.667 0 -30.834 5.83301 -42.501 17.5s-17.5 26.167 -17.5 43.5z" />
    <glyph glyph-name="fl" unicode="fl" horiz-adv-x="550" 
d="M295 406l-105.997 0.000976562v-406h-104v406h-58v90h58v77c0 29.333 4.83301 54.166 14.5 74.499s22.667 37 39 50s35.333 22.5 57 28.5s44.5 9 68.5 9c17.333 0 41 -1.33301 71 -4s68 -10 114 -22v-564c0 -24 5.16699 -39 15.5 -45s29.166 -9 56.499 -9l2 -92
c-10 -2 -19.667 -3.33301 -29 -4s-18 -1 -26 -1c-26.667 0 -48 3.16699 -64 9.5s-28.5 15.333 -37.5 27s-15 25.667 -18 42s-4.5 34.833 -4.5 55.5v504c-12.667 3.33301 -24.834 5.83301 -36.501 7.5s-24.834 2.5 -39.501 2.5c-24.667 0 -44 -6 -58 -18s-21 -30.667 -21 -56
v-72h106v-90z" />
    <glyph glyph-name="ffi" unicode="ffi" horiz-adv-x="766" 
d="M601 0l0.000976562 406.001h-155v-406h-104v406h-155v-406h-104v406h-59v90h59v60c0 22.667 3.66699 42.5 11 59.5s17.166 31.167 29.499 42.5s26.833 19.666 43.5 24.999s34.667 8 54 8h75v-90h-60c-19.333 0 -32.333 -5.5 -39 -16.5s-10 -24.5 -10 -40.5v-48h155v80
c0 22.667 3.5 42.5 10.5 59.5s16.833 31 29.5 42s27.334 19.333 44.001 25s34.667 8.5 54 8.5h77v-91h-63c-18.667 0 -31.334 -5.33301 -38.001 -16s-10 -24 -10 -40v-68h261v-496h-106zM593.001 636.001c0 17.333 5.83301 31.666 17.5 42.999s26.167 17 43.5 17
c16.667 0 30.834 -5.66699 42.501 -17s17.5 -25.666 17.5 -42.999s-5.83301 -31.833 -17.5 -43.5s-25.834 -17.5 -42.501 -17.5c-17.333 0 -31.833 5.83301 -43.5 17.5s-17.5 26.167 -17.5 43.5z" />
    <glyph glyph-name="ffl" unicode="ffl" horiz-adv-x="806" 
d="M551 406l-105.996 0.000976562v-406h-104v406h-154v-406h-104v406h-59v90h59v73c0 22.667 3.66699 42.5 11 59.5s17.166 31 29.499 42s26.833 19.333 43.5 25s34.667 8.5 54 8.5h79v-91h-64c-19.333 0 -32.333 -5.33301 -39 -16s-10 -24 -10 -40v-61h154v76
c0 29.333 4.66699 54.333 14 75s22.166 37.5 38.499 50.5s35.5 22.5 57.5 28.5s45.667 9 71 9c17.333 0 41.166 -1.5 71.499 -4.5s67.5 -10.5 111.5 -22.5v-563c0 -24 5.16699 -39 15.5 -45s29.166 -9 56.499 -9l2 -92c-10 -2 -19.667 -3.33301 -29 -4s-18 -1 -26 -1
c-26.667 0 -48 3.16699 -64 9.5s-28.5 15.333 -37.5 27s-15 25.667 -18 42s-4.5 34.833 -4.5 55.5v504c-12 3.33301 -24 5.66602 -36 6.99902s-25 2 -39 2c-53.333 0 -80 -25.333 -80 -76v-69h106v-90z" />
    <glyph glyph-name="ft" unicode="ft" horiz-adv-x="614" 
d="M187 406v-406h-104v406h-59v90h59v85c0 22.667 3.66699 42.5 11 59.5s17.166 31.167 29.499 42.5s26.833 19.666 43.5 24.999s34.667 8 54 8h75v-91h-60c-19.333 0 -32.333 -5.33301 -39 -16s-10 -24 -10 -40v-73h159l21 118h81v-118h129v-90h-129v-225
c0 -17.333 1.66699 -31.666 5 -42.999s8 -20.333 14 -27s13.667 -11.167 23 -13.5s20 -3.5 32 -3.5c11.333 0 23.333 0.666992 36 2s26.334 3 41.001 5l14 -89c-20 -7.33301 -40.833 -12 -62.5 -14s-39.167 -3 -52.5 -3c-29.333 0 -53.833 3.33301 -73.5 10
s-35.5 16.5 -47.5 29.5s-20.667 29.5 -26 49.5s-8 43.333 -8 70v252h-156z" />
    <glyph glyph-name=".notdef" horiz-adv-x="447" 
d="M0 700h447v-700h-447v700zM348 65l-125 226l-124 -226h249zM348 635h-250l125 -225zM65 129l121 221l-121 222v-443zM382 129v442l-121 -221z" />
    <glyph glyph-name="space" unicode=" " horiz-adv-x="247" 
 />
    <glyph glyph-name="exclam" unicode="!" horiz-adv-x="251" 
d="M79 198l-7 498h107l-7 -498h-93zM125 -6c-20.667 0 -37.167 6.83301 -49.5 20.5s-18.5 30.5 -18.5 50.5c0 17.333 6.16699 32.833 18.5 46.5s28.5 20.5 48.5 20.5c21.333 0 38.5 -6.83301 51.5 -20.5s19.5 -29.167 19.5 -46.5c0 -19.333 -6.16699 -36 -18.5 -50
s-29.5 -21 -51.5 -21z" />
    <glyph glyph-name="quotedbl" unicode="&#x22;" horiz-adv-x="326" 
d="M186 696h85v-200h-85v200zM54 696h86v-200h-86v200z" />
    <glyph glyph-name="numbersign" unicode="#" horiz-adv-x="539" 
d="M396 288h91v-79h-102l-29 -209h-89l29 209h-97l-28 -209h-91l30 209h-86v79h98l17 123h-88v78h99l29 206h86l-27 -206h98l29 206h87l-29 -206h91v-78h-102zM210 288h97l18 123h-98z" />
    <glyph glyph-name="dollar" unicode="$" horiz-adv-x="517" 
d="M296 2c0 -4.66699 0.336914 -8.66895 1.00391 -12.002v-90h-72v102c-37.333 2.66699 -72.333 10.834 -105 24.501s-65 34.5 -97 62.5l60 81c28.667 -22.667 57.834 -40 87.501 -52s60.167 -18 91.5 -18c42 0 73.167 9 93.5 27s30.5 41 30.5 69c0 20 -5 36 -15 48
s-22.667 21.833 -38 29.5s-31.833 13.5 -49.5 17.5l-49.5 11c-22 4.66699 -44.167 11.167 -66.5 19.5s-42.5 19.666 -60.5 33.999s-32.5 32.5 -43.5 54.5s-16.5 49 -16.5 81c0 26 4.5 50 13.5 72s21.5 41.5 37.5 58.5s34.833 31 56.5 42s45.167 18.167 70.5 21.5v87h72
c-0.666992 -14 -1 -28 -1 -42v-42c31.333 -2 61.666 -7.83301 90.999 -17.5s59.333 -24.834 90 -45.501l-54 -89c-26.667 18 -52.834 31.167 -78.501 39.5s-51.834 12.5 -78.501 12.5c-14.667 0 -28.667 -2 -42 -6s-25.166 -10.167 -35.499 -18.5
s-18.5 -18.666 -24.5 -30.999s-9 -26.5 -9 -42.5s4.33301 -29.167 13 -39.5s19.5 -19 32.5 -26s27.167 -12.667 42.5 -17s29.666 -8.16602 42.999 -11.499c22 -5.33301 45.167 -11.666 69.5 -18.999s46.666 -18.166 66.999 -32.499s37.166 -33.333 50.499 -57
s20 -53.834 20 -90.501c0 -28 -4.83301 -53.5 -14.5 -76.5s-23.167 -42.833 -40.5 -59.5s-38 -30 -62 -40s-50.667 -16.333 -80 -19z" />
    <glyph glyph-name="percent" unicode="%" horiz-adv-x="826" 
d="M775 112c0 -18.667 -4 -35.167 -12 -49.5s-18.667 -26.5 -32 -36.5s-28.666 -17.5 -45.999 -22.5s-35 -7.5 -53 -7.5c-18.667 0 -36.667 2.5 -54 7.5s-32.666 12.5 -45.999 22.5s-24 22.167 -32 36.5s-12 30.833 -12 49.5v189c0 18.667 4.16699 35.167 12.5 49.5
s19.166 26.5 32.499 36.5s28.666 17.667 45.999 23s35 8 53 8s35.5 -2.66699 52.5 -8s32.333 -13 46 -23s24.5 -22.167 32.5 -36.5s12 -30.833 12 -49.5v-189zM693 289c0 10 -1.83301 18.333 -5.5 25s-8.5 12.167 -14.5 16.5s-12.667 7.5 -20 9.5s-14.333 3 -21 3
s-13.5 -1 -20.5 -3s-13.5 -5.16699 -19.5 -9.5s-10.833 -9.83301 -14.5 -16.5s-5.5 -15 -5.5 -25v-167c0 -9.33301 1.83301 -17.333 5.5 -24s8.5 -12 14.5 -16s12.5 -7 19.5 -9s13.833 -3 20.5 -3s13.667 1 21 3s14 5 20 9s10.833 9.33301 14.5 16s5.5 14.667 5.5 24v167z
M337 387c0 -18.667 -4.00195 -35.167 -12.002 -49.5s-18.667 -26.5 -32 -36.5s-28.666 -17.5 -45.999 -22.5s-35 -7.5 -53 -7.5c-18.667 0 -36.667 2.5 -54 7.5s-32.666 12.5 -45.999 22.5s-24 22.167 -32 36.5s-12 30.833 -12 49.5v189c0 18.667 4 35.167 12 49.5
s18.833 26.5 32.5 36.5s29.167 17.667 46.5 23s35 8 53 8s35.5 -2.66699 52.5 -8s32.333 -13 46 -23s24.5 -22.167 32.5 -36.5s12 -30.833 12 -49.5v-189zM254.998 564c0 10 -1.83301 18.333 -5.5 25s-8.5 12.167 -14.5 16.5s-12.667 7.5 -20 9.5s-14.333 3 -21 3
s-13.5 -1 -20.5 -3s-13.5 -5.16699 -19.5 -9.5s-10.833 -9.83301 -14.5 -16.5s-5.5 -15 -5.5 -25v-167c0 -9.33301 1.83301 -17.333 5.5 -24s8.5 -12 14.5 -16s12.5 -7 19.5 -9s13.833 -3 20.5 -3s13.667 1 21 3s14 5 20 9s10.833 9.33301 14.5 16s5.5 14.667 5.5 24v167z
M240.998 -17h-78l425 730h79z" />
    <glyph glyph-name="ampersand" unicode="&#x26;" horiz-adv-x="827" 
d="M761 432c0 -60.667 -12.001 -117.997 -36.001 -171.997s-56.333 -101.667 -97 -143c23.333 -21.333 47.333 -40.5 72 -57.5s51 -31.167 79 -42.5l-41 -76c-14.667 6 -30.167 13.5 -46.5 22.5s-32.5 18.833 -48.5 29.5s-31.333 21.834 -46 33.501s-28 23.5 -40 35.5
c-25.333 -20.667 -56 -37.5 -92 -50.5s-72 -19.5 -108 -19.5c-30 0 -58.333 4.33301 -85 13s-49.834 21.5 -69.501 38.5s-35.334 37.833 -47.001 62.5s-17.5 53 -17.5 85c0 23.333 4 45.166 12 65.499s18.833 39.166 32.5 56.499s30 33.5 49 48.5s39.5 28.833 61.5 41.5
c-15.333 22 -26.666 42.667 -33.999 62s-11 39.666 -11 60.999s3.33301 41.166 10 59.499s16.167 34.333 28.5 48s27.5 24.334 45.5 32.001s38.667 11.5 62 11.5c22 0 42.167 -3.66699 60.5 -11s34.333 -17.166 48 -29.499s24.334 -27 32.001 -44s11.5 -35.167 11.5 -54.5
s-3.16699 -37 -9.5 -53s-15 -30.667 -26 -44s-24 -25.833 -39 -37.5s-31.167 -22.834 -48.5 -33.501l69 -95.5c24.667 -33 50.667 -65.5 78 -97.5c32 34 57.5 72.833 76.5 116.5s28.5 89.5 28.5 137.5c0 40 -6 77.833 -18 113.5s-29.667 67 -53 94
s-52.166 48.333 -86.499 64s-73.5 23.5 -117.5 23.5c-40 0 -76.167 -5.83301 -108.5 -17.5s-59.833 -27.5 -82.5 -47.5s-40.167 -43.333 -52.5 -70s-18.5 -54.667 -18.5 -84c0 -21.333 3 -43.166 9 -65.499s16.667 -45.5 32 -69.5l-73 -44
c-20 29.333 -34.167 58.666 -42.5 87.999s-12.5 58 -12.5 86c0 40 8 78.667 24 116s39 70.166 69 98.499s66.333 51 109 68s90.334 25.5 143.001 25.5c59.333 0 111.666 -10 156.999 -30s83.5 -47.167 114.5 -81.5s54.333 -74.333 70 -120s23.5 -94.5 23.5 -146.5z
M454.999 538.003c0 16 -5.83301 29.3311 -17.5 39.998s-26.167 16 -43.5 16c-18.667 0 -32.167 -7 -40.5 -21s-12.5 -28.333 -12.5 -43c0 -13.333 3.33301 -26.666 10 -39.999s15.334 -28 26.001 -44c23.333 12.667 42.166 25.834 56.499 39.501s21.5 31.167 21.5 52.5z
M499.999 123.001c-14 15.333 -28.334 32.001 -43.001 50.001l-42.5 54.5l-38.5 54l-32 48.5c-16 -8.66699 -31 -17.834 -45 -27.501s-26.167 -20.167 -36.5 -31.5s-18.666 -23.5 -24.999 -36.5s-9.5 -26.833 -9.5 -41.5c0 -40 11.667 -69.833 35 -89.5s52 -29.5 86 -29.5
c24 0 48.833 4 74.5 12s51.167 20.333 76.5 37z" />
    <glyph glyph-name="quotesingle" unicode="'" horiz-adv-x="259" 
d="M89 696h85v-200h-85v200z" />
    <glyph glyph-name="parenleft" unicode="(" horiz-adv-x="317" 
d="M248 -127c-26 28 -50.666 58.3311 -73.999 90.998s-43.833 67.334 -61.5 104.001s-31.667 74.834 -42 114.501s-15.5 80.5 -15.5 122.5c0 42.667 5.16699 84 15.5 124s24.166 78 41.499 114s37.5 70.167 60.5 102.5s47.167 62.5 72.5 90.5l59 -37
c-44 -58 -78.167 -121.167 -102.5 -189.5s-36.5 -134.833 -36.5 -199.5c0 -70 12.667 -139.333 38 -208s59 -131 101 -187z" />
    <glyph glyph-name="parenright" unicode=")" horiz-adv-x="317" 
d="M280 305c0 -42 -5.33105 -82.8311 -15.998 -122.498s-24.834 -77.834 -42.501 -114.501s-38.167 -71.334 -61.5 -104.001s-48 -63 -74 -91l-55 42c42 56 75.5 118.333 100.5 187s37.5 138 37.5 208c0 64.667 -12 131.167 -36 199.5s-58 131.5 -102 189.5l58 37
c26 -28 50.5 -58.167 73.5 -90.5s43.167 -66.5 60.5 -102.5s31.166 -74 41.499 -114s15.5 -81.333 15.5 -124z" />
    <glyph glyph-name="asterisk" unicode="*" horiz-adv-x="395" 
d="M328 429l-14.001 -11.001l-19 -14.5l-19.5 -14c-6.33301 -4.33301 -11.166 -7.83301 -14.499 -10.5l-61 104l-63 -104c-3.33301 2 -8 5.33301 -14 10l-19.5 14.5l-20 14.5c-6.33301 4.66699 -10.833 8.33398 -13.5 11.001l79 90l-113 29l23 77l111 -47l-11 120h83
l-12 -120c6 2.66699 14.167 6 24.5 10s20.833 8.33301 31.5 13l31 13.5l24 10.5l23 -78l-114 -28z" />
    <glyph glyph-name="plus" unicode="+" horiz-adv-x="517" 
d="M300 255v-190h-84v190h-190v81h190v188h84v-188h190v-81h-190z" />
    <glyph glyph-name="comma" unicode="," horiz-adv-x="271" 
d="M61 -95c16 12 29.168 25.5 39.501 40.5s16.166 31.5 17.499 49.5c-14.667 2 -26.834 9.16699 -36.501 21.5s-14.5 27.166 -14.5 44.499c0 18 6.66699 33.667 20 47s30 20 50 20c13.333 0 24.833 -2.5 34.5 -7.5s17.834 -11.667 24.501 -20s11.5 -18 14.5 -29
s4.5 -22.167 4.5 -33.5c0 -19.333 -3 -38.166 -9 -56.499s-14.333 -35.5 -25 -51.5s-23 -30.5 -37 -43.5s-29.333 -23.5 -46 -31.5z" />
    <glyph glyph-name="hyphen" unicode="-" horiz-adv-x="408" 
d="M50 217v94h307v-94h-307z" />
    <glyph glyph-name="period" unicode="." horiz-adv-x="253" 
d="M128 -6c-20.667 0 -37.168 6.83301 -49.501 20.5s-18.5 30.5 -18.5 50.5c0 17.333 6.16699 32.833 18.5 46.5s28.5 20.5 48.5 20.5c21.333 0 38.333 -6.83301 51 -20.5s19 -29.167 19 -46.5c0 -19.333 -6.16699 -36 -18.5 -50s-29.166 -21 -50.499 -21z" />
    <glyph glyph-name="slash" unicode="/" horiz-adv-x="334" 
d="M77 -42h-83l252 767h83z" />
    <glyph glyph-name="zero" unicode="0" horiz-adv-x="517" 
d="M472 175c0 -29.333 -6.33105 -55.333 -18.998 -78s-29.167 -41.5 -49.5 -56.5s-43.166 -26.333 -68.499 -34s-50.666 -11.5 -75.999 -11.5s-50.833 3.83301 -76.5 11.5s-48.667 19 -69 34s-36.833 33.833 -49.5 56.5s-19 48.667 -19 78v338c0 30 6.5 56.333 19.5 79
s29.667 41.667 50 57s43.166 27 68.499 35s50.666 12 75.999 12s50.666 -4 75.999 -12s48.166 -19.667 68.499 -35s36.833 -34.333 49.5 -57s19 -49 19 -79v-338zM365.002 489c0 19.333 -3.33301 35.666 -10 48.999s-15.167 24.166 -25.5 32.499s-21.666 14.333 -33.999 18
s-24.5 5.5 -36.5 5.5s-24.167 -1.83301 -36.5 -5.5s-23.666 -9.66699 -33.999 -18s-18.833 -19.166 -25.5 -32.499s-10 -29.666 -10 -48.999v-290c0 -19.333 3.33301 -35.5 10 -48.5s15.167 -23.667 25.5 -32s21.666 -14.333 33.999 -18s24.5 -5.5 36.5 -5.5
s24.167 1.83301 36.5 5.5s23.666 9.66699 33.999 18s18.833 19 25.5 32s10 29.167 10 48.5v290z" />
    <glyph glyph-name="one" unicode="1" horiz-adv-x="517" 
d="M241 0v554l-82 -68l-58 77l32 27.5l41.5 36l42 35.5l32.5 27h98v-689h-106z" />
    <glyph glyph-name="two" unicode="2" horiz-adv-x="517" 
d="M471 508c0 -21.333 -3.99121 -41.666 -11.9912 -60.999s-18.5 -37.666 -31.5 -54.999s-27.5 -33.333 -43.5 -48s-32 -28.334 -48 -41.001s-33.833 -25.667 -53.5 -39s-38.334 -28 -56.001 -44s-32.834 -34.167 -45.501 -54.5s-20.334 -43.833 -23.001 -70.5h311v-95h-422
v89c0 28 4.5 53.833 13.5 77.5s21 45.667 36 66s32.167 39.166 51.5 56.499s39.666 33.333 60.999 48l55.5 39c18.333 13.333 34.666 27 48.999 41s25.833 28.333 34.5 43s13 30 13 46c0 14.667 -3.33301 27.5 -10 38.5s-15.334 20.167 -26.001 27.5s-23 12.833 -37 16.5
s-28 5.5 -42 5.5c-25.333 0 -49.833 -4.66699 -73.5 -14s-44.834 -21.666 -63.501 -36.999l-55 83c24 20.667 53 37.5 87 50.5s71 19.5 111 19.5c27.333 0 54.166 -3.33301 80.499 -10s49.666 -17.5 69.999 -32.5s36.833 -34.333 49.5 -58s19 -52.834 19 -87.501z" />
    <glyph glyph-name="three" unicode="3" horiz-adv-x="517" 
d="M241 695c26 0 51.502 -3.16699 76.502 -9.5s47.5 -16.833 67.5 -31.5s36 -33.5 48 -56.5s18 -51.167 18 -84.5c0 -34 -8 -64.5 -24 -91.5s-39 -46.833 -69 -59.5c31.333 -13.333 55.166 -34.666 71.499 -63.999s24.5 -60.333 24.5 -93c0 -36 -6.33301 -67.333 -19 -94
s-29.167 -48.667 -49.5 -66s-43.833 -30.333 -70.5 -39s-54 -13 -82 -13c-41.333 0 -79.5 6.5 -114.5 19.5s-64.167 29.833 -87.5 50.5l11.5 17.5l16.5 24.5l17 24.5l12 17.5c18.667 -15.333 40.667 -28 66 -38s49.666 -15 72.999 -15c37.333 0 66.5 9.16699 87.5 27.5
s31.5 44.166 31.5 77.499c0 32 -9.5 58.333 -28.5 79s-43.5 31 -73.5 31h-80v93h80c12 0 23.833 2.16699 35.5 6.5s22.167 10.833 31.5 19.5s16.833 19.5 22.5 32.5s8.5 27.833 8.5 44.5s-3.16699 30.667 -9.5 42s-14.5 20.5 -24.5 27.5s-21.5 12 -34.5 15
s-26.167 4.5 -39.5 4.5c-23.333 0 -48 -5 -74 -15s-48 -23 -66 -39l-12 18l-17 25l-17 24.5l-12 17.5c23.333 20.667 53 37.5 89 50.5s74.667 19.5 116 19.5z" />
    <glyph glyph-name="four" unicode="4" horiz-adv-x="517" 
d="M432 103v-103h-108v103h-294v88l31 68l39 86l43 95l43 95l38.5 86l30.5 68h113l-219 -491h175v202h108v-202h58v-95h-58z" />
    <glyph glyph-name="five" unicode="5" horiz-adv-x="517" 
d="M470 181c0 -29.333 -6.00098 -55.501 -18.001 -78.501s-28.167 -42.5 -48.5 -58.5s-43.666 -28.167 -69.999 -36.5s-53.833 -12.5 -82.5 -12.5c-42 0 -79.5 6.33301 -112.5 19s-61.167 29.667 -84.5 51l59 86c21.333 -19.333 43.166 -33.333 65.499 -42
s45.5 -13 69.5 -13c10 0 21.5 1.5 34.5 4.5s25.5 8.16699 37.5 15.5s22.167 17.5 30.5 30.5s12.5 29.167 12.5 48.5v83c0 28.667 -7 49.834 -21 63.501s-32.667 20.5 -56 20.5c-10 0 -21 -1.83301 -33 -5.5s-24 -8.33398 -36 -14.001s-23 -11.5 -33 -17.5
s-18 -11.333 -24 -16l-98 39v341h387v-98h-279v-166c22.667 14.667 45.5 25.834 68.5 33.501s43.5 11.5 61.5 11.5c26.667 0 50.5 -4.5 71.5 -13.5s38.833 -21.5 53.5 -37.5s25.834 -35 33.501 -57s11.5 -46 11.5 -72v-109v0z" />
    <glyph glyph-name="six" unicode="6" horiz-adv-x="517" 
d="M471 182c0 -30 -5.99707 -56.668 -17.9971 -80.001s-27.667 -43 -47 -59s-41.833 -28 -67.5 -36s-51.834 -12 -78.501 -12c-28.667 0 -55.834 4 -81.501 12s-48 19.667 -67 35s-34.167 34.5 -45.5 57.5s-17 49.5 -17 79.5v330c0 30 5.83301 56.667 17.5 80
s27.5 43 47.5 59s43 28 69 36s53.333 12 82 12c42 0 79.167 -6.33301 111.5 -19s60.166 -29.667 83.499 -51l-58 -87c-21.333 19.333 -43 33.333 -65 42s-45 13 -69 13c-11.333 0 -23.333 -1.83301 -36 -5.5s-24.667 -9.66699 -36 -18s-20.666 -19 -27.999 -32
s-11 -28.833 -11 -47.5v-94c31.333 18.667 58.666 31.334 81.999 38.001s44.333 10 63 10c26.667 0 50.5 -4.5 71.5 -13.5s38.667 -21.5 53 -37.5s25.333 -35.167 33 -57.5s11.5 -46.5 11.5 -72.5v-82zM363.003 254.999c0 31.333 -7.49902 53.666 -22.499 66.999
s-32.833 20 -53.5 20c-20 0 -40.5 -4.16699 -61.5 -12.5s-43.833 -20.166 -68.5 -35.499v-95c0 -18.667 3.16699 -34.5 9.5 -47.5s14.333 -23.667 24 -32s20.667 -14.333 33 -18s24.5 -5.5 36.5 -5.5c11.333 0 23.166 2 35.499 6s23.5 10.167 33.5 18.5s18.167 19 24.5 32
s9.5 28.5 9.5 46.5v56z" />
    <glyph glyph-name="seven" unicode="7" horiz-adv-x="517" 
d="M223 0h-115l241 592h-197v-102h-101v199h419v-92z" />
    <glyph glyph-name="eight" unicode="8" horiz-adv-x="517" 
d="M262 695c25.333 0 50.501 -3.99805 75.501 -11.998s47.333 -20.333 67 -37s35.5 -37.5 47.5 -62.5s18 -54.167 18 -87.5c0 -32 -7 -60.833 -21 -86.5s-33.333 -44.5 -58 -56.5c30.667 -13.333 53.834 -34.5 69.501 -63.5s23.5 -59.167 23.5 -90.5
c0 -35.333 -6.66699 -66 -20 -92s-30.666 -47.333 -51.999 -64s-45.333 -29 -72 -37s-53.334 -12 -80.001 -12c-28.667 0 -56.334 3.83301 -83.001 11.5s-50.334 19.667 -71.001 36s-37.167 37.166 -49.5 62.499s-18.5 55.333 -18.5 90c0 17.333 2.5 34.166 7.5 50.499
s12 31.5 21 45.5s19.167 26.5 30.5 37.5s23.666 19.5 36.999 25.5c-25.333 11.333 -45 29.666 -59 54.999s-21 55 -21 89c0 33.333 6.16699 62.333 18.5 87s28.5 45.334 48.5 62.001s42.333 29 67 37s49.334 12 74.001 12zM363.001 496.002
c0 31.333 -10.168 55.332 -30.501 71.999s-43.833 25 -70.5 25c-12.667 0 -25.167 -2.16699 -37.5 -6.5s-23.166 -10.666 -32.499 -18.999s-17 -18.5 -23 -30.5s-9 -25.667 -9 -41c0 -16 2.83301 -30.167 8.5 -42.5s13.334 -22.666 23.001 -30.999
s20.5 -14.666 32.5 -18.999s24.667 -6.5 38 -6.5c12.667 0 25.167 2.33301 37.5 7s23.166 11.167 32.499 19.5s16.833 18.666 22.5 30.999s8.5 26.166 8.5 41.499zM261 298.001c-14.667 0 -28.667 -2.33301 -42 -7s-25 -11.5 -35 -20.5s-18 -19.667 -24 -32
s-9 -26.5 -9 -42.5c0 -32 10.167 -56.833 30.5 -74.5s46.833 -26.5 79.5 -26.5c32 0 58.333 8.83301 79 26.5s31 43.167 31 76.5c0 14.667 -3 28.167 -9 40.5s-14 23 -24 32s-21.667 15.833 -35 20.5s-27.333 7 -42 7z" />
    <glyph glyph-name="nine" unicode="9" horiz-adv-x="517" 
d="M465 181c0 -30 -5.83203 -56.499 -17.499 -79.499s-27.334 -42.5 -47.001 -58.5s-42.5 -28 -68.5 -36s-53.333 -12 -82 -12c-42.667 0 -80.167 6.33301 -112.5 19s-60.166 29.667 -83.499 51l59 86c40.667 -36 85 -54 133 -54c10.667 0 22.5 1.83301 35.5 5.5
s25 9.66699 36 18s20.167 19 27.5 32s11 28.833 11 47.5v98c-31.333 -17.333 -58.333 -29.5 -81 -36.5s-43.667 -10.5 -63 -10.5c-52 0 -93 16.333 -123 49s-45 77 -45 133v73c0 30 5.83301 56.833 17.5 80.5s27.167 43.667 46.5 60s41.666 28.666 66.999 36.999
s52 12.5 80 12.5c28.667 0 55.667 -4.16699 81 -12.5s47.5 -20.5 66.5 -36.5s34.167 -35.833 45.5 -59.5s17 -50.5 17 -80.5v-326zM356.001 492.001c0 18.667 -3 34.5 -9 47.5s-13.833 23.667 -23.5 32s-20.5 14.333 -32.5 18s-24 5.5 -36 5.5s-24.167 -2 -36.5 -6
s-23.5 -10.167 -33.5 -18.5s-18.167 -19 -24.5 -32s-9.5 -28.5 -9.5 -46.5v-51c0 -31.333 7.5 -53.5 22.5 -66.5s33.167 -19.5 54.5 -19.5c19.333 0 39.5 4.16699 60.5 12.5s43.5 19.833 67.5 34.5v90z" />
    <glyph glyph-name="colon" unicode=":" horiz-adv-x="282" 
d="M139 288c-20.667 0 -37.168 6.66699 -49.501 20s-18.5 30 -18.5 50c0 18 6.16699 33.833 18.5 47.5s28.5 20.5 48.5 20.5c21.333 0 38.333 -6.83301 51 -20.5s19 -29.5 19 -47.5c0 -19.333 -6.16699 -35.833 -18.5 -49.5s-29.166 -20.5 -50.499 -20.5zM138.999 -6
c-20.667 0 -37.168 6.83301 -49.501 20.5s-18.5 30.5 -18.5 50.5c0 17.333 6.16699 32.833 18.5 46.5s28.5 20.5 48.5 20.5c21.333 0 38.333 -6.83301 51 -20.5s19 -29.167 19 -46.5c0 -19.333 -6.16699 -36 -18.5 -50s-29.166 -21 -50.499 -21z" />
    <glyph glyph-name="semicolon" unicode=";" horiz-adv-x="271" 
d="M135 288c-20.667 0 -37.167 6.66699 -49.5 20s-18.5 30 -18.5 50c0 18 6.16699 33.833 18.5 47.5s28.833 20.5 49.5 20.5c21.333 0 38.333 -6.83301 51 -20.5s19 -29.5 19 -47.5c0 -19.333 -6.16699 -35.833 -18.5 -49.5s-29.5 -20.5 -51.5 -20.5zM55 -95
c16 12 28.998 25.5 38.998 40.5s16 31.5 18 49.5c-15.333 2 -27.666 9.16699 -36.999 21.5s-14 27.166 -14 44.499c0 18 6.66699 33.667 20 47s30 20 50 20c13.333 0 24.833 -2.5 34.5 -7.5s17.667 -11.667 24 -20s11 -18 14 -29s4.5 -22.167 4.5 -33.5
c0 -19.333 -3 -38.166 -9 -56.499s-14.167 -35.5 -24.5 -51.5s-22.666 -30.5 -36.999 -43.5s-29.5 -23.5 -45.5 -31.5z" />
    <glyph glyph-name="less" unicode="&#x3c;" horiz-adv-x="517" 
d="M37 257v78l441 209v-91l-334 -157l334 -157v-91z" />
    <glyph glyph-name="equal" unicode="=" horiz-adv-x="517" 
d="M25 357v82h465v-82h-465zM25 153v81h465v-81h-465z" />
    <glyph glyph-name="greater" unicode="&#x3e;" horiz-adv-x="517" 
d="M37 48v91l335 157l-335 157v91l441 -209v-78z" />
    <glyph glyph-name="question" unicode="?" horiz-adv-x="474" 
d="M228 700c28.667 0 55.166 -4.49902 79.499 -13.499s45.5 -21.333 63.5 -37s32 -34.334 42 -56.001s15 -45.167 15 -70.5c0 -30.667 -7.16699 -58.334 -21.5 -83.001s-30 -48.167 -47 -70.5s-32.667 -44.5 -47 -66.5s-21.5 -45.667 -21.5 -71v-36h-107v34
c0 30.667 6.33301 57.667 19 81s26.5 45.5 41.5 66.5s28.833 42 41.5 63s19 44.167 19 69.5c0 23.333 -8.33301 43.5 -25 60.5s-39.667 25.5 -69 25.5c-23.333 0 -46.166 -4.16699 -68.499 -12.5s-42.5 -20.166 -60.5 -35.499l-53 87c30 23.333 61.5 40 94.5 50
s67.833 15 104.5 15zM170.999 64.001c0 17.333 6.16699 32.832 18.5 46.499s28.5 20.5 48.5 20.5c21.333 0 38.5 -6.83301 51.5 -20.5s19.5 -29.167 19.5 -46.5c0 -19.333 -6.16699 -35.666 -18.5 -48.999s-29.5 -20 -51.5 -20c-20.667 0 -37.167 6.5 -49.5 19.5
s-18.5 29.5 -18.5 49.5z" />
    <glyph glyph-name="at" unicode="@" horiz-adv-x="849" 
d="M814 377c0 -34.667 -5.16895 -65.8359 -15.502 -93.5029s-24 -51 -41 -70s-36.5 -33.667 -58.5 -44s-44.667 -15.5 -68 -15.5c-20.667 0 -42.167 3.83301 -64.5 11.5s-38.833 21.167 -49.5 40.5c-21.333 -12.667 -43.166 -23.167 -65.499 -31.5s-44.5 -12.5 -66.5 -12.5
c-40 0 -70.667 11 -92 33s-32 50.667 -32 86c0 22 5 40.5 15 55.5s22.333 27.167 37 36.5s30.334 16 47.001 20s31.667 6 45 6h99v18c0 24 -7.5 41 -22.5 51s-34.5 15 -58.5 15c-13.333 0 -28.333 -2 -45 -6s-34.667 -13.667 -54 -29l-21.5 30l-21.5 31
c26.667 21.333 52 35.333 76 42s47.333 10 70 10c50 0 89.5 -12.167 118.5 -36.5s43.5 -61.166 43.5 -110.499v-145c0 -14 4.66699 -23.833 14 -29.5s20.666 -8.5 33.999 -8.5c10 0 20.833 2.83301 32.5 8.5s22.334 14.334 32.001 26.001s17.667 26.667 24 45
s9.5 40.5 9.5 66.5c0 38.667 -6.33301 74.667 -19 108s-31.334 62.5 -56.001 87.5s-54.667 44.667 -90 59s-75.333 21.5 -120 21.5c-46 0 -88.667 -7.66699 -128 -23s-73.5 -36.5 -102.5 -63.5s-51.667 -58.667 -68 -95s-24.5 -75.166 -24.5 -116.499
c0 -42 7.33301 -81 22 -117s35.334 -67.333 62.001 -94s58.167 -47.5 94.5 -62.5s76.5 -22.5 120.5 -22.5c19.333 0 38.5 1.66699 57.5 5s42.5 10.333 70.5 21l25 -71c-28.667 -12 -57 -19.667 -85 -23s-51.667 -5 -71 -5c-55.333 0 -106 9.16699 -152 27.5
s-85.5 43.833 -118.5 76.5s-58.667 71.5 -77 116.5s-27.5 94.167 -27.5 147.5s10.333 102.833 31 148.5s49.167 85.167 85.5 118.5s79 59.333 128 78s101.5 28 157.5 28c58.667 0 110.667 -9.16699 156 -27.5s83.333 -43.5 114 -75.5s54 -69.167 70 -111.5
s24 -87.5 24 -135.5zM504.998 331.998l-84.001 -0.00195312c-6.66699 0 -14.167 -0.333008 -22.5 -1s-16.333 -2.66699 -24 -6s-14 -8.16602 -19 -14.499s-7.5 -15.166 -7.5 -26.499c0 -14 5 -25 15 -33s23.667 -12 41 -12c19.333 0 37.833 4 55.5 12
s32.834 15.667 45.501 23v58z" />
    <glyph glyph-name="A" unicode="A" horiz-adv-x="617" 
d="M437 149h-257l-49 -149h-121l241 689h116l241 -689h-124zM213 248h191l-41 129l-53 175h-4l-51 -168z" />
    <glyph glyph-name="B" unicode="B" horiz-adv-x="608" 
d="M565 203c0 -26 -4.16406 -51.166 -12.4971 -75.499s-20.833 -46 -37.5 -65s-37.334 -34.167 -62.001 -45.5s-53 -17 -85 -17h-310v689h298c32.667 0 61.5 -5 86.5 -15s45.667 -23.5 62 -40.5s28.666 -36.5 36.999 -58.5s12.5 -45.333 12.5 -70
c0 -26.667 -6.66699 -53.167 -20 -79.5s-35 -47.833 -65 -64.5c33.333 -16.667 57.666 -39.834 72.999 -69.501s23 -59.167 23 -88.5zM438.003 497.001c0 30.667 -9.5 53.167 -28.5 67.5s-45.5 21.5 -79.5 21.5h-157v-177h162c30 0 54.667 7.66699 74 23s29 37 29 65z
M448.003 205.001c0 32 -10.833 57.333 -32.5 76s-47.5 28 -77.5 28h-165v-207h166c36 0 63.167 9.16699 81.5 27.5s27.5 43.5 27.5 75.5z" />
    <glyph glyph-name="C" unicode="C" horiz-adv-x="544" 
d="M457 542c-19.333 16.667 -42.0049 28.998 -68.0049 36.998s-51.333 12 -76 12c-17.333 0 -34.5 -2.66699 -51.5 -8s-32.167 -13.666 -45.5 -24.999s-24.166 -26 -32.499 -44s-12.5 -39.667 -12.5 -65v-209c0 -25.333 4.16699 -47 12.5 -65s19.333 -32.667 33 -44
s28.834 -19.666 45.501 -24.999s33.334 -8 50.001 -8c24.667 0 49.667 3.5 75 10.5s49.333 19.5 72 37.5l54 -88c-23.333 -19.333 -52.666 -35 -87.999 -47s-73 -18 -113 -18c-33.333 0 -65.333 4.83301 -96 14.5s-57.834 24 -81.501 43s-42.667 42.5 -57 70.5
s-21.5 60 -21.5 96v255c0 36 7.16699 67.833 21.5 95.5s33.333 51 57 70s50.834 33.5 81.501 43.5s62.334 15 95.001 15c38 0 74.5 -5.33301 109.5 -16s65.833 -27 92.5 -49z" />
    <glyph glyph-name="D" unicode="D" horiz-adv-x="611" 
d="M559 223c0 -35.333 -6.5 -66.668 -19.5 -94.001s-30.667 -50.666 -53 -69.999s-48 -34 -77 -44s-59.5 -15 -91.5 -15h-259v689h260c32 0 62.5 -4.83301 91.5 -14.5s54.5 -24 76.5 -43s39.5 -42.333 52.5 -70s19.5 -59.5 19.5 -95.5v-243zM443 444.998
c0 26 -4.16699 48 -12.5 66s-19.5 32.5 -33.5 43.5s-29.667 19 -47 24s-35 7.5 -53 7.5h-124v-485h124c16.667 0 33.667 2.5 51 7.5s33 13 47 24s25.5 25.5 34.5 43.5s13.5 40 13.5 66v203z" />
    <glyph glyph-name="E" unicode="E" horiz-adv-x="567" 
d="M61 689h467v-103h-353v-189h302v-103h-302v-192h353v-102h-467v689z" />
    <glyph glyph-name="F" unicode="F" horiz-adv-x="540" 
d="M175 395h302v-103h-302v-292h-114v689h467v-103h-353v-191z" />
    <glyph glyph-name="G" unicode="G" horiz-adv-x="593" 
d="M537 87c-30 -34.667 -65.166 -59.001 -105.499 -73.001s-79.166 -21 -116.499 -21c-32.667 0 -64.5 4.83301 -95.5 14.5s-58.667 24 -83 43s-43.833 42.5 -58.5 70.5s-22 60 -22 96v254c0 36 7.16699 67.833 21.5 95.5s33.666 51.167 57.999 70.5s52.333 34 84 44
s64.834 15 99.501 15c38.667 0 75.667 -5.33301 111 -16s66 -27 92 -49l-56 -89c-19.333 16.667 -42.333 29 -69 37s-52.334 12 -77.001 12c-18.667 0 -36.834 -2.66699 -54.501 -8s-33.5 -13.666 -47.5 -24.999s-25.333 -26 -34 -44s-13 -39.667 -13 -65v-209
c0 -25.333 4 -47 12 -65s18.833 -32.667 32.5 -44s29.167 -19.666 46.5 -24.999s35 -8 53 -8c14 0 30.5 2.16699 49.5 6.5s38.5 14.166 58.5 29.499v138h-105v100h219v-285v0z" />
    <glyph glyph-name="H" unicode="H" horiz-adv-x="631" 
d="M459 0v298h-289v-298h-114v689h114v-288h289v288h116v-689h-116z" />
    <glyph glyph-name="I" unicode="I" horiz-adv-x="274" 
d="M194 689v-689h-114v689h114z" />
    <glyph glyph-name="J" unicode="J" horiz-adv-x="527" 
d="M451 219c0 -36 -6.50293 -67.998 -19.5029 -95.998s-30.667 -51.667 -53 -71s-48 -34 -77 -44s-59.5 -15 -91.5 -15c-17.333 0 -35.166 1.16699 -53.499 3.5s-36.166 6 -53.499 11s-34 11.167 -50 18.5s-30.333 15.666 -43 24.999l53 90
c23.333 -16 45.833 -27.167 67.5 -33.5s42.834 -9.5 63.501 -9.5s39.667 2.66699 57 8s32.333 13.666 45 24.999s22.5 26.333 29.5 45s10.5 41.667 10.5 69v444h115v-470v0z" />
    <glyph glyph-name="K" unicode="K" horiz-adv-x="609" 
d="M176 358l110 137l161 194h137l-226 -275l245 -414h-134l-93.5 161l-93.5 161l-55.5 -65.5l-54.5 -65.5v-191h-115v689h115v-331h4z" />
    <glyph glyph-name="L" unicode="L" horiz-adv-x="540" 
d="M64 0v689h113v-587h355v-102h-468z" />
    <glyph glyph-name="M" unicode="M" horiz-adv-x="763" 
d="M587 420l-64 -130l-97 -191h-84l-94 180l-71 141h-4v-420h-114v689h107l131 -262l85 -177h6l84 179l128 260h105v-689h-114v420h-4z" />
    <glyph glyph-name="N" unicode="N" horiz-adv-x="660" 
d="M173 473v-473h-114v689h106l205 -305l111 -171h6v476h114v-689h-107l-208 310l-106 163h-7z" />
    <glyph glyph-name="O" unicode="O" horiz-adv-x="625" 
d="M572 223c0 -36 -6.66602 -68.332 -19.999 -96.999s-31.833 -52.834 -55.5 -72.501s-51.334 -34.667 -83.001 -45s-65.5 -15.5 -101.5 -15.5c-36.667 0 -70.834 5.16699 -102.501 15.5s-59 25.333 -82 45s-41.167 43.834 -54.5 72.501s-20 61 -20 97v245
c0 36 6.83301 68 20.5 96s32.167 51.833 55.5 71.5s50.666 34.667 81.999 45s65 15.5 101 15.5c35.333 0 68.833 -5.33301 100.5 -16s59.334 -25.834 83.001 -45.501s42.334 -43.667 56.001 -72s20.5 -60.5 20.5 -96.5v-243zM457.001 449.001c0 24.667 -4 46 -12 64
s-18.667 32.833 -32 44.5s-28.833 20.167 -46.5 25.5s-35.834 8 -54.501 8c-19.333 0 -37.666 -2.66699 -54.999 -8s-32.5 -13.833 -45.5 -25.5s-23.5 -26.5 -31.5 -44.5s-12 -39.333 -12 -64v-209c0 -25.333 4 -47 12 -65s18.667 -32.667 32 -44
s28.666 -19.666 45.999 -24.999s35.333 -8 54 -8s36.834 2.66699 54.501 8s33.167 13.666 46.5 24.999s24 26 32 44s12 39.667 12 65v209z" />
    <glyph glyph-name="P" unicode="P" horiz-adv-x="565" 
d="M170 372h158c33.333 0 59.833 9.83301 79.5 29.5s29.5 45.5 29.5 77.5s-9.83301 57.833 -29.5 77.5s-46.167 29.5 -79.5 29.5h-158v-214zM353 689c33.333 0 62.332 -6.33301 86.999 -19s45 -29 61 -49s28 -42.5 36 -67.5s12 -49.833 12 -74.5s-4.5 -49.5 -13.5 -74.5
s-22 -47.667 -39 -68s-37.667 -36.833 -62 -49.5s-52.166 -19 -83.499 -19h-181v-268h-114v689h297z" />
    <glyph glyph-name="Q" unicode="Q" horiz-adv-x="635" 
d="M460 -178c-14 -2 -27.333 -3.00098 -40 -3.00098c-48.667 0 -87.334 11.333 -116.001 34s-43 56.334 -43 101.001v44c-30 4 -57.5 12 -82.5 24s-46.667 27.667 -65 47s-32.5 42 -42.5 68s-15 55 -15 87v240c0 36 6.83301 68.333 20.5 97s32.167 53 55.5 73
s50.666 35.333 81.999 46s65 16 101 16c35.333 0 68.833 -5.33301 100.5 -16s59.334 -26 83.001 -46s42.334 -44.167 56.001 -72.5s20.5 -60.5 20.5 -96.5v-241c0 -32 -5.33301 -61 -16 -87s-25.167 -48.667 -43.5 -68s-40.333 -35 -66 -47s-53.5 -20 -83.5 -24v-16
c0 -14 1.16699 -25.667 3.5 -35s6.5 -16.5 12.5 -21.5s14 -8.5 24 -10.5s23 -3 39 -3h15v-90zM460 431.999c0 24.667 -3.00391 45.998 -9.00391 63.998c-4 16.667 -10.5 31 -19.5 43s-19.5 21.667 -31.5 29s-25.333 12.833 -40 16.5s-29.667 5.5 -45 5.5
c-19.333 0 -37.666 -2.66699 -54.999 -8s-32.5 -13.666 -45.5 -24.999s-23.5 -26 -31.5 -44s-12 -39.667 -12 -65v-193c0 -22.667 2.66699 -44 8 -64c8.66699 -33.333 25.834 -57.166 51.501 -71.499s53.834 -21.5 84.501 -21.5c18.667 0 36.834 2.5 54.501 7.5
s33.167 13.167 46.5 24.5s24 26 32 44s12 39.667 12 65v193z" />
    <glyph glyph-name="R" unicode="R" horiz-adv-x="583" 
d="M354 689c34.667 0 64.333 -6.33203 89 -18.999s45 -29.167 61 -49.5s27.833 -43 35.5 -68s11.5 -49.833 11.5 -74.5c0 -18.667 -2.66699 -37.5 -8 -56.5s-13 -37 -23 -54s-22.167 -32.333 -36.5 -46s-30.833 -24.834 -49.5 -33.501l126 -288h-124l-113 268h-151v-268
h-115v689h297zM438.999 478.001c0 32 -9.83301 57.833 -29.5 77.5s-46.5 29.5 -80.5 29.5h-157v-213h157c34 0 60.833 9.66699 80.5 29s29.5 45 29.5 77z" />
    <glyph glyph-name="S" unicode="S" horiz-adv-x="577" 
d="M545 195c0 -32 -6.33203 -60.502 -18.999 -85.502s-30.167 -46 -52.5 -63s-49.166 -30 -80.499 -39s-65.333 -13.5 -102 -13.5c-48.667 0 -94.5 6.83301 -137.5 20.5s-84.5 36.834 -124.5 69.501l64 83c30 -22 61.833 -39.167 95.5 -51.5s67.5 -18.5 101.5 -18.5
c45.333 0 79.166 9.16699 101.499 27.5s33.5 41.5 33.5 69.5c0 19.333 -4.5 35 -13.5 47s-21.167 22 -36.5 30s-32.833 14.333 -52.5 19l-61.5 15c-26.667 6 -52.5 13.667 -77.5 23s-47 21.5 -66 36.5s-34.333 33.333 -46 55s-17.5 48.167 -17.5 79.5
c0 29.333 5.33301 56.333 16 81s26 46 46 64s44 32.167 72 42.5s59.333 15.5 94 15.5c41.333 0 82.166 -4.16699 122.499 -12.5s78.833 -24.166 115.5 -47.499l-51 -94c-30.667 18.667 -61.167 31.667 -91.5 39s-60.166 11 -89.499 11c-16 0 -31.167 -2 -45.5 -6
s-27 -10 -38 -18s-19.833 -18.167 -26.5 -30.5s-10 -26.833 -10 -43.5s4.33301 -30.667 13 -42s20.167 -20.833 34.5 -28.5s30.666 -14 48.999 -19s37.5 -9.5 57.5 -13.5c32.667 -7.33301 62.667 -16 90 -26s50.833 -22.833 70.5 -38.5s35 -34.5 46 -56.5s16.5 -49 16.5 -81
z" />
    <glyph glyph-name="T" unicode="T" horiz-adv-x="524" 
d="M320 585v-585h-115v585h-191v104h496v-104h-190z" />
    <glyph glyph-name="U" unicode="U" horiz-adv-x="627" 
d="M574 218c0 -36 -7.16602 -68 -21.499 -96s-33.5 -51.5 -57.5 -70.5s-51.667 -33.5 -83 -43.5s-64 -15 -98 -15c-34.667 0 -67.667 4.83301 -99 14.5s-58.833 24 -82.5 43s-42.5 42.5 -56.5 70.5s-21 60 -21 96v472h114v-451c0 -25.333 4 -46.833 12 -64.5
s18.833 -32.167 32.5 -43.5s29.167 -19.666 46.5 -24.999s35.333 -8 54 -8c18 0 35.833 2.66699 53.5 8s33.167 13.666 46.5 24.999s24.166 25.833 32.499 43.5s12.5 39.167 12.5 64.5v451h115v-471v0z" />
    <glyph glyph-name="V" unicode="V" horiz-adv-x="584" 
d="M296 172l70 240l85 277h122l-221 -689h-120l-222 689h124l88 -286l68 -231h6z" />
    <glyph glyph-name="W" unicode="W" horiz-adv-x="885" 
d="M439 490l-51 -206l-72 -284h-127l-179 689h123l69 -295l50 -220h6l54 222l74 293h112l77 -305l52 -210h5l48 212l71 303h123l-180 -689h-126l-73 286l-50 204h-6z" />
    <glyph glyph-name="X" unicode="X" horiz-adv-x="572" 
d="M286 258l-148 -258h-130l216 353l-203 336h131l134 -241l135 241h130l-202 -336l216 -353h-130z" />
    <glyph glyph-name="Y" unicode="Y" horiz-adv-x="556" 
d="M282 382l66 150l74 157h122l-208 -422v-267h-115v267l-210 422h124l75 -161l65 -146h7z" />
    <glyph glyph-name="Z" unicode="Z" horiz-adv-x="531" 
d="M35 99l325 487h-312v103h450v-96l-330 -491h329v-102h-462v99z" />
    <glyph glyph-name="bracketleft" unicode="[" horiz-adv-x="278" 
d="M71 -102v800h189v-72h-94v-656h94v-72h-189z" />
    <glyph glyph-name="backslash" unicode="\" horiz-adv-x="334" 
d="M-6 725h84l251 -767h-83z" />
    <glyph glyph-name="bracketright" unicode="]" horiz-adv-x="278" 
d="M24 -102v72h93v656h-93v72h188v-800h-188z" />
    <glyph glyph-name="asciicircum" unicode="^" horiz-adv-x="517" 
d="M409 298l-147 297l-148 -298h-90l199 398h78l199 -397h-91z" />
    <glyph glyph-name="underscore" unicode="_" horiz-adv-x="500" 
d="M0 -139v70h500v-70h-500z" />
    <glyph glyph-name="grave" unicode="`" horiz-adv-x="499" 
d="M282 546l-115 177l98 32l79 -183z" />
    <glyph glyph-name="a" unicode="a" horiz-adv-x="510" 
d="M354 45c-35.333 -20 -65.167 -33.1689 -89.5 -39.502s-46.833 -9.5 -67.5 -9.5c-49.333 0 -88 13.333 -116 40s-42 63.334 -42 110.001c0 27.333 6 50.333 18 69s27 33.834 45 45.501s37.5 20.167 58.5 25.5s40.5 8 58.5 8h137v30c0 29.333 -8.33301 50.333 -25 63
s-42.334 19 -77.001 19c-16.667 0 -37.167 -2.5 -61.5 -7.5s-48.833 -17.5 -73.5 -37.5l-49 79c33.333 25.333 66.833 41.833 100.5 49.5s64.834 11.5 93.501 11.5c68 0 118 -15 150 -45s48 -75.667 48 -137v-319h-96l-9 43zM355.999 211.998h-119
c-9.33301 0 -19 -0.666992 -29 -2s-19.167 -4.16602 -27.5 -8.49902s-15.333 -10.5 -21 -18.5s-8.5 -19 -8.5 -33c0 -18.667 6.66699 -33.167 20 -43.5s31 -15.5 53 -15.5c12 0 24 1.5 36 4.5s23.833 6.66699 35.5 11s22.667 9.16602 33 14.499s19.5 10.333 27.5 15v76z" />
    <glyph glyph-name="b" unicode="b" horiz-adv-x="513" 
d="M468 174c0 -58.667 -15.499 -103.167 -46.499 -133.5s-71.5 -45.5 -121.5 -45.5c-17.333 0 -38 3.33301 -62 10s-52.333 19.667 -85 39l-10 -44h-96v716h106v-267c36.667 20.667 67 34.5 91 41.5s44.667 10.5 62 10.5c55.333 0 96.166 -15.833 122.499 -47.5
s39.5 -75.167 39.5 -130.5v-149zM361.001 309c0 34 -7.00098 57.499 -21.001 70.499s-32 19.5 -54 19.5c-18.667 0 -39.667 -5.33301 -63 -16s-46.666 -23.334 -69.999 -38.001v-205c8.66699 -6 19 -11.667 31 -17s24 -10.166 36 -14.499s23.833 -7.66602 35.5 -9.99902
s21.834 -3.5 30.501 -3.5c21.333 0 39.166 7 53.499 21s21.5 37 21.5 69v124z" />
    <glyph glyph-name="c" unicode="c" horiz-adv-x="441" 
d="M422 62c-26.667 -27.333 -54.998 -45.334 -84.998 -54.001s-60 -13 -90 -13c-28 0 -54.333 4 -79 12s-46 19.667 -64 35s-32.167 33.833 -42.5 55.5s-15.5 46.5 -15.5 74.5v147c0 29.333 5.66699 55.333 17 78s26.333 41.667 45 57s40 27 64 35s48.667 12 74 12
c14.667 0 29.667 -0.833008 45 -2.5s30.5 -4.66699 45.5 -9s29.667 -10.666 44 -18.999s28.166 -19.5 41.499 -33.5l-62 -79c-22.667 20.667 -42.834 33.334 -60.501 38.001s-33.167 7 -46.5 7c-11.333 0 -23 -1.83301 -35 -5.5s-22.833 -9.5 -32.5 -17.5
s-17.667 -18.5 -24 -31.5s-9.5 -28.833 -9.5 -47.5v-106c0 -18.667 2.83301 -34.5 8.5 -47.5s13.167 -23.5 22.5 -31.5s20 -13.833 32 -17.5s24.333 -5.5 37 -5.5c14 0 31 3.16699 51 9.5s38 17.166 54 32.499z" />
    <glyph glyph-name="d" unicode="d" horiz-adv-x="513" 
d="M45 323c0 55.333 15.834 98.834 47.501 130.501s73.5 47.5 125.5 47.5c17.333 0 38.166 -1.83301 62.499 -5.5s50.5 -11.167 78.5 -22.5v243h106v-716h-96l-10 49c-34 -20.667 -62.833 -34.834 -86.5 -42.501s-44.167 -11.5 -61.5 -11.5
c-51.333 0 -91.833 14.5 -121.5 43.5s-44.5 74.167 -44.5 135.5v149zM151.001 182.001c0 -33.333 7.16504 -56.168 21.498 -68.501s32.5 -18.5 54.5 -18.5c8.66699 0 18.5 1.33301 29.5 4s22.5 6.33398 34.5 11.001s23.833 10 35.5 16s22.5 12.333 32.5 19v227
c-23.333 9.33301 -45.166 16.5 -65.499 21.5s-39.833 7.5 -58.5 7.5c-23.333 0 -43.166 -7 -59.499 -21s-24.5 -37.667 -24.5 -71v-127z" />
    <glyph glyph-name="e" unicode="e" horiz-adv-x="495" 
d="M152 213l0.00195312 -25c0 -17.333 3 -32.166 9 -44.499s13.833 -22.333 23.5 -30s21 -13.334 34 -17.001s26.5 -5.5 40.5 -5.5c15.333 0 33.833 2.66699 55.5 8s43.167 17.666 64.5 36.999l31.5 -36.5c10.333 -11.667 20.5 -23.834 30.5 -36.501
c-28 -27.333 -57.5 -45.5 -88.5 -54.5s-62.167 -13.5 -93.5 -13.5c-28.667 0 -55.834 3.66699 -81.501 11s-48.334 18.5 -68.001 33.5s-35.167 33.833 -46.5 56.5s-17 49.334 -17 80.001v130c0 30 5.16699 57 15.5 81s24.833 44.333 43.5 61s40.334 29.5 65.001 38.5
s51.667 13.5 81 13.5c30 0 57.667 -4.33301 83 -13s47.166 -21.167 65.499 -37.5s32.5 -36.166 42.5 -59.499s15 -50 15 -80v-97h-305zM350.002 304c0 34.667 -9.66602 59.833 -28.999 75.5s-42.333 23.5 -69 23.5s-49.834 -8.16699 -69.501 -24.5
s-29.5 -40.833 -29.5 -73.5v-16h197v15z" />
    <glyph glyph-name="f" unicode="f" horiz-adv-x="310" 
d="M187 405l0.000976562 -404.999h-104v405h-59v90h59v86c0 22.667 3.66699 42.5 11 59.5s17.166 31.167 29.499 42.5s26.833 19.666 43.5 24.999s34.667 8 54 8h88v-91h-73c-19.333 0 -32.333 -5.33301 -39 -16s-10 -24 -10 -40v-74h122v-90h-122z" />
    <glyph glyph-name="g" unicode="g" horiz-adv-x="511" 
d="M463 -29c0 -29.333 -6.49902 -55.167 -19.499 -77.5s-30 -41 -51 -56s-44.5 -26.167 -70.5 -33.5s-52.333 -11 -79 -11c-30 0 -61.833 5.16699 -95.5 15.5s-64.5 29.5 -92.5 57.5l67 73c8 -8 17.167 -15 27.5 -21s21.166 -11 32.499 -15s22.333 -6.83301 33 -8.5
s20 -2.5 28 -2.5c14.667 0 28.834 1.83301 42.501 5.5s25.667 9.5 36 17.5s18.666 18.333 24.999 31s9.5 28.334 9.5 47.001v53c-31.333 -19.333 -59.833 -32.166 -85.5 -38.499s-47.167 -9.5 -64.5 -9.5c-52 0 -92.333 15.667 -121 47s-43 74.666 -43 129.999v146
c0 57.333 15.167 101.666 45.5 132.999s70.5 47 120.5 47c18 0 39 -3.66699 63 -11s52.333 -21.333 85 -42l10 47h97v-524zM149.001 188.999c0 -33.333 6.99805 -56.834 20.998 -70.501s32 -20.167 54 -19.5c18.667 0 39.834 4.33301 63.501 13s46.5 20 68.5 34v201
c-21.333 15.333 -44.166 27.833 -68.499 37.5s-45.5 14.5 -63.5 14.5c-22 0 -40 -6.66699 -54 -20s-21 -36.666 -21 -69.999v-120z" />
    <glyph glyph-name="h" unicode="h" horiz-adv-x="513" 
d="M364 0v308.999c0 16.667 -2 30.834 -6 42.501s-9.5 21 -16.5 28s-15.167 12 -24.5 15s-19.333 4.5 -30 4.5c-18 0 -38.333 -4.33301 -61 -13s-46.667 -21 -72 -37v-349h-106v716h106v-271c38 24.667 69.5 40.167 94.5 46.5s46.5 9.5 64.5 9.5
c54.667 0 94.667 -15.833 120 -47.5s38 -75.167 38 -130.5v-323h-107z" />
    <glyph glyph-name="i" unicode="i" horiz-adv-x="254" 
d="M74 0v495h106v-495h-106zM66 637c0 17.333 5.83301 31.833 17.5 43.5s25.834 17.5 42.501 17.5c17.333 0 31.833 -5.83301 43.5 -17.5s17.5 -26.167 17.5 -43.5s-5.83301 -31.833 -17.5 -43.5s-26.167 -17.5 -43.5 -17.5c-16.667 0 -30.834 5.83301 -42.501 17.5
s-17.5 26.167 -17.5 43.5z" />
    <glyph glyph-name="j" unicode="j" horiz-adv-x="257" 
d="M189 -52c0 -52 -13.667 -90.167 -41 -114.5s-64 -36.5 -110 -36.5h-53v94h36c24.667 0 41.167 5.66699 49.5 17s12.5 30 12.5 56v531h106v-547zM76 638c0 16.667 5.66699 30.834 17 42.501s25.666 17.5 42.999 17.5s31.833 -5.83301 43.5 -17.5
s17.5 -25.834 17.5 -42.501c0 -17.333 -5.83301 -31.833 -17.5 -43.5s-26.167 -17.5 -43.5 -17.5s-31.666 5.83301 -42.999 17.5s-17 26.167 -17 43.5z" />
    <glyph glyph-name="k" unicode="k" horiz-adv-x="499" 
d="M47 0v716h107v-379h57c20 0 37.167 4 51.5 12s27.5 24 39.5 48l51 100h119l-60 -125c-9.33301 -19.333 -19.333 -35.666 -30 -48.999s-26 -23.666 -46 -30.999c14 -4.66699 25.667 -10.834 35 -18.501s17 -16.167 23 -25.5s11 -19.333 15 -30s7.66699 -21.334 11 -32.001
l62 -186h-118l-51 160c-9.33301 29.333 -21 49.333 -35 60s-34 16 -60 16h-64v-236h-107z" />
    <glyph glyph-name="l" unicode="l" horiz-adv-x="281" 
d="M181 145c0 -24 5 -39 15 -45s28.667 -9 56 -9l2 -92c-10 -2 -19.667 -3.33301 -29 -4s-18 -1 -26 -1c-26.667 0 -48 3.16699 -64 9.5s-28.5 15.333 -37.5 27s-15 25.667 -18 42s-4.5 34.833 -4.5 55.5v588h106v-571z" />
    <glyph glyph-name="m" unicode="m" horiz-adv-x="774" 
d="M292 501c30.667 0 56.4971 -6.33203 77.4971 -18.999s37.167 -30.334 48.5 -53.001c20.667 16 38.834 28.667 54.501 38s29.834 16.5 42.501 21.5s24 8.33301 34 10s19.333 2.5 28 2.5c50.667 0 88.834 -14.833 114.501 -44.5s38.5 -72.167 38.5 -127.5v-329h-106v314
c0 30 -6 51.5 -18 64.5s-29.667 19.5 -53 19.5c-16 0 -33 -4.33301 -51 -13s-39 -22.334 -63 -41.001c0.666992 -7.33301 1.16699 -14 1.5 -20s0.5 -12.667 0.5 -20v-304h-107v316c0 30.667 -6.5 52 -19.5 64s-28.5 18 -46.5 18s-35.667 -3.5 -53 -10.5
s-38.666 -19.167 -63.999 -36.5v-351h-107v495h97l9 -51c34.667 24.667 62.667 40.334 84 47.001s40.666 10 57.999 10z" />
    <glyph glyph-name="n" unicode="n" horiz-adv-x="513" 
d="M362 0v308.999c0 34 -7.33301 57.5 -22 70.5s-33 19.5 -55 19.5c-18 0 -38.333 -4.33301 -61 -13s-46.667 -21 -72 -37v-349h-106v495h96l10 -49c20 12 38.167 21.667 54.5 29s31 13 44 17s24.667 6.5 35 7.5s19.833 1.5 28.5 1.5c52 0 90.833 -15.667 116.5 -47
s38.5 -74.666 38.5 -129.999v-324h-107z" />
    <glyph glyph-name="o" unicode="o" horiz-adv-x="512" 
d="M466 175c0 -29.333 -5.83203 -55.332 -17.499 -77.999s-27.334 -41.5 -47.001 -56.5s-42.167 -26.333 -67.5 -34s-51.666 -11.5 -78.999 -11.5c-28 0 -54.833 3.83301 -80.5 11.5s-48 19 -67 34s-34.167 33.833 -45.5 56.5s-17 48.667 -17 78v144
c0 29.333 5.83301 55.333 17.5 78s27.167 41.667 46.5 57s41.666 27 66.999 35s52 12 80 12c30 0 57.667 -4 83 -12s47.5 -19.833 66.5 -35.5s33.833 -34.834 44.5 -57.501s16 -48.667 16 -78v-143zM361.001 300.001c0 18.667 -3.16797 34.499 -9.50098 47.499
s-14.5 23.5 -24.5 31.5s-21.333 13.833 -34 17.5s-25 5.5 -37 5.5s-24.333 -1.83301 -37 -5.5s-24 -9.5 -34 -17.5s-18.167 -18.5 -24.5 -31.5s-9.5 -28.833 -9.5 -47.5v-105c0 -37.333 10.333 -63.666 31 -78.999s45.334 -23 74.001 -23c12 0 24.333 1.83301 37 5.5
s24 9.5 34 17.5s18.167 18.5 24.5 31.5s9.5 28.833 9.5 47.5v105z" />
    <glyph glyph-name="p" unicode="p" horiz-adv-x="514" 
d="M471 172c0 -55.333 -15.168 -98.833 -45.501 -130.5s-73.166 -47.5 -128.499 -47.5c-17.333 0 -38 1.66699 -62 5s-50.333 11.666 -79 24.999v-222h-106v693h96l10 -49c34 20.667 63 34.834 87 42.501s44.667 11.5 62 11.5c51.333 0 91.833 -14.5 121.5 -43.5
s44.5 -74.167 44.5 -135.5v-149zM363.999 312c0 33.333 -7.16602 56.168 -21.499 68.501s-32.5 18.5 -54.5 18.5c-8.66699 0 -18.5 -1.33301 -29.5 -4s-22.5 -6.33398 -34.5 -11.001s-23.833 -10 -35.5 -16s-22.5 -12.333 -32.5 -19v-226c26.667 -11.333 49.5 -19 68.5 -23
s37.5 -6 55.5 -6c11.333 0 22.166 1.33301 32.499 4s19.333 7.5 27 14.5s13.667 16.167 18 27.5s6.5 25.333 6.5 42v130z" />
    <glyph glyph-name="q" unicode="q" horiz-adv-x="509" 
d="M43 322c0 58.667 15.5 103.167 46.5 133.5s71.5 45.5 121.5 45.5c17.333 0 37.833 -3.5 61.5 -10.5s52.5 -20.5 86.5 -40.5l10 45h95v-694h-106v241c-34.667 -19.333 -64 -32 -88 -38s-44.667 -9 -62 -9c-52 0 -92.5 15.833 -121.5 47.5s-43.5 75.167 -43.5 130.5v149z
M150 187c0 -33.333 7.16699 -56.667 21.5 -70s32.5 -19.666 54.5 -18.999c18 0 38.5 4.16699 61.5 12.5s46.5 20.166 70.5 35.499v209c-21.333 12.667 -44.5 23.667 -69.5 33s-45.833 14 -62.5 14c-22 0 -40.167 -7 -54.5 -21s-21.5 -37.333 -21.5 -70v-124z" />
    <glyph glyph-name="r" unicode="r" horiz-adv-x="356" 
d="M349 391c-44 -4 -80.501 -11.333 -109.501 -22s-53.167 -22 -72.5 -34v-335h-106v496h96l9 -73h1c8.66699 8.66699 19.834 17.667 33.501 27s28.667 17.833 45 25.5s33.333 14 51 19s35.167 7.5 52.5 7.5v-111z" />
    <glyph glyph-name="s" unicode="s" horiz-adv-x="460" 
d="M232 -6c-36 0 -71 4.33203 -105 12.999s-69 27.334 -105 56.001l58 77c24.667 -20.667 49.667 -34.834 75 -42.501s52 -11.5 80 -11.5c23.333 0 44.166 5 62.499 15s27.5 25.333 27.5 46c0 17.333 -6 30.166 -18 38.499s-29.667 14.5 -53 18.5
c-24 4 -48.333 8.5 -73 13.5s-47 12.5 -67 22.5s-36.333 23.5 -49 40.5s-19 39.5 -19 67.5c0 24 5 45.5 15 64.5s23.5 35 40.5 48s36.5 23 58.5 30s45.333 10.5 70 10.5c38 0 72.167 -3.83301 102.5 -11.5s60.166 -22.167 89.499 -43.5l-52 -79
c-24 15.333 -47.333 25.833 -70 31.5s-45.667 8.5 -69 8.5c-25.333 0 -45.166 -5.66699 -59.499 -17s-21.5 -24.666 -21.5 -39.999s7 -26.5 21 -33.5s31.5 -12.667 52.5 -17l68.5 -13.5c24.667 -4.66699 47.5 -12 68.5 -22s38.5 -24.167 52.5 -42.5s21 -43.166 21 -74.499
c0 -24 -5.16699 -45.5 -15.5 -64.5s-24.666 -35 -42.999 -48s-39.833 -23 -64.5 -30s-51 -10.5 -79 -10.5z" />
    <glyph glyph-name="t" unicode="t" horiz-adv-x="370" 
d="M27 405l-0.00195312 89.999h68l21 119h82v-119h129v-90h-129v-224c0 -31.333 4.33301 -53.833 13 -67.5s27.334 -20.5 56.001 -20.5c8.66699 0 20 0.833008 34 2.5s28.333 4.83398 43 9.50098l21 -93c-20 -7.33301 -41.167 -12 -63.5 -14s-40.166 -3 -53.499 -3
c-29.333 0 -53.833 3.83301 -73.5 11.5s-35.5 18.667 -47.5 33s-20.667 32 -26 53s-8 44.833 -8 71.5v241h-66z" />
    <glyph glyph-name="u" unicode="u" horiz-adv-x="516" 
d="M151 495l0.00292969 -310.002c0 -33.333 7.66699 -56.666 23 -69.999s33.666 -20 54.999 -20c36.667 0 80.667 18 132 54v346h107v-495h-97l-10 48c-38.667 -23.333 -69.834 -38.166 -93.501 -44.499s-43.834 -9.5 -60.501 -9.5c-54 0 -94.667 16.5 -122 49.5
s-41 77.167 -41 132.5v319h107z" />
    <glyph glyph-name="v" unicode="v" horiz-adv-x="480" 
d="M245 139c0.666992 2.66699 2.33301 8.5 5 17.5l9.5 32l12 38.5l12 38.5l9.5 32c2.66699 9 4.66699 14.833 6 17.5l57 180h116l-177 -495h-109l-178 495h118l58 -178l56 -178h5z" />
    <glyph glyph-name="w" unicode="w" horiz-adv-x="714" 
d="M356 305l-50 -160l-47 -145h-104l-140 496h111l43 -170l41 -173h4l57 173l40 122h97l45 -136l50 -161h5l41 176l42 169h108l-135 -496h-105l-49 149l-50 156h-4z" />
    <glyph glyph-name="x" unicode="x" horiz-adv-x="470" 
d="M337 0l-104 171l-106 -171h-126l175 253l-166 243h127l96 -161l98 161h127l-168 -241l175 -255h-128z" />
    <glyph glyph-name="y" unicode="y" horiz-adv-x="479" 
d="M106 -200l75 210l-36 29l-135 457h112l53 -203l49 -181h3l63 182l67 202h112l-253 -696h-110z" />
    <glyph glyph-name="z" unicode="z" horiz-adv-x="462" 
d="M39 0v85l254 319h-240v91h371v-85l-253 -317h253v-93h-385z" />
    <glyph glyph-name="braceleft" unicode="{" horiz-adv-x="278" 
d="M192 -99c-33.333 0 -58.499 10.9971 -75.499 32.9971s-25.5 56 -25.5 102v102c0 37.333 -5.83301 67 -17.5 89s-31.5 34 -59.5 36v69c26 2.66699 45.333 14.834 58 36.501s19 48.5 19 80.5v133c0 34.667 9.66699 62.334 29 83.001s43.333 31 72 31h78v-70h-41
c-8.66699 0 -15.834 -2.33301 -21.501 -7s-10.167 -10.834 -13.5 -18.501s-5.66602 -16 -6.99902 -25s-2 -17.833 -2 -26.5v-123c0 -19.333 -2.66699 -36.333 -8 -51s-12 -27.167 -20 -37.5s-16.333 -18.666 -25 -24.999s-16.334 -10.833 -23.001 -13.5v-2
c7.33301 -2.66699 15.5 -7.16699 24.5 -13.5s17.333 -14.666 25 -24.999s14 -22.666 19 -36.999s7.5 -30.833 7.5 -49.5v-126c0 -8.66699 0.5 -17.5 1.5 -26.5s3 -17.333 6 -25s7.5 -13.834 13.5 -18.501s13.667 -7 23 -7h41v-68h-78z" />
    <glyph glyph-name="bar" unicode="|" horiz-adv-x="222" 
d="M69 -184v905h84v-905h-84z" />
    <glyph glyph-name="braceright" unicode="}" horiz-adv-x="278" 
d="M267 263c-28.667 -2 -48.667 -13.9971 -60 -35.9971s-17 -51.667 -17 -89v-102c0 -40.667 -8.33301 -73.334 -25 -98.001s-42 -37 -76 -37h-78v68h41c9.33301 0 16.833 2.33301 22.5 7s10.167 10.834 13.5 18.501s5.5 16 6.5 25s1.5 17.833 1.5 26.5v126
c0 18.667 2.5 35.167 7.5 49.5s11.333 26.666 19 36.999s15.834 18.666 24.501 24.999s17 10.833 25 13.5v2c-7.33301 2.66699 -15.333 7.16699 -24 13.5s-16.834 14.666 -24.501 24.999s-14.167 22.833 -19.5 37.5s-8 31.667 -8 51v123c0 8.66699 -0.333008 17.5 -1 26.5
s-2.5 17.333 -5.5 25s-7.5 13.834 -13.5 18.501s-14 7 -24 7h-41v67h76c32.667 0 58 -10.333 76 -31s27 -47.334 27 -80.001v-133c0 -32.667 6.33301 -59.667 19 -81s32 -33.333 58 -36v-69v0z" />
    <glyph glyph-name="asciitilde" unicode="~" horiz-adv-x="517" 
d="M164 354c15.333 0 31.3281 -3.33496 47.9951 -10.002s33.167 -13.834 49.5 -21.501l48 -21.5c15.667 -6.66699 30.5 -10 44.5 -10c13.333 0 26 4.16699 38 12.5s26 24.5 42 48.5l66 -47c-19.333 -34 -40.666 -59.333 -63.999 -76s-50.666 -25 -81.999 -25
c-15.333 0 -31 3.33301 -47 10s-32.167 13.834 -48.5 21.501s-32.666 14.834 -48.999 21.501s-32.166 10 -47.499 10c-16.667 0 -31 -4.16699 -43 -12.5s-25 -22.166 -39 -41.499l-62 50c17.333 30 37.833 52.667 61.5 68s51.834 23 84.501 23z" />
    <glyph glyph-name="exclamdown" unicode="&#xa1;" horiz-adv-x="251" 
d="M173 297l7 -498h-107l7 498h93zM127 501c20.667 0 37.167 -6.66699 49.5 -20s18.5 -30 18.5 -50c0 -17.333 -6.16699 -32.833 -18.5 -46.5s-28.5 -20.5 -48.5 -20.5c-21.333 0 -38.5 6.83301 -51.5 20.5s-19.5 29.167 -19.5 46.5c0 19.333 6.16699 35.833 18.5 49.5
s29.5 20.5 51.5 20.5z" />
    <glyph glyph-name="cent" unicode="&#xa2;" horiz-adv-x="441" 
d="M422 62c-23.333 -23.333 -47.668 -39.668 -73.001 -49.001s-50.666 -15 -75.999 -17v-120h-49v120c-25.333 2 -48.833 7.33301 -70.5 16s-40.5 20.5 -56.5 35.5s-28.5 33 -37.5 54s-13.5 44.5 -13.5 70.5v147c0 26.667 4.83301 50.834 14.5 72.501s22.667 40.167 39 55.5
s35.333 27.5 57 36.5s44.167 14.5 67.5 16.5v112h49v-112c25.333 -1.33301 51 -6.33301 77 -15s50 -24.667 72 -48l-62 -79c-17.333 16 -33.333 27 -48 33s-27.667 9.66699 -39 11v-308c13.333 2 27.5 6.33301 42.5 13s28.833 16 41.5 28zM151.998 194.998
c0 -30 7.16895 -52.834 21.502 -68.501s31.166 -25.834 50.499 -30.501v303c-18.667 -5.33301 -35.334 -15.666 -50.001 -30.999s-22 -37.666 -22 -66.999v-106z" />
    <glyph glyph-name="sterling" unicode="&#xa3;" horiz-adv-x="517" 
d="M404 535c-19.333 26 -39.6689 43.5039 -61.002 52.5039s-42.666 13.5 -63.999 13.5c-9.33301 0 -19 -1.83301 -29 -5.5s-19.5 -9.16699 -28.5 -16.5s-16.333 -16.833 -22 -28.5s-8.5 -25.5 -8.5 -41.5c0 -12 1.5 -23.833 4.5 -35.5s6.83301 -23.5 11.5 -35.5
s9.16699 -24.167 13.5 -36.5s8.16602 -25.5 11.499 -39.5h153v-80h-148c-1.33301 -32.667 -5.83301 -65 -13.5 -97s-21.167 -63 -40.5 -93h299v-92h-433v79c22.667 30 41.334 61.333 56.001 94s23 69 25 109h-83v80h68c-3.33301 12.667 -7.33301 25.167 -12 37.5
s-9 24.666 -13 36.999s-7.5 24.666 -10.5 36.999s-4.5 24.833 -4.5 37.5c0 24 4.33301 47.167 13 69.5s21.334 42.166 38.001 59.499s37.5 31.166 62.5 41.499s53.833 15.5 86.5 15.5c42.667 0 81 -6.83301 115 -20.5s65 -39.167 93 -76.5z" />
    <glyph glyph-name="currency" unicode="&#xa4;" horiz-adv-x="556" 
d="M35 502l57.001 56.999l68 -68c38 24 76.667 36 116 36c21.333 0 41.333 -3 60 -9s37.334 -14.667 56.001 -26l12 12l21 21.5l21 21.5c6.66699 6.66699 11 10.667 13 12l57 -58l-68 -67c11.333 -18.667 20.166 -37.5 26.499 -56.5s9.5 -38.167 9.5 -57.5
c0 -20.667 -3 -40.167 -9 -58.5s-15 -37.166 -27 -56.499l34 -32c12.667 -12 24 -23.333 34 -34l-57 -58l-67 68c-18 -12 -36.5 -21.167 -55.5 -27.5s-39.167 -9.5 -60.5 -9.5c-40.667 0 -79.334 12.333 -116.001 37l-68 -68l-11 11.5
c-5.33301 5.66699 -11.166 11.5 -17.499 17.5l-17.5 17l-11 11l69 67c-24 38 -36 76.333 -36 115c0 19.333 3.16699 38.5 9.5 57.5s15.166 37.833 26.499 56.5zM151.001 319.999c0 -17.333 3.16699 -33.4971 9.5 -48.4971s15.166 -28.167 26.499 -39.5
s24.5 -20.333 39.5 -27s31.167 -10 48.5 -10s33.666 3.33301 48.999 10s28.666 15.667 39.999 27s20.166 24.5 26.499 39.5s9.5 31.167 9.5 48.5s-3.16699 33.666 -9.5 48.999s-15.166 28.666 -26.499 39.999s-24.666 20.166 -39.999 26.499s-31.666 9.5 -48.999 9.5
s-33.5 -3.33301 -48.5 -10s-28.167 -15.667 -39.5 -27s-20.166 -24.5 -26.499 -39.5s-9.5 -31.167 -9.5 -48.5z" />
    <glyph glyph-name="yen" unicode="&#xa5;" horiz-adv-x="517" 
d="M50 223h152v44l-15 32h-136v72h105l-140 318h123l117 -305h7l116 305h123l-140 -318h107v-72h-139l-13 -32v-44h152v-69h-152v-154h-115v154h-152v69z" />
    <glyph glyph-name="brokenbar" unicode="&#xa6;" horiz-adv-x="222" 
d="M69 297v424h84v-424h-84zM153 237v-421h-84v421h84z" />
    <glyph glyph-name="section" unicode="&#xa7;" horiz-adv-x="445" 
d="M406 307c0 -23.333 -4.49805 -44.6729 -13.498 -64.0059s-22.833 -38.666 -41.5 -57.999c8 -9.33301 15.167 -21.166 21.5 -35.499s9.5 -30.166 9.5 -47.499c0 -26.667 -5 -49.834 -15 -69.501s-23.167 -36 -39.5 -49s-35 -22.667 -56 -29s-42.833 -9.5 -65.5 -9.5
c-26 0 -51.5 3.33301 -76.5 10s-47.167 17 -66.5 31l35 73c15.333 -10.667 31.833 -19 49.5 -25s37.167 -9 58.5 -9c20 0 37.833 5.33301 53.5 16s23.5 27 23.5 49c0 19.333 -6.5 36.333 -19.5 51s-37.5 30 -73.5 46c-19.333 8.66699 -37.833 17.834 -55.5 27.501
s-33.334 20.834 -47.001 33.501s-24.5 27.334 -32.5 44.001s-12 36 -12 58c0 18.667 4.16699 38.5 12.5 59.5s23.5 41.167 45.5 60.5c-9.33301 10.667 -16.666 22.5 -21.999 35.5s-8 27.833 -8 44.5c0 24.667 4.66699 46.667 14 66s22 35.333 38 48s34.5 22.334 55.5 29.001
s43.167 10 66.5 10s47.5 -3 72.5 -9s46.833 -15 65.5 -27l-41 -76c-16 10 -31.833 17.667 -47.5 23s-32.834 8 -51.501 8c-8.66699 0 -17.5 -1.33301 -26.5 -4s-17 -6.5 -24 -11.5s-12.667 -11.333 -17 -19s-6.5 -16.5 -6.5 -26.5c0 -26 14.667 -48 44 -66
c23.333 -14 46.5 -26.5 69.5 -37.5s43.667 -23 62 -36s33.166 -28.333 44.499 -46s17 -40.5 17 -68.5zM167.002 417.993c-20 -16 -29.999 -35.332 -29.999 -57.999c0 -14 3.16699 -25.833 9.5 -35.5s14.666 -18 24.999 -25s21.833 -13.333 34.5 -19s25.667 -12.167 39 -19.5
l33 -18c20.667 13.333 31 30.666 31 51.999c0 15.333 -4.5 29 -13.5 41s-20.5 22.833 -34.5 32.5s-29.333 18.5 -46 26.5z" />
    <glyph glyph-name="dieresis" unicode="&#xa8;" horiz-adv-x="490" 
d="M282 632c0 16 5.66699 29.667 17 41s25 17 41 17c16.667 0 30.667 -5.66699 42 -17s17 -25 17 -41s-5.66699 -29.667 -17 -41s-25.333 -17 -42 -17c-16 0 -29.667 5.66699 -41 17s-17 25 -17 41zM86 632c0 16 5.66699 29.667 17 41s24.666 17 39.999 17
c16.667 0 30.667 -5.66699 42 -17s17 -25 17 -41s-5.66699 -29.667 -17 -41s-25.333 -17 -42 -17c-15.333 0 -28.666 5.66699 -39.999 17s-17 25 -17 41z" />
    <glyph glyph-name="copyright" unicode="&#xa9;" horiz-adv-x="809" 
d="M406 -11c-50 0 -96.5 8.83203 -139.5 26.499s-80 42.167 -111 73.5s-55.333 68.5 -73 111.5s-26.5 89.833 -26.5 140.5s9 97.667 27 141s42.667 80.666 74 111.999s68.333 56 111 74s88.667 27 138 27c50 0 96.333 -8.83301 139 -26.5s79.667 -42.167 111 -73.5
s56 -68.666 74 -111.999s27 -90.666 27 -141.999c0 -50.667 -9 -97.5 -27 -140.5s-42.667 -80.167 -74 -111.5s-68.333 -55.833 -111 -73.5s-89 -26.5 -139 -26.5zM406 627.999c-39.333 0 -76 -7.33398 -110 -22.001s-63.5 -34.667 -88.5 -60s-44.667 -55.666 -59 -90.999
s-21.5 -73.333 -21.5 -114s7.16699 -78.334 21.5 -113.001s34 -64.834 59 -90.501s54.5 -45.667 88.5 -60s70.667 -21.5 110 -21.5c40 0 77 7.16699 111 21.5s63.5 34.333 88.5 60s44.5 55.834 58.5 90.501s21 72.334 21 113.001c0 41.333 -7 79.5 -21 114.5
s-33.5 65.333 -58.5 91s-54.5 45.667 -88.5 60s-71 21.5 -111 21.5zM509 454.998c-13.333 11.333 -28.665 19.832 -45.998 25.499s-34.666 8.5 -51.999 8.5c-11.333 0 -22.833 -1.83301 -34.5 -5.5s-22 -9.33398 -31 -17.001s-16.333 -17.667 -22 -30
s-8.5 -27.166 -8.5 -44.499v-112c0 -17.333 2.83301 -32.166 8.5 -44.499s13.167 -22.333 22.5 -30s19.666 -13.334 30.999 -17.001s22.666 -5.5 33.999 -5.5c16.667 0 33.667 2.5 51 7.5s33.666 13.5 48.999 25.5l37 -58c-16 -13.333 -36 -24.166 -60 -32.499
s-49.667 -12.5 -77 -12.5c-22 0 -43.5 3.33301 -64.5 10s-39.5 16.5 -55.5 29.5s-28.833 29 -38.5 48s-14.5 40.5 -14.5 64.5v140c0 24 4.83301 45.5 14.5 64.5s22.5 35 38.5 48s34.333 23 55 30s42 10.5 64 10.5c26 0 51 -3.5 75 -10.5s44.667 -18.167 62 -33.5z" />
    <glyph glyph-name="ordfeminine" unicode="&#xaa;" horiz-adv-x="352" 
d="M239 308c-13.333 -11.333 -29 -20.168 -47 -26.501s-36.333 -9.5 -55 -9.5c-36 0 -64 9 -84 27s-30 43 -30 75c0 18.667 3.5 34.5 10.5 47.5s16 23.5 27 31.5s23 13.667 36 17s25.5 5 37.5 5h103v14c0 16.667 -5.83301 28.667 -17.5 36s-27.5 11 -47.5 11
c-11.333 0 -24.166 -1.66699 -38.499 -5s-30.833 -11.666 -49.5 -24.999l-39 60c24 16.667 47.167 27.667 69.5 33s43.166 8 62.499 8c97.333 0 146 -40.667 146 -122v-210h-78zM238 411.998h-75.001c-6 0 -12 -0.5 -18 -1.5s-11.667 -2.66699 -17 -5
s-9.66602 -5.83301 -12.999 -10.5s-5 -10.667 -5 -18c0 -9.33301 3.83301 -17.333 11.5 -24s18.167 -10 31.5 -10c15.333 0 30.5 2.83301 45.5 8.5s28.167 12.167 39.5 19.5v41z" />
    <glyph glyph-name="guillemotleft" unicode="&#xab;" horiz-adv-x="503" 
d="M368 34l-133 195l133 196h99l-129 -196l129 -195h-99zM178 34l-133 195l133 196h98l-130 -196l130 -195h-98z" />
    <glyph glyph-name="logicalnot" unicode="&#xac;" horiz-adv-x="517" 
d="M489 64h-84v190h-380v81h464v-271z" />
    <glyph glyph-name="sfthyphen" unicode="&#xad;" horiz-adv-x="408" 
d="M50 217v94h307v-94h-307z" />
    <glyph glyph-name="registered" unicode="&#xae;" horiz-adv-x="549" 
d="M279 467l-40 -0.000976562v-98h-44v242h99c20.667 0 38.167 -6.33301 52.5 -19s21.5 -29.667 21.5 -51c0 -15.333 -4 -28.666 -12 -39.999s-19 -20.333 -33 -27l53 -105h-50zM239 569.999l-0.000976562 -61h49c10.667 0 19.334 2.83301 26.001 8.5s10 13.5 10 23.5
c0 19.333 -11.333 29 -34 29h-51zM273.999 279.999c-30 0 -58 5.33301 -84 16s-48.5 25.167 -67.5 43.5s-33.833 40.333 -44.5 66s-16 53.5 -16 83.5c0 30.667 5.5 59 16.5 85s26.167 48.5 45.5 67.5s41.833 33.833 67.5 44.5s53.167 16 82.5 16c30 0 58 -5.33301 84 -16
s48.5 -25.5 67.5 -44.5s34 -41.5 45 -67.5s16.5 -54.333 16.5 -85c0 -30 -5.5 -57.833 -16.5 -83.5s-26.167 -47.667 -45.5 -66s-41.833 -32.833 -67.5 -43.5s-53.5 -16 -83.5 -16zM273.999 658.999c-24 0 -46.167 -4.33301 -66.5 -13s-38 -20.5 -53 -35.5
s-26.667 -32.833 -35 -53.5s-12.5 -43.334 -12.5 -68.001c0 -24 4.16699 -46.167 12.5 -66.5s20 -38 35 -53s32.667 -26.833 53 -35.5s42.5 -13 66.5 -13s46.167 4.33301 66.5 13s38 20.5 53 35.5s26.833 32.667 35.5 53s13 42.5 13 66.5
c0 24.667 -4.33301 47.334 -13 68.001s-20.5 38.5 -35.5 53.5s-32.667 26.833 -53 35.5s-42.5 13 -66.5 13z" />
    <glyph glyph-name="macron" unicode="&#xaf;" horiz-adv-x="499" 
d="M115 593v89h290v-89h-290z" />
    <glyph glyph-name="degree" unicode="&#xb0;" horiz-adv-x="399" 
d="M343 561c0 -19.333 -3.83301 -37.5 -11.5 -54.5s-18 -31.833 -31 -44.5s-28.167 -22.667 -45.5 -30s-36 -11 -56 -11s-38.667 3.66699 -56 11s-32.5 17.333 -45.5 30s-23.333 27.5 -31 44.5s-11.5 35.167 -11.5 54.5s3.83301 37.666 11.5 54.999s18 32.333 31 45
s28.167 22.667 45.5 30s36 11 56 11s38.667 -3.66699 56 -11s32.5 -17.333 45.5 -30s23.333 -27.667 31 -45s11.5 -35.666 11.5 -54.999zM272 561c0 20 -7 37 -21 51s-31.333 21 -52 21c-20 0 -37.167 -7 -51.5 -21s-21.5 -31 -21.5 -51
c0 -19.333 7.16699 -36.166 21.5 -50.499s31.5 -21.5 51.5 -21.5c20.667 0 38 7.16699 52 21.5s21 31.166 21 50.499z" />
    <glyph glyph-name="plusminus" unicode="&#xb1;" horiz-adv-x="517" 
d="M300 301v-174h-84v174h-187v81h187v176h84v-176h187v-81h-187zM27 0v80h461v-80h-461z" />
    <glyph glyph-name="twosuperior" unicode="&#xb2;" horiz-adv-x="337" 
d="M310 666c0 -14.667 -3.33398 -28.665 -10.001 -41.998s-15.167 -25.666 -25.5 -36.999s-21.666 -22 -33.999 -32s-24.5 -19 -36.5 -27l-28 -18c-10.667 -6.66699 -20.667 -14 -30 -22s-17.333 -16.5 -24 -25.5s-10 -18.5 -10 -28.5h198v-71h-284v60
c0 19.333 3.33301 36.5 10 51.5s15.5 28.667 26.5 41s23.5 23.666 37.5 33.999s28 20.166 42 29.499l27 17.5c10 6.33301 19.167 13.166 27.5 20.499s15.333 15 21 23s8.5 16.333 8.5 25c0 14.667 -7 25.5 -21 32.5s-29 10.5 -45 10.5c-15.333 0 -30.5 -2.83301 -45.5 -8.5
s-29.167 -13.5 -42.5 -23.5l-43 59c17.333 13.333 37.833 24.5 61.5 33.5s48.167 13.5 73.5 13.5c18.667 0 36.834 -2 54.501 -6s33.167 -10.5 46.5 -19.5s24.166 -20.833 32.499 -35.5s12.5 -33 12.5 -55z" />
    <glyph glyph-name="threesuperior" unicode="&#xb3;" horiz-adv-x="336" 
d="M156 781c18 0 35.5029 -2.16602 52.5029 -6.49902s32.167 -11 45.5 -20s24 -21 32 -36s12 -32.833 12 -53.5c0 -19.333 -5.16699 -36.833 -15.5 -52.5s-25.833 -26.834 -46.5 -33.501c23.333 -8.66699 39.833 -21.334 49.5 -38.001s14.5 -33.667 14.5 -51
c0 -22 -4.16699 -41.333 -12.5 -58s-19.333 -30.334 -33 -41.001s-29.5 -18.667 -47.5 -24s-36.667 -8 -56 -8c-27.333 0 -52.5 3.83301 -75.5 11.5s-43.167 18.167 -60.5 31.5l42 62c13.333 -10 28.166 -17.667 44.499 -23s31.166 -8 44.499 -8
c20.667 0 37.667 4.5 51 13.5s20 22.167 20 39.5c0 16.667 -5.83301 29.834 -17.5 39.501s-25.5 14.5 -41.5 14.5h-58v69h58c13.333 0 26.333 4.5 39 13.5s19 22.5 19 40.5c0 8 -2 14.833 -6 20.5s-9.33301 10.334 -16 14.001s-13.834 6.33398 -21.501 8.00098
s-15.5 2.5 -23.5 2.5c-14 0 -29.167 -2.33301 -45.5 -7s-31.166 -12.334 -44.499 -23.001l-39 60c17.333 13.333 37.666 23.833 60.999 31.5s48.333 11.5 75 11.5z" />
    <glyph glyph-name="acute" unicode="&#xb4;" horiz-adv-x="499" 
d="M190 570l76 185l98 -31l-111 -178z" />
    <glyph glyph-name="mu" unicode="&#xb5;" horiz-adv-x="518" 
d="M47 495l107.001 -0.00195312v-309c0 -33.333 7.66699 -56.666 23 -69.999s33.666 -19.666 54.999 -18.999c17.333 0 36.666 4.16699 57.999 12.5s46 21.833 74 40.5v345h106v-495h-103l-3 48c-35.333 -24 -64.666 -38.833 -87.999 -44.5s-44 -8.5 -62 -8.5
c-24.667 0 -44.667 5.66699 -60 17v-211h-107v694z" />
    <glyph glyph-name="mu" unicode="&#x3bc;" horiz-adv-x="518" 
d="M47 495l107.001 -0.00195312v-309c0 -33.333 7.66699 -56.666 23 -69.999s33.666 -19.666 54.999 -18.999c17.333 0 36.666 4.16699 57.999 12.5s46 21.833 74 40.5v345h106v-495h-103l-3 48c-35.333 -24 -64.666 -38.833 -87.999 -44.5s-44 -8.5 -62 -8.5
c-24.667 0 -44.667 5.66699 -60 17v-211h-107v694z" />
    <glyph glyph-name="paragraph" unicode="&#xb6;" horiz-adv-x="538" 
d="M476 58c0 -31.333 -3.33105 -59.001 -9.99805 -83.001s-18 -44.167 -34 -60.5s-37.333 -29 -64 -38s-60 -14.167 -100 -15.5l-6 83c28.667 4 51.167 9.5 67.5 16.5s28.666 15.833 36.999 26.5s13.666 23.334 15.999 38.001s3.5 31 3.5 49v632h90v-648zM231.002 326.999
c-27.333 0 -52.5 5 -75.5 15s-43 23.5 -60 40.5s-30.167 37 -39.5 60s-14 47.5 -14 73.5s4.83301 50.5 14.5 73.5s23 43.167 40 60.5s37 31 60 41s47.833 15 74.5 15h91v-379h-91z" />
    <glyph glyph-name="periodcentered" unicode="&#xb7;" horiz-adv-x="248" 
d="M125 204c-20.667 0 -38.333 7.33301 -53 22s-22 32.334 -22 53.001c0 21.333 7.5 39.166 22.5 53.499s32.5 21.5 52.5 21.5s37.333 -7.16699 52 -21.5s22 -32.166 22 -53.499c0 -20.667 -7 -38.334 -21 -53.001s-31.667 -22 -53 -22z" />
    <glyph glyph-name="cedilla" unicode="&#xb8;" horiz-adv-x="442" 
d="M216 42c9.33301 0 18.333 -0.167969 27 -0.500977s17.667 -0.833008 27 -1.5l-26 -78c18.667 -1.33301 34.334 -4.83301 47.001 -10.5s22.834 -12.667 30.501 -21s13.167 -17.166 16.5 -26.499s5 -18.333 5 -27c0 -10 -2.16699 -20 -6.5 -30s-10.833 -19.333 -19.5 -28
s-19.834 -15.667 -33.501 -21s-29.834 -8 -48.501 -8c-15.333 0 -32 1.5 -50 4.5s-35 8.16699 -51 15.5c3.33301 8 6.5 16 9.5 24l9.5 25c15.333 -6 29.166 -9.83301 41.499 -11.5s23.5 -2.5 33.5 -2.5c13.333 0 24.333 3 33 9s13 14.333 13 25
c0 8.66699 -3.33301 16.667 -10 24s-17.667 11 -33 11c-2.66699 0 -5.16699 -0.166992 -7.5 -0.5s-5.16602 -0.833008 -8.49902 -1.5l-34 18l35 112v0z" />
    <glyph glyph-name="onesuperior" unicode="&#xb9;" horiz-adv-x="309" 
d="M135 364v313l-46 -35l-46 57l100 79h74v-414h-82z" />
    <glyph glyph-name="ordmasculine" unicode="&#xba;" horiz-adv-x="353" 
d="M325 400c0 -20 -3.83105 -38 -11.498 -54s-18.334 -29.5 -32.001 -40.5s-29.5 -19.5 -47.5 -25.5s-37.333 -9 -58 -9c-21.333 0 -41 3 -59 9s-33.667 14.5 -47 25.5s-23.833 24.5 -31.5 40.5s-11.5 34 -11.5 54v77c0 20 4 38 12 54s18.667 29.667 32 41
s29.166 20 47.499 26s37.5 9 57.5 9c44 0 79.833 -11.667 107.5 -35s41.5 -55 41.5 -95v-77zM241.002 469c0 21.333 -7 37.166 -21 47.499s-28.667 15.5 -44 15.5s-30 -5.16699 -44 -15.5s-21 -26.166 -21 -47.499v-59c0 -22 6.5 -38 19.5 -48s28.167 -15 45.5 -15
c15.333 0 30 5 44 15s21 26 21 48v59z" />
    <glyph glyph-name="guillemotright" unicode="&#xbb;" horiz-adv-x="503" 
d="M45 34l130 195l-130 196h99l133 -196l-133 -195h-99zM236 34l130 195l-130 196h98l134 -196l-134 -195h-98z" />
    <glyph glyph-name="onequarter" unicode="&#xbc;" horiz-adv-x="826" 
d="M168 275v313l-46 -35l-46 57l100 79h74v-414h-82zM227 -17h-78l425 730h79zM709 59v-59h-79v59h-189v61l147 293h87l-141 -284h96v113h79v-113h41v-70h-41z" />
    <glyph glyph-name="onehalf" unicode="&#xbd;" horiz-adv-x="826" 
d="M763 303c0 -14.667 -3.33398 -28.665 -10.001 -41.998s-15.167 -25.666 -25.5 -36.999s-21.666 -22 -33.999 -32s-24.5 -19 -36.5 -27l-28 -18c-10.667 -6.66699 -20.667 -14 -30 -22s-17.333 -16.5 -24 -25.5s-10 -18.5 -10 -28.5h198v-71h-284v60
c0 19.333 3.33301 36.5 10 51.5s15.5 28.667 26.5 41s23.5 23.666 37.5 33.999s28 20.166 42 29.499l27 17.5c10 6.33301 19.167 13.166 27.5 20.499s15.333 15 21 23s8.5 16.333 8.5 25c0 14.667 -7 25.5 -21 32.5s-29 10.5 -45 10.5c-15.333 0 -30.5 -2.83301 -45.5 -8.5
s-29.167 -13.5 -42.5 -23.5l-43 59c17.333 13.333 37.833 24.5 61.5 33.5s48.167 13.5 73.5 13.5c18.667 0 36.834 -2 54.501 -6s33.167 -10.5 46.5 -19.5s24.166 -20.833 32.499 -35.5s12.5 -33 12.5 -55zM196.999 -16.998h-78l425 730h79zM153.999 275.002v313l-46 -35
l-46 57l100 79h74v-414h-82z" />
    <glyph glyph-name="threequarters" unicode="&#xbe;" horiz-adv-x="826" 
d="M184 692c18 0 35.5029 -2.16602 52.5029 -6.49902s32.167 -11 45.5 -20s24 -21 32 -36s12 -32.833 12 -53.5c0 -19.333 -5.16699 -36.833 -15.5 -52.5s-25.833 -26.834 -46.5 -33.501c23.333 -8.66699 39.833 -21.334 49.5 -38.001s14.5 -33.667 14.5 -51
c0 -22 -4.16699 -41.333 -12.5 -58s-19.333 -30.334 -33 -41.001s-29.5 -18.667 -47.5 -24s-36.667 -8 -56 -8c-27.333 0 -52.5 3.83301 -75.5 11.5s-43.167 18.167 -60.5 31.5l42 62c13.333 -10 28.166 -17.667 44.499 -23s31.166 -8 44.499 -8
c20.667 0 37.667 4.5 51 13.5s20 22.167 20 39.5c0 16.667 -5.83301 29.834 -17.5 39.501s-25.5 14.5 -41.5 14.5h-58v69h58c13.333 0 26.333 4.5 39 13.5s19 22.5 19 40.5c0 8 -2 14.833 -6 20.5s-9.33301 10.334 -16 14.001s-13.834 6.33398 -21.501 8.00098
s-15.5 2.5 -23.5 2.5c-14 0 -29.167 -2.33301 -45.5 -7s-31.166 -12.334 -44.499 -23.001l-39 60c17.333 13.333 37.666 23.833 60.999 31.5s48.333 11.5 75 11.5zM265.003 -16.999h-78l425 730h79zM741.003 59.001v-59h-79v59h-189v61l147 293h87l-141 -284h96v113h79v-113
h41v-70h-41z" />
    <glyph glyph-name="questiondown" unicode="&#xbf;" horiz-adv-x="474" 
d="M257 -204c-28.667 0 -55.165 4.49707 -79.498 13.4971s-45.5 21.333 -63.5 37s-32 34.167 -42 55.5s-15 44.666 -15 69.999c0 30 7.16699 57.333 21.5 82s30 48.334 47 71.001s32.667 44.834 47 66.501s21.5 45.167 21.5 70.5v36h107v-34c0 -20 -2 -37.833 -6 -53.5
s-9.66699 -30.5 -17 -44.5s-15.833 -27.667 -25.5 -41l-30.5 -41c-10.667 -13.333 -20.334 -28.166 -29.001 -44.499s-13 -34.166 -13 -53.499c0 -24 8.33301 -44.333 25 -61s39.667 -25 69 -25c23.333 0 46.166 4 68.499 12s42.5 19.667 60.5 35l26 -43
c8.66699 -14.667 17.667 -29 27 -43c-30 -23.333 -61.5 -40 -94.5 -50s-67.833 -15 -104.5 -15zM314.002 429.997c0 -17.333 -6.16699 -32.833 -18.5 -46.5s-28.5 -20.5 -48.5 -20.5c-21.333 0 -38.5 6.83301 -51.5 20.5s-19.5 29.167 -19.5 46.5
c0 19.333 6.16699 36 18.5 50s29.5 21 51.5 21c20.667 0 37.167 -6.83301 49.5 -20.5s18.5 -30.5 18.5 -50.5z" />
    <glyph glyph-name="Agrave" unicode="&#xc0;" horiz-adv-x="617" 
d="M437 149h-257l-49 -149h-121l241 689h116l241 -689h-124zM213 248h191l-41 129l-53 175h-4l-51 -168zM313 736l-185 99l70 76l158 -124z" />
    <glyph glyph-name="Aacute" unicode="&#xc1;" horiz-adv-x="617" 
d="M437 149h-257l-49 -149h-121l241 689h116l241 -689h-124zM213 248h191l-41 129l-53 175h-4l-51 -168zM249 787l168 130l60 -82l-190 -101z" />
    <glyph glyph-name="Acircumflex" unicode="&#xc2;" horiz-adv-x="617" 
d="M437 149h-257l-49 -149h-121l241 689h116l241 -689h-124zM213 248h191l-41 129l-53 175h-4l-51 -168zM308 819l-146 -84l-36 45l150 125h68l146 -124l-37 -46z" />
    <glyph glyph-name="Atilde" unicode="&#xc3;" horiz-adv-x="617" 
d="M437 149h-257l-49 -149h-121l241 689h116l241 -689h-124zM213 248h191l-41 129l-53 175h-4l-51 -168zM240 876c12.667 0 25.166 -2.5 37.499 -7.5s24.333 -10.5 36 -16.5l33 -16.5c10.333 -5 19.5 -7.5 27.5 -7.5c10.667 0 20.834 3.5 30.501 10.5
s20.167 18.833 31.5 35.5l58 -34c-16 -34 -33.167 -58.5 -51.5 -73.5s-38.5 -22.5 -60.5 -22.5c-12.667 0 -25 2.33301 -37 7s-23.667 9.66699 -35 15l-33 15c-10.667 4.66699 -20.667 7 -30 7c-11.333 0 -21.666 -2.66699 -30.999 -8s-20.666 -16.666 -33.999 -33.999
l-58 34c15.333 31.333 32.666 55.166 51.999 71.499s40.666 24.5 63.999 24.5z" />
    <glyph glyph-name="Adieresis" unicode="&#xc4;" horiz-adv-x="617" 
d="M437 149h-257l-49 -149h-121l241 689h116l241 -689h-124zM213 248h191l-41 129l-53 175h-4l-51 -168zM349 811c0 16 5.66699 29.667 17 41s25 17 41 17c16.667 0 30.5 -5.66699 41.5 -17s16.5 -25 16.5 -41s-5.5 -29.667 -16.5 -41s-24.833 -17 -41.5 -17
c-16 0 -29.667 5.66699 -41 17s-17 25 -17 41zM153 811c0 16 5.66699 29.667 17 41s24.666 17 39.999 17c16.667 0 30.667 -5.66699 42 -17s17 -25 17 -41s-5.66699 -29.667 -17 -41s-25.333 -17 -42 -17c-15.333 0 -28.666 5.66699 -39.999 17s-17 25 -17 41z" />
    <glyph glyph-name="Aring" unicode="&#xc5;" horiz-adv-x="617" 
d="M437 149h-257l-49 -149h-121l241 689h116l241 -689h-124zM213 248h191l-41 129l-53 175h-4l-51 -168zM358 818c0 13.333 -4.83301 24.666 -14.5 33.999s-21.5 14 -35.5 14s-26 -4.66699 -36 -14s-15 -20.666 -15 -33.999c0 -14 5 -25.833 15 -35.5s22 -14.5 36 -14.5
s25.833 4.83301 35.5 14.5s14.5 21.5 14.5 35.5zM197 818c0 14.667 3 28.5 9 41.5s14 24.167 24 33.5s21.667 16.833 35 22.5s27.666 8.5 42.999 8.5s29.666 -2.83301 42.999 -8.5s25 -13.167 35 -22.5s17.833 -20.5 23.5 -33.5s8.5 -26.833 8.5 -41.5
c0 -15.333 -2.83301 -29.5 -8.5 -42.5s-13.5 -24.333 -23.5 -34s-21.667 -17.334 -35 -23.001s-27.666 -8.5 -42.999 -8.5s-29.666 2.83301 -42.999 8.5s-25 13.334 -35 23.001s-18 21 -24 34s-9 27.167 -9 42.5z" />
    <glyph glyph-name="AE" unicode="&#xc6;" horiz-adv-x="991" 
d="M491 0v183c-42 0 -83.667 0.166992 -125 0.5s-83 0.5 -125 0.5l-114 -184h-126l217 344.5l217 344.5h523v-104h-353v-189h302v-102h-302v-192h353v-102h-467zM490 586l-97 -153.5l-96 -153.5c32 0 64.167 -0.166992 96.5 -0.5s64.833 -0.5 97.5 -0.5v308h-1z" />
    <glyph glyph-name="Ccedilla" unicode="&#xc7;" horiz-adv-x="544" 
d="M457 542c-19.333 16.667 -42.0039 28.9971 -68.0039 36.9971s-51.333 12 -76 12c-17.333 0 -34.5 -2.66699 -51.5 -8s-32.167 -13.666 -45.5 -24.999s-24.166 -26 -32.499 -44s-12.5 -39.667 -12.5 -65v-209c0 -25.333 4.16699 -47 12.5 -65s19.333 -32.667 33 -44
s28.834 -19.666 45.501 -24.999s33.334 -8 50.001 -8c24.667 0 49.667 3.5 75 10.5s49.333 19.5 72 37.5l54 -88c-22.667 -18.667 -50.834 -33.834 -84.501 -45.501s-69.5 -18.167 -107.5 -19.5c-2 -5.33301 -3.83301 -10.5 -5.5 -15.5s-3.16699 -10.167 -4.5 -15.5
c18.667 -1.33301 34.334 -4.83301 47.001 -10.5s22.834 -12.667 30.501 -21s13.167 -17.166 16.5 -26.499s5 -18.333 5 -27c0 -10 -2.16699 -20 -6.5 -30s-10.833 -19.333 -19.5 -28s-19.834 -15.667 -33.501 -21s-29.834 -8 -48.501 -8c-15.333 0 -32 1.5 -50 4.5
s-35 8.16699 -51 15.5c3.33301 8 6.5 16 9.5 24l9.5 25c15.333 -6 29.166 -9.83301 41.499 -11.5s23.5 -2.5 33.5 -2.5c13.333 0 24.333 3 33 9s13 14.333 13 25c0 8.66699 -3.33301 16.667 -10 24s-17.667 11 -33 11c-2.66699 0 -5.16699 -0.166992 -7.5 -0.5
s-5.16602 -0.833008 -8.49902 -1.5l-34 18l20 66c-28.667 4 -55.834 11.667 -81.501 23s-48.167 26.333 -67.5 45s-34.666 40.834 -45.999 66.501s-17 54.5 -17 86.5v255c0 36 7.16699 67.833 21.5 95.5s33.333 51 57 70s50.834 33.5 81.501 43.5s62.334 15 95.001 15
c38 0 74.5 -5.33301 109.5 -16s65.833 -27 92.5 -49z" />
    <glyph glyph-name="Egrave" unicode="&#xc8;" horiz-adv-x="567" 
d="M61 689h467v-103h-353v-189h302v-103h-302v-192h353v-102h-467v689zM320 736l-185 99l70 76l158 -124z" />
    <glyph glyph-name="Eacute" unicode="&#xc9;" horiz-adv-x="567" 
d="M61 689h467v-103h-353v-189h302v-103h-302v-192h353v-102h-467v689zM227 787l168 130l60 -82l-190 -101z" />
    <glyph glyph-name="Ecircumflex" unicode="&#xca;" horiz-adv-x="567" 
d="M61 689h467v-103h-353v-189h302v-103h-302v-192h353v-102h-467v689zM300 819l-146 -84l-36 45l150 125h68l146 -124l-37 -46z" />
    <glyph glyph-name="Edieresis" unicode="&#xcb;" horiz-adv-x="567" 
d="M61 689h467v-103h-353v-189h302v-103h-302v-192h353v-102h-467v689zM334 810c0 16 5.66699 29.667 17 41s25.333 17 42 17c16 0 29.667 -5.66699 41 -17s17 -25 17 -41s-5.66699 -29.833 -17 -41.5s-25 -17.5 -41 -17.5c-16.667 0 -30.667 5.83301 -42 17.5
s-17 25.5 -17 41.5zM138 810c0 16 5.66699 29.667 17 41s25 17 41 17s29.667 -5.66699 41 -17s17 -25 17 -41s-5.66699 -29.833 -17 -41.5s-25 -17.5 -41 -17.5s-29.667 5.83301 -41 17.5s-17 25.5 -17 41.5z" />
    <glyph glyph-name="Igrave" unicode="&#xcc;" horiz-adv-x="274" 
d="M194 689v-689h-114v689h114zM140 736l-185 99l70 76l158 -124z" />
    <glyph glyph-name="Iacute" unicode="&#xcd;" horiz-adv-x="274" 
d="M194 689v-689h-114v689h114zM92 787l168 130l60 -82l-190 -101z" />
    <glyph glyph-name="Icircumflex" unicode="&#xce;" horiz-adv-x="274" 
d="M194 689v-689h-114v689h114zM135 819l-146 -84l-36 45l150 125h68l146 -124l-37 -46z" />
    <glyph glyph-name="Idieresis" unicode="&#xcf;" horiz-adv-x="274" 
d="M194 689v-689h-114v689h114zM179 811c0 16 5.66699 29.667 17 41s25 17 41 17c16.667 0 30.5 -5.66699 41.5 -17s16.5 -25 16.5 -41s-5.5 -29.667 -16.5 -41s-24.833 -17 -41.5 -17c-16 0 -29.667 5.66699 -41 17s-17 25 -17 41zM-17 811c0 16 5.66699 29.667 17 41
s24.666 17 39.999 17c16.667 0 30.667 -5.66699 42 -17s17 -25 17 -41s-5.66699 -29.667 -17 -41s-25.333 -17 -42 -17c-15.333 0 -28.666 5.66699 -39.999 17s-17 25 -17 41z" />
    <glyph glyph-name="Eth" unicode="&#xd0;" horiz-adv-x="611" 
d="M6 390l53 -0.00195312v299h260c32 0 62.5 -4.83301 91.5 -14.5s54.5 -24 76.5 -43s39.5 -42.333 52.5 -70s19.5 -59.5 19.5 -95.5v-243c0 -35.333 -6.5 -66.666 -19.5 -93.999s-30.667 -50.666 -53 -69.999s-48 -34 -77 -44s-59.5 -15 -91.5 -15h-259v309h-53v81z
M443 444.998c0 26 -4.16699 48 -12.5 66s-19.5 32.5 -33.5 43.5s-29.667 19 -47 24s-35 7.5 -53 7.5h-124v-196h115v-81h-115v-208h124c16.667 0 33.667 2.5 51 7.5s33 13 47 24s25.5 25.5 34.5 43.5s13.5 40 13.5 66v203z" />
    <glyph glyph-name="Ntilde" unicode="&#xd1;" horiz-adv-x="660" 
d="M173 473v-473h-114v689h106l205 -305l111 -171h6v476h114v-689h-107l-208 310l-106 163h-7zM262 876c12.667 0 25.166 -2.5 37.499 -7.5s24.333 -10.5 36 -16.5l33 -16.5c10.333 -5 19.5 -7.5 27.5 -7.5c10.667 0 20.834 3.5 30.501 10.5s20.167 18.833 31.5 35.5l58 -34
c-16 -34 -33.167 -58.5 -51.5 -73.5s-38.5 -22.5 -60.5 -22.5c-12.667 0 -25 2.33301 -37 7s-23.667 9.66699 -35 15l-33 15c-10.667 4.66699 -20.667 7 -30 7c-11.333 0 -21.666 -2.66699 -30.999 -8s-20.666 -16.666 -33.999 -33.999l-58 34
c15.333 31.333 32.666 55.166 51.999 71.499s40.666 24.5 63.999 24.5z" />
    <glyph glyph-name="Ograve" unicode="&#xd2;" horiz-adv-x="625" 
d="M572 223c0 -36 -6.66602 -68.332 -19.999 -96.999s-31.833 -52.834 -55.5 -72.501s-51.334 -34.667 -83.001 -45s-65.5 -15.5 -101.5 -15.5c-36.667 0 -70.834 5.16699 -102.501 15.5s-59 25.333 -82 45s-41.167 43.834 -54.5 72.501s-20 61 -20 97v245
c0 36 6.83301 68 20.5 96s32.167 51.833 55.5 71.5s50.666 34.667 81.999 45s65 15.5 101 15.5c35.333 0 68.833 -5.33301 100.5 -16s59.334 -25.834 83.001 -45.501s42.334 -43.667 56.001 -72s20.5 -60.5 20.5 -96.5v-243zM457.001 449.001c0 24.667 -4 46 -12 64
s-18.667 32.833 -32 44.5s-28.833 20.167 -46.5 25.5s-35.834 8 -54.501 8c-19.333 0 -37.666 -2.66699 -54.999 -8s-32.5 -13.833 -45.5 -25.5s-23.5 -26.5 -31.5 -44.5s-12 -39.333 -12 -64v-209c0 -25.333 4 -47 12 -65s18.667 -32.667 32 -44
s28.666 -19.666 45.999 -24.999s35.333 -8 54 -8s36.834 2.66699 54.501 8s33.167 13.666 46.5 24.999s24 26 32 44s12 39.667 12 65v209zM342.001 736.001l-185 99l70 76l158 -124z" />
    <glyph glyph-name="Oacute" unicode="&#xd3;" horiz-adv-x="625" 
d="M572 223c0 -36 -6.66602 -68.332 -19.999 -96.999s-31.833 -52.834 -55.5 -72.501s-51.334 -34.667 -83.001 -45s-65.5 -15.5 -101.5 -15.5c-36.667 0 -70.834 5.16699 -102.501 15.5s-59 25.333 -82 45s-41.167 43.834 -54.5 72.501s-20 61 -20 97v245
c0 36 6.83301 68 20.5 96s32.167 51.833 55.5 71.5s50.666 34.667 81.999 45s65 15.5 101 15.5c35.333 0 68.833 -5.33301 100.5 -16s59.334 -25.834 83.001 -45.501s42.334 -43.667 56.001 -72s20.5 -60.5 20.5 -96.5v-243zM457.001 449.001c0 24.667 -4 46 -12 64
s-18.667 32.833 -32 44.5s-28.833 20.167 -46.5 25.5s-35.834 8 -54.501 8c-19.333 0 -37.666 -2.66699 -54.999 -8s-32.5 -13.833 -45.5 -25.5s-23.5 -26.5 -31.5 -44.5s-12 -39.333 -12 -64v-209c0 -25.333 4 -47 12 -65s18.667 -32.667 32 -44
s28.666 -19.666 45.999 -24.999s35.333 -8 54 -8s36.834 2.66699 54.501 8s33.167 13.666 46.5 24.999s24 26 32 44s12 39.667 12 65v209zM245.001 787.001l168 130l60 -82l-190 -101z" />
    <glyph glyph-name="Ocircumflex" unicode="&#xd4;" horiz-adv-x="625" 
d="M572 223c0 -36 -6.66602 -68.332 -19.999 -96.999s-31.833 -52.834 -55.5 -72.501s-51.334 -34.667 -83.001 -45s-65.5 -15.5 -101.5 -15.5c-36.667 0 -70.834 5.16699 -102.501 15.5s-59 25.333 -82 45s-41.167 43.834 -54.5 72.501s-20 61 -20 97v245
c0 36 6.83301 68 20.5 96s32.167 51.833 55.5 71.5s50.666 34.667 81.999 45s65 15.5 101 15.5c35.333 0 68.833 -5.33301 100.5 -16s59.334 -25.834 83.001 -45.501s42.334 -43.667 56.001 -72s20.5 -60.5 20.5 -96.5v-243zM457.001 449.001c0 24.667 -4 46 -12 64
s-18.667 32.833 -32 44.5s-28.833 20.167 -46.5 25.5s-35.834 8 -54.501 8c-19.333 0 -37.666 -2.66699 -54.999 -8s-32.5 -13.833 -45.5 -25.5s-23.5 -26.5 -31.5 -44.5s-12 -39.333 -12 -64v-209c0 -25.333 4 -47 12 -65s18.667 -32.667 32 -44
s28.666 -19.666 45.999 -24.999s35.333 -8 54 -8s36.834 2.66699 54.501 8s33.167 13.666 46.5 24.999s24 26 32 44s12 39.667 12 65v209zM314.001 819.001l-146 -84l-36 45l150 125h68l146 -124l-37 -46z" />
    <glyph glyph-name="Otilde" unicode="&#xd5;" horiz-adv-x="625" 
d="M572 223c0 -36 -6.66602 -68.332 -19.999 -96.999s-31.833 -52.834 -55.5 -72.501s-51.334 -34.667 -83.001 -45s-65.5 -15.5 -101.5 -15.5c-36.667 0 -70.834 5.16699 -102.501 15.5s-59 25.333 -82 45s-41.167 43.834 -54.5 72.501s-20 61 -20 97v245
c0 36 6.83301 68 20.5 96s32.167 51.833 55.5 71.5s50.666 34.667 81.999 45s65 15.5 101 15.5c35.333 0 68.833 -5.33301 100.5 -16s59.334 -25.834 83.001 -45.501s42.334 -43.667 56.001 -72s20.5 -60.5 20.5 -96.5v-243zM457.001 449.001c0 24.667 -4 46 -12 64
s-18.667 32.833 -32 44.5s-28.833 20.167 -46.5 25.5s-35.834 8 -54.501 8c-19.333 0 -37.666 -2.66699 -54.999 -8s-32.5 -13.833 -45.5 -25.5s-23.5 -26.5 -31.5 -44.5s-12 -39.333 -12 -64v-209c0 -25.333 4 -47 12 -65s18.667 -32.667 32 -44
s28.666 -19.666 45.999 -24.999s35.333 -8 54 -8s36.834 2.66699 54.501 8s33.167 13.666 46.5 24.999s24 26 32 44s12 39.667 12 65v209zM246.001 876.001c12.667 0 25.166 -2.5 37.499 -7.5s24.333 -10.5 36 -16.5l33 -16.5c10.333 -5 19.5 -7.5 27.5 -7.5
c10.667 0 20.834 3.5 30.501 10.5s20.167 18.833 31.5 35.5l58 -34c-16 -34 -33.167 -58.5 -51.5 -73.5s-38.5 -22.5 -60.5 -22.5c-12.667 0 -25 2.33301 -37 7s-23.667 9.66699 -35 15l-33 15c-10.667 4.66699 -20.667 7 -30 7c-11.333 0 -21.666 -2.66699 -30.999 -8
s-20.666 -16.666 -33.999 -33.999l-58 34c15.333 31.333 32.666 55.166 51.999 71.499s40.666 24.5 63.999 24.5z" />
    <glyph glyph-name="Odieresis" unicode="&#xd6;" horiz-adv-x="625" 
d="M572 223c0 -36 -6.66602 -68.332 -19.999 -96.999s-31.833 -52.834 -55.5 -72.501s-51.334 -34.667 -83.001 -45s-65.5 -15.5 -101.5 -15.5c-36.667 0 -70.834 5.16699 -102.501 15.5s-59 25.333 -82 45s-41.167 43.834 -54.5 72.501s-20 61 -20 97v245
c0 36 6.83301 68 20.5 96s32.167 51.833 55.5 71.5s50.666 34.667 81.999 45s65 15.5 101 15.5c35.333 0 68.833 -5.33301 100.5 -16s59.334 -25.834 83.001 -45.501s42.334 -43.667 56.001 -72s20.5 -60.5 20.5 -96.5v-243zM457.001 449.001c0 24.667 -4 46 -12 64
s-18.667 32.833 -32 44.5s-28.833 20.167 -46.5 25.5s-35.834 8 -54.501 8c-19.333 0 -37.666 -2.66699 -54.999 -8s-32.5 -13.833 -45.5 -25.5s-23.5 -26.5 -31.5 -44.5s-12 -39.333 -12 -64v-209c0 -25.333 4 -47 12 -65s18.667 -32.667 32 -44
s28.666 -19.666 45.999 -24.999s35.333 -8 54 -8s36.834 2.66699 54.501 8s33.167 13.666 46.5 24.999s24 26 32 44s12 39.667 12 65v209zM355.001 811.001c0 16 5.66699 29.667 17 41s25 17 41 17c16.667 0 30.5 -5.66699 41.5 -17s16.5 -25 16.5 -41
s-5.5 -29.667 -16.5 -41s-24.833 -17 -41.5 -17c-16 0 -29.667 5.66699 -41 17s-17 25 -17 41zM159.001 811.001c0 16 5.66699 29.667 17 41s24.666 17 39.999 17c16.667 0 30.667 -5.66699 42 -17s17 -25 17 -41s-5.66699 -29.667 -17 -41s-25.333 -17 -42 -17
c-15.333 0 -28.666 5.66699 -39.999 17s-17 25 -17 41z" />
    <glyph glyph-name="multiply" unicode="&#xd7;" horiz-adv-x="517" 
d="M258 224l-161 -162l-59 59l161 162l-164 164l58 57l164 -164l159 160l59 -59l-160 -160l165 -165l-57 -57z" />
    <glyph glyph-name="Oslash" unicode="&#xd8;" horiz-adv-x="625" 
d="M52 24l44.002 62.001c-28.667 36.667 -43 82.334 -43 137.001v245c0 36 6.83301 68 20.5 96s32.167 51.833 55.5 71.5s50.666 34.667 81.999 45s65 15.5 101 15.5c34 0 65.833 -4.83301 95.5 -14.5s56.167 -23.167 79.5 -40.5l40 56l46 -31l-46 -65
c14 -18 25 -38.333 33 -61s12 -47.334 12 -74.001v-243c0 -36 -6.66699 -68.333 -20 -97s-31.833 -52.834 -55.5 -72.501s-51.334 -34.667 -83.001 -45s-65.5 -15.5 -101.5 -15.5c-70.667 0 -129.667 18 -177 54l-38 -54zM457.002 449.001
c0 16.667 -2.00098 31.668 -6.00098 45.001l-250 -353c13.333 -15.333 29.833 -26.333 49.5 -33s40.167 -10 61.5 -10c18.667 0 36.834 2.66699 54.501 8s33.167 13.666 46.5 24.999s24 26 32 44s12 39.667 12 65v209zM168.001 240.002
c0 -8.66699 0.330078 -16.5 0.99707 -23.5s2 -14.167 4 -21.5l249 353c-13.333 15.333 -29.666 26.333 -48.999 33s-39.666 10 -60.999 10c-19.333 0 -37.666 -2.66699 -54.999 -8s-32.5 -13.833 -45.5 -25.5s-23.5 -26.5 -31.5 -44.5s-12 -39.333 -12 -64v-209z" />
    <glyph glyph-name="Ugrave" unicode="&#xd9;" horiz-adv-x="627" 
d="M574 218c0 -36 -7.16602 -68 -21.499 -96s-33.5 -51.5 -57.5 -70.5s-51.667 -33.5 -83 -43.5s-64 -15 -98 -15c-34.667 0 -67.667 4.83301 -99 14.5s-58.833 24 -82.5 43s-42.5 42.5 -56.5 70.5s-21 60 -21 96v472h114v-451c0 -25.333 4 -46.833 12 -64.5
s18.833 -32.167 32.5 -43.5s29.167 -19.666 46.5 -24.999s35.333 -8 54 -8c18 0 35.833 2.66699 53.5 8s33.167 13.666 46.5 24.999s24.166 25.833 32.499 43.5s12.5 39.167 12.5 64.5v451h115v-471zM339.001 736l-185 99l70 76l158 -124z" />
    <glyph glyph-name="Uacute" unicode="&#xda;" horiz-adv-x="627" 
d="M574 218c0 -36 -7.16602 -68 -21.499 -96s-33.5 -51.5 -57.5 -70.5s-51.667 -33.5 -83 -43.5s-64 -15 -98 -15c-34.667 0 -67.667 4.83301 -99 14.5s-58.833 24 -82.5 43s-42.5 42.5 -56.5 70.5s-21 60 -21 96v472h114v-451c0 -25.333 4 -46.833 12 -64.5
s18.833 -32.167 32.5 -43.5s29.167 -19.666 46.5 -24.999s35.333 -8 54 -8c18 0 35.833 2.66699 53.5 8s33.167 13.666 46.5 24.999s24.166 25.833 32.499 43.5s12.5 39.167 12.5 64.5v451h115v-471zM240.001 787l168 130l60 -82l-190 -101z" />
    <glyph glyph-name="Ucircumflex" unicode="&#xdb;" horiz-adv-x="627" 
d="M574 218c0 -36 -7.16602 -68 -21.499 -96s-33.5 -51.5 -57.5 -70.5s-51.667 -33.5 -83 -43.5s-64 -15 -98 -15c-34.667 0 -67.667 4.83301 -99 14.5s-58.833 24 -82.5 43s-42.5 42.5 -56.5 70.5s-21 60 -21 96v472h114v-451c0 -25.333 4 -46.833 12 -64.5
s18.833 -32.167 32.5 -43.5s29.167 -19.666 46.5 -24.999s35.333 -8 54 -8c18 0 35.833 2.66699 53.5 8s33.167 13.666 46.5 24.999s24.166 25.833 32.499 43.5s12.5 39.167 12.5 64.5v451h115v-471zM312.001 819l-146 -84l-36 45l150 125h68l146 -124l-37 -46z" />
    <glyph glyph-name="Udieresis" unicode="&#xdc;" horiz-adv-x="627" 
d="M574 218c0 -36 -7.16602 -68 -21.499 -96s-33.5 -51.5 -57.5 -70.5s-51.667 -33.5 -83 -43.5s-64 -15 -98 -15c-34.667 0 -67.667 4.83301 -99 14.5s-58.833 24 -82.5 43s-42.5 42.5 -56.5 70.5s-21 60 -21 96v472h114v-451c0 -25.333 4 -46.833 12 -64.5
s18.833 -32.167 32.5 -43.5s29.167 -19.666 46.5 -24.999s35.333 -8 54 -8c18 0 35.833 2.66699 53.5 8s33.167 13.666 46.5 24.999s24.166 25.833 32.499 43.5s12.5 39.167 12.5 64.5v451h115v-471zM357.001 811c0 16 5.66699 29.667 17 41s25 17 41 17
c16.667 0 30.5 -5.66699 41.5 -17s16.5 -25 16.5 -41s-5.5 -29.667 -16.5 -41s-24.833 -17 -41.5 -17c-16 0 -29.667 5.66699 -41 17s-17 25 -17 41zM161.001 811c0 16 5.66699 29.667 17 41s24.666 17 39.999 17c16.667 0 30.667 -5.66699 42 -17s17 -25 17 -41
s-5.66699 -29.667 -17 -41s-25.333 -17 -42 -17c-15.333 0 -28.666 5.66699 -39.999 17s-17 25 -17 41z" />
    <glyph glyph-name="Yacute" unicode="&#xdd;" horiz-adv-x="556" 
d="M282 382l66 150l74 157h122l-208 -422v-267h-115v267l-210 422h124l75 -161l65 -146h7zM202 787l168 130l60 -82l-190 -101z" />
    <glyph glyph-name="Thorn" unicode="&#xde;" horiz-adv-x="565" 
d="M170 248h158c33.333 0 59.833 9.66699 79.5 29s29.5 45 29.5 77s-9.83301 58 -29.5 78s-46.167 30 -79.5 30h-158v-214zM170 689l-0.000976562 -124h183c33.333 0 62.333 -6.33301 87 -19s45 -29.167 61 -49.5s28 -43 36 -68s12 -49.833 12 -74.5s-4.5 -49.5 -13.5 -74.5
s-22 -47.5 -39 -67.5s-37.667 -36.333 -62 -49s-52.166 -19 -83.499 -19h-181v-144h-114v689h114z" />
    <glyph glyph-name="germandbls" unicode="&#xdf;" horiz-adv-x="514" 
d="M156 0h-106.003v511c0 30.667 4.83301 58.5 14.5 83.5s23.334 46.333 41.001 64s38.834 31.334 63.501 41.001s52 14.5 82 14.5c36.667 0 67.5 -5.5 92.5 -16.5s45.167 -25 60.5 -42s26.333 -35.833 33 -56.5s10 -40.334 10 -59.001c0 -9.33301 -1.16699 -20 -3.5 -32
s-6 -24 -11 -36s-11.667 -23.333 -20 -34s-18.5 -19.667 -30.5 -27c15.333 -5.33301 28.666 -13.166 39.999 -23.499s20.5 -22.166 27.5 -35.499s12.167 -27.666 15.5 -42.999s5 -30.666 5 -45.999l1 -91c0 -55.333 -15.167 -98.833 -45.5 -130.5s-71.5 -47.5 -123.5 -47.5
c-7.33301 0 -15.666 0.166992 -24.999 0.5s-19 1.16602 -29 2.49902l2 96h33c16 0 29.333 2.5 40 7.5s19 12 25 21s10.167 19.167 12.5 30.5s3.5 23.666 3.5 36.999v75c0 29.333 -9.16699 51.666 -27.5 66.999s-41.5 23 -69.5 23h-9v85h5
c14.667 0 27.334 3.16699 38.001 9.5s19.5 14.333 26.5 24s12.167 19.834 15.5 30.501s5 20.667 5 30c0 11.333 -1.83301 22.666 -5.5 33.999s-9.5 21.333 -17.5 30s-18 15.667 -30 21s-26.333 8 -43 8c-18 0 -33.167 -3 -45.5 -9s-22.333 -13.833 -30 -23.5
s-13.167 -20.334 -16.5 -32.001s-5 -23.167 -5 -34.5z" />
    <glyph glyph-name="agrave" unicode="&#xe0;" horiz-adv-x="510" 
d="M354 45c-35.333 -20 -65.167 -33.1689 -89.5 -39.502s-46.833 -9.5 -67.5 -9.5c-49.333 0 -88 13.333 -116 40s-42 63.334 -42 110.001c0 27.333 6 50.333 18 69s27 33.834 45 45.501s37.5 20.167 58.5 25.5s40.5 8 58.5 8h137v30c0 29.333 -8.33301 50.333 -25 63
s-42.334 19 -77.001 19c-16.667 0 -37.167 -2.5 -61.5 -7.5s-48.833 -17.5 -73.5 -37.5l-49 79c33.333 25.333 66.833 41.833 100.5 49.5s64.834 11.5 93.501 11.5c68 0 118 -15 150 -45s48 -75.667 48 -137v-319h-96l-9 43zM355.999 211.998h-119
c-9.33301 0 -19 -0.666992 -29 -2s-19.167 -4.16602 -27.5 -8.49902s-15.333 -10.5 -21 -18.5s-8.5 -19 -8.5 -33c0 -18.667 6.66699 -33.167 20 -43.5s31 -15.5 53 -15.5c12 0 24 1.5 36 4.5s23.833 6.66699 35.5 11s22.667 9.16602 33 14.499s19.5 10.333 27.5 15v76z
M252.999 545.998l-115 177l98 32l79 -183z" />
    <glyph glyph-name="aacute" unicode="&#xe1;" horiz-adv-x="510" 
d="M354 45c-35.333 -20 -65.167 -33.1689 -89.5 -39.502s-46.833 -9.5 -67.5 -9.5c-49.333 0 -88 13.333 -116 40s-42 63.334 -42 110.001c0 27.333 6 50.333 18 69s27 33.834 45 45.501s37.5 20.167 58.5 25.5s40.5 8 58.5 8h137v30c0 29.333 -8.33301 50.333 -25 63
s-42.334 19 -77.001 19c-16.667 0 -37.167 -2.5 -61.5 -7.5s-48.833 -17.5 -73.5 -37.5l-49 79c33.333 25.333 66.833 41.833 100.5 49.5s64.834 11.5 93.501 11.5c68 0 118 -15 150 -45s48 -75.667 48 -137v-319h-96l-9 43zM355.999 211.998h-119
c-9.33301 0 -19 -0.666992 -29 -2s-19.167 -4.16602 -27.5 -8.49902s-15.333 -10.5 -21 -18.5s-8.5 -19 -8.5 -33c0 -18.667 6.66699 -33.167 20 -43.5s31 -15.5 53 -15.5c12 0 24 1.5 36 4.5s23.833 6.66699 35.5 11s22.667 9.16602 33 14.499s19.5 10.333 27.5 15v76z
M232.999 569.998l76 185l98 -31l-111 -178z" />
    <glyph glyph-name="acircumflex" unicode="&#xe2;" horiz-adv-x="510" 
d="M354 45c-35.333 -20 -65.167 -33.1689 -89.5 -39.502s-46.833 -9.5 -67.5 -9.5c-49.333 0 -88 13.333 -116 40s-42 63.334 -42 110.001c0 27.333 6 50.333 18 69s27 33.834 45 45.501s37.5 20.167 58.5 25.5s40.5 8 58.5 8h137v30c0 29.333 -8.33301 50.333 -25 63
s-42.334 19 -77.001 19c-16.667 0 -37.167 -2.5 -61.5 -7.5s-48.833 -17.5 -73.5 -37.5l-49 79c33.333 25.333 66.833 41.833 100.5 49.5s64.834 11.5 93.501 11.5c68 0 118 -15 150 -45s48 -75.667 48 -137v-319h-96l-9 43zM355.999 211.998h-119
c-9.33301 0 -19 -0.666992 -29 -2s-19.167 -4.16602 -27.5 -8.49902s-15.333 -10.5 -21 -18.5s-8.5 -19 -8.5 -33c0 -18.667 6.66699 -33.167 20 -43.5s31 -15.5 53 -15.5c12 0 24 1.5 36 4.5s23.833 6.66699 35.5 11s22.667 9.16602 33 14.499s19.5 10.333 27.5 15v76z
M260.999 647.998c-4 -2.66699 -12.667 -9.16699 -26 -19.5l-43 -33.5l-43 -33.5c-13.333 -10.333 -22 -16.833 -26 -19.5l-44 41l149 154h70l145 -152l-46 -43z" />
    <glyph glyph-name="atilde" unicode="&#xe3;" horiz-adv-x="510" 
d="M354 45c-35.333 -20 -65.167 -33.1689 -89.5 -39.502s-46.833 -9.5 -67.5 -9.5c-49.333 0 -88 13.333 -116 40s-42 63.334 -42 110.001c0 27.333 6 50.333 18 69s27 33.834 45 45.501s37.5 20.167 58.5 25.5s40.5 8 58.5 8h137v30c0 29.333 -8.33301 50.333 -25 63
s-42.334 19 -77.001 19c-16.667 0 -37.167 -2.5 -61.5 -7.5s-48.833 -17.5 -73.5 -37.5l-49 79c33.333 25.333 66.833 41.833 100.5 49.5s64.834 11.5 93.501 11.5c68 0 118 -15 150 -45s48 -75.667 48 -137v-319h-96l-9 43zM355.999 211.998h-119
c-9.33301 0 -19 -0.666992 -29 -2s-19.167 -4.16602 -27.5 -8.49902s-15.333 -10.5 -21 -18.5s-8.5 -19 -8.5 -33c0 -18.667 6.66699 -33.167 20 -43.5s31 -15.5 53 -15.5c12 0 24 1.5 36 4.5s23.833 6.66699 35.5 11s22.667 9.16602 33 14.499s19.5 10.333 27.5 15v76z
M194.999 705.998c12.667 0 25.166 -2.5 37.499 -7.5s24.333 -10.5 36 -16.5l33 -16.5c10.333 -5 19.5 -7.5 27.5 -7.5c10.667 0 20.834 3.5 30.501 10.5s20.167 18.833 31.5 35.5l58 -34c-16 -34 -33.167 -58.5 -51.5 -73.5s-38.5 -22.5 -60.5 -22.5
c-12.667 0 -25 2.33301 -37 7s-23.667 9.66699 -35 15l-33 15c-10.667 4.66699 -20.667 7 -30 7c-11.333 0 -21.666 -2.66699 -30.999 -8s-20.666 -16.666 -33.999 -33.999l-58 34c15.333 31.333 32.666 55.166 51.999 71.499s40.666 24.5 63.999 24.5z" />
    <glyph glyph-name="adieresis" unicode="&#xe4;" horiz-adv-x="510" 
d="M354 45c-35.333 -20 -65.167 -33.1689 -89.5 -39.502s-46.833 -9.5 -67.5 -9.5c-49.333 0 -88 13.333 -116 40s-42 63.334 -42 110.001c0 27.333 6 50.333 18 69s27 33.834 45 45.501s37.5 20.167 58.5 25.5s40.5 8 58.5 8h137v30c0 29.333 -8.33301 50.333 -25 63
s-42.334 19 -77.001 19c-16.667 0 -37.167 -2.5 -61.5 -7.5s-48.833 -17.5 -73.5 -37.5l-49 79c33.333 25.333 66.833 41.833 100.5 49.5s64.834 11.5 93.501 11.5c68 0 118 -15 150 -45s48 -75.667 48 -137v-319h-96l-9 43zM355.999 211.998h-119
c-9.33301 0 -19 -0.666992 -29 -2s-19.167 -4.16602 -27.5 -8.49902s-15.333 -10.5 -21 -18.5s-8.5 -19 -8.5 -33c0 -18.667 6.66699 -33.167 20 -43.5s31 -15.5 53 -15.5c12 0 24 1.5 36 4.5s23.833 6.66699 35.5 11s22.667 9.16602 33 14.499s19.5 10.333 27.5 15v76z
M310.999 631.998c0 16 5.66699 29.667 17 41s25 17 41 17c16.667 0 30.667 -5.66699 42 -17s17 -25 17 -41s-5.66699 -29.667 -17 -41s-25.333 -17 -42 -17c-16 0 -29.667 5.66699 -41 17s-17 25 -17 41zM114.999 631.998c0 16 5.66699 29.667 17 41s24.666 17 39.999 17
c16.667 0 30.667 -5.66699 42 -17s17 -25 17 -41s-5.66699 -29.667 -17 -41s-25.333 -17 -42 -17c-15.333 0 -28.666 5.66699 -39.999 17s-17 25 -17 41z" />
    <glyph glyph-name="aring" unicode="&#xe5;" horiz-adv-x="510" 
d="M354 45c-35.333 -20 -65.167 -33.1689 -89.5 -39.502s-46.833 -9.5 -67.5 -9.5c-49.333 0 -88 13.333 -116 40s-42 63.334 -42 110.001c0 27.333 6 50.333 18 69s27 33.834 45 45.501s37.5 20.167 58.5 25.5s40.5 8 58.5 8h137v30c0 29.333 -8.33301 50.333 -25 63
s-42.334 19 -77.001 19c-16.667 0 -37.167 -2.5 -61.5 -7.5s-48.833 -17.5 -73.5 -37.5l-49 79c33.333 25.333 66.833 41.833 100.5 49.5s64.834 11.5 93.501 11.5c68 0 118 -15 150 -45s48 -75.667 48 -137v-319h-96l-9 43zM355.999 211.998h-119
c-9.33301 0 -19 -0.666992 -29 -2s-19.167 -4.16602 -27.5 -8.49902s-15.333 -10.5 -21 -18.5s-8.5 -19 -8.5 -33c0 -18.667 6.66699 -33.167 20 -43.5s31 -15.5 53 -15.5c12 0 24 1.5 36 4.5s23.833 6.66699 35.5 11s22.667 9.16602 33 14.499s19.5 10.333 27.5 15v76z
M322.999 643.998c0 13.333 -4.83301 24.666 -14.5 33.999s-21.5 14 -35.5 14s-26 -4.66699 -36 -14s-15 -20.666 -15 -33.999c0 -14 5 -25.833 15 -35.5s22 -14.5 36 -14.5s25.833 4.83301 35.5 14.5s14.5 21.5 14.5 35.5zM161.999 643.998c0 14.667 3 28.5 9 41.5
s14 24.167 24 33.5s21.667 16.833 35 22.5s27.666 8.5 42.999 8.5s29.666 -2.83301 42.999 -8.5s25 -13.167 35 -22.5s17.833 -20.5 23.5 -33.5s8.5 -26.833 8.5 -41.5c0 -15.333 -2.83301 -29.5 -8.5 -42.5s-13.5 -24.333 -23.5 -34s-21.667 -17.334 -35 -23.001
s-27.666 -8.5 -42.999 -8.5s-29.666 2.83301 -42.999 8.5s-25 13.334 -35 23.001s-18 21 -24 34s-9 27.167 -9 42.5z" />
    <glyph glyph-name="ae" unicode="&#xe6;" horiz-adv-x="805" 
d="M462 216l0.00195312 -29c0 -17.333 3 -32 9 -44s14 -21.833 24 -29.5s21.5 -13.334 34.5 -17.001s26.5 -5.5 40.5 -5.5c15.333 0 33.666 2.66699 54.999 8s43 17.666 65 36.999l62 -73c-28 -27.333 -57.5 -45.5 -88.5 -54.5s-62.167 -13.5 -93.5 -13.5
c-36 0 -69.167 5.5 -99.5 16.5s-55.166 28.167 -74.499 51.5l-20 -12.5c-6.66699 -4.33301 -13.334 -8.16602 -20.001 -11.499c-38 -19.333 -69.5 -31.333 -94.5 -36s-46.167 -7 -63.5 -7c-49.333 0 -88.166 13.333 -116.499 40s-42.5 63 -42.5 109c0 27.333 6 50.333 18 69
s27 33.834 45 45.501s37.5 20.167 58.5 25.5s40.5 8 58.5 8h137v30c0 30.667 -9.83301 52 -29.5 64s-45.834 18 -78.501 18c-16.667 0 -36.167 -2.5 -58.5 -7.5s-45.833 -17.5 -70.5 -37.5l-50 79c33.333 25.333 65.666 41.833 96.999 49.5s61.333 11.5 90 11.5
c71.333 0 124.333 -18 159 -54c18 17.333 39.5 30.666 64.5 39.999s52.5 14 82.5 14s57.667 -4.33301 83 -13s47 -21.167 65 -37.5s32.167 -36.166 42.5 -59.499s15.5 -50 15.5 -80v-94h-306zM356.002 216l-117 0.000976562c-9.33301 0 -19.166 -0.833008 -29.499 -2.5
s-19.833 -5 -28.5 -10s-15.834 -11.833 -21.501 -20.5s-8.5 -20 -8.5 -34c0 -18.667 6.66699 -33 20 -43s31 -15 53 -15c12 0 24 1.5 36 4.5s23.833 6.66699 35.5 11s22.667 9.16602 33 14.499s19.5 10.333 27.5 15v80zM661.002 304.001
c0 34.667 -9.66797 59.833 -29.001 75.5s-42.666 23.5 -69.999 23.5c-26 0 -49 -8.16699 -69 -24.5s-30 -40.5 -30 -72.5v-14h198v12z" />
    <glyph glyph-name="ccedilla" unicode="&#xe7;" horiz-adv-x="441" 
d="M422 62c-25.333 -25.333 -51.8301 -42.502 -79.4971 -51.502s-55.834 -14.167 -84.501 -15.5l-10 -33c18.667 -1.33301 34.334 -4.83301 47.001 -10.5s22.834 -12.667 30.501 -21s13.167 -17.166 16.5 -26.499s5 -18.333 5 -27c0 -10 -2.16699 -20 -6.5 -30
s-10.833 -19.333 -19.5 -28s-19.834 -15.667 -33.501 -21s-29.834 -8 -48.501 -8c-15.333 0 -32 1.5 -50 4.5s-35 8.16699 -51 15.5c3.33301 8 6.5 16 9.5 24l9.5 25c15.333 -6 29.166 -9.83301 41.499 -11.5s23.5 -2.5 33.5 -2.5c13.333 0 24.333 3 33 9s13 14.333 13 25
c0 8.66699 -3.33301 16.667 -10 24s-17.667 11 -33 11c-2.66699 0 -5.16699 -0.166992 -7.5 -0.5s-5.16602 -0.833008 -8.49902 -1.5l-34 18l21 68c-46.667 7.33301 -85 26 -115 56s-45 69.333 -45 118v147c0 29.333 5.66699 55.333 17 78s26.333 41.667 45 57s40 27 64 35
s48.667 12 74 12c14.667 0 29.667 -0.833008 45 -2.5s30.5 -4.66699 45.5 -9s29.667 -10.666 44 -18.999s28.166 -19.5 41.499 -33.5l-62 -79c-22.667 20.667 -42.834 33.334 -60.501 38.001s-33.167 7 -46.5 7c-11.333 0 -23 -1.83301 -35 -5.5s-22.833 -9.5 -32.5 -17.5
s-17.667 -18.5 -24 -31.5s-9.5 -28.833 -9.5 -47.5v-106c0 -18.667 2.83301 -34.5 8.5 -47.5s13.167 -23.5 22.5 -31.5s20 -13.833 32 -17.5s24.333 -5.5 37 -5.5c14 0 31 3.16699 51 9.5s38 17.166 54 32.499z" />
    <glyph glyph-name="egrave" unicode="&#xe8;" horiz-adv-x="495" 
d="M152 213l0.00195312 -25c0 -17.333 3 -32.166 9 -44.499s13.833 -22.333 23.5 -30s21 -13.334 34 -17.001s26.5 -5.5 40.5 -5.5c15.333 0 33.833 2.66699 55.5 8s43.167 17.666 64.5 36.999l31.5 -36.5c10.333 -11.667 20.5 -23.834 30.5 -36.501
c-28 -27.333 -57.5 -45.5 -88.5 -54.5s-62.167 -13.5 -93.5 -13.5c-28.667 0 -55.834 3.66699 -81.501 11s-48.334 18.5 -68.001 33.5s-35.167 33.833 -46.5 56.5s-17 49.334 -17 80.001v130c0 30 5.16699 57 15.5 81s24.833 44.333 43.5 61s40.334 29.5 65.001 38.5
s51.667 13.5 81 13.5c30 0 57.667 -4.33301 83 -13s47.166 -21.167 65.499 -37.5s32.5 -36.166 42.5 -59.499s15 -50 15 -80v-97h-305zM350.002 304c0 34.667 -9.66602 59.833 -28.999 75.5s-42.333 23.5 -69 23.5s-49.834 -8.16699 -69.501 -24.5
s-29.5 -40.833 -29.5 -73.5v-16h197v15zM244.003 545.999l-115 177l98 32l79 -183z" />
    <glyph glyph-name="eacute" unicode="&#xe9;" horiz-adv-x="495" 
d="M152 213l0.00195312 -25c0 -17.333 3 -32.166 9 -44.499s13.833 -22.333 23.5 -30s21 -13.334 34 -17.001s26.5 -5.5 40.5 -5.5c15.333 0 33.833 2.66699 55.5 8s43.167 17.666 64.5 36.999l31.5 -36.5c10.333 -11.667 20.5 -23.834 30.5 -36.501
c-28 -27.333 -57.5 -45.5 -88.5 -54.5s-62.167 -13.5 -93.5 -13.5c-28.667 0 -55.834 3.66699 -81.501 11s-48.334 18.5 -68.001 33.5s-35.167 33.833 -46.5 56.5s-17 49.334 -17 80.001v130c0 30 5.16699 57 15.5 81s24.833 44.333 43.5 61s40.334 29.5 65.001 38.5
s51.667 13.5 81 13.5c30 0 57.667 -4.33301 83 -13s47.166 -21.167 65.499 -37.5s32.5 -36.166 42.5 -59.499s15 -50 15 -80v-97h-305zM350.002 304c0 34.667 -9.66602 59.833 -28.999 75.5s-42.333 23.5 -69 23.5s-49.834 -8.16699 -69.501 -24.5
s-29.5 -40.833 -29.5 -73.5v-16h197v15zM203.003 569.999l76 185l98 -31l-111 -178z" />
    <glyph glyph-name="ecircumflex" unicode="&#xea;" horiz-adv-x="495" 
d="M152 213l0.00195312 -25c0 -17.333 3 -32.166 9 -44.499s13.833 -22.333 23.5 -30s21 -13.334 34 -17.001s26.5 -5.5 40.5 -5.5c15.333 0 33.833 2.66699 55.5 8s43.167 17.666 64.5 36.999l31.5 -36.5c10.333 -11.667 20.5 -23.834 30.5 -36.501
c-28 -27.333 -57.5 -45.5 -88.5 -54.5s-62.167 -13.5 -93.5 -13.5c-28.667 0 -55.834 3.66699 -81.501 11s-48.334 18.5 -68.001 33.5s-35.167 33.833 -46.5 56.5s-17 49.334 -17 80.001v130c0 30 5.16699 57 15.5 81s24.833 44.333 43.5 61s40.334 29.5 65.001 38.5
s51.667 13.5 81 13.5c30 0 57.667 -4.33301 83 -13s47.166 -21.167 65.499 -37.5s32.5 -36.166 42.5 -59.499s15 -50 15 -80v-97h-305zM350.002 304c0 34.667 -9.66602 59.833 -28.999 75.5s-42.333 23.5 -69 23.5s-49.834 -8.16699 -69.501 -24.5
s-29.5 -40.833 -29.5 -73.5v-16h197v15zM256.003 647.999c-4 -2.66699 -12.667 -9.16699 -26 -19.5l-43 -33.5l-43 -33.5c-13.333 -10.333 -22 -16.833 -26 -19.5l-44 41l149 154h70l145 -152l-46 -43z" />
    <glyph glyph-name="edieresis" unicode="&#xeb;" horiz-adv-x="495" 
d="M152 213l0.00195312 -25c0 -17.333 3 -32.166 9 -44.499s13.833 -22.333 23.5 -30s21 -13.334 34 -17.001s26.5 -5.5 40.5 -5.5c15.333 0 33.833 2.66699 55.5 8s43.167 17.666 64.5 36.999l31.5 -36.5c10.333 -11.667 20.5 -23.834 30.5 -36.501
c-28 -27.333 -57.5 -45.5 -88.5 -54.5s-62.167 -13.5 -93.5 -13.5c-28.667 0 -55.834 3.66699 -81.501 11s-48.334 18.5 -68.001 33.5s-35.167 33.833 -46.5 56.5s-17 49.334 -17 80.001v130c0 30 5.16699 57 15.5 81s24.833 44.333 43.5 61s40.334 29.5 65.001 38.5
s51.667 13.5 81 13.5c30 0 57.667 -4.33301 83 -13s47.166 -21.167 65.499 -37.5s32.5 -36.166 42.5 -59.499s15 -50 15 -80v-97h-305zM350.002 304c0 34.667 -9.66602 59.833 -28.999 75.5s-42.333 23.5 -69 23.5s-49.834 -8.16699 -69.501 -24.5
s-29.5 -40.833 -29.5 -73.5v-16h197v15zM294.003 631.999c0 16 5.66699 29.667 17 41s25 17 41 17c16.667 0 30.667 -5.66699 42 -17s17 -25 17 -41s-5.66699 -29.667 -17 -41s-25.333 -17 -42 -17c-16 0 -29.667 5.66699 -41 17s-17 25 -17 41zM98.0029 631.999
c0 16 5.66699 29.667 17 41s24.666 17 39.999 17c16.667 0 30.667 -5.66699 42 -17s17 -25 17 -41s-5.66699 -29.667 -17 -41s-25.333 -17 -42 -17c-15.333 0 -28.666 5.66699 -39.999 17s-17 25 -17 41z" />
    <glyph glyph-name="igrave" unicode="&#xec;" horiz-adv-x="249" 
d="M101 546l-116 177l99 32l79 -183zM74 0v495h106v-495h-106z" />
    <glyph glyph-name="iacute" unicode="&#xed;" horiz-adv-x="249" 
d="M85 570l77 185l98 -31l-112 -178zM74 0v495h106v-495h-106z" />
    <glyph glyph-name="icircumflex" unicode="&#xee;" horiz-adv-x="344" 
d="M172 648c-4 -2.66699 -12.667 -9.16699 -26 -19.5l-43 -33.5l-43 -33.5c-13.333 -10.333 -22 -16.833 -26 -19.5l-44 41l149 154h70l145 -152l-46 -43zM120 0v495h106v-495h-106z" />
    <glyph glyph-name="idieresis" unicode="&#xef;" horiz-adv-x="293" 
d="M186 632c0 16 5.66699 29.667 17 41s25.333 17 42 17c16 0 29.667 -5.66699 41 -17s17 -25 17 -41s-5.66699 -29.667 -17 -41s-25 -17 -41 -17c-16.667 0 -30.667 5.66699 -42 17s-17 25 -17 41zM-10 632c0 16 5.66699 29.667 17 41s25 17 41 17s29.667 -5.66699 41 -17
s17 -25 17 -41s-5.66699 -29.667 -17 -41s-25 -17 -41 -17s-29.667 5.66699 -41 17s-17 25 -17 41zM94 0v495h106v-495h-106z" />
    <glyph glyph-name="eth" unicode="&#xf0;" horiz-adv-x="514" 
d="M277 505l-17.9961 22.501l-17 22.5l30.5 22.5l30.5 22.5c-11.333 10.667 -27 20.5 -47 29.5s-46.333 16.167 -79 21.5c3.33301 14 6.5 28.167 9.5 42.5s6.16699 28.5 9.5 42.5c38 -4 73.333 -12.333 106 -25s58.667 -29.667 78 -51
c11.333 9.33301 23.166 18.166 35.499 26.499s24.166 17.166 35.499 26.499l36 -46l-34 -25l-34 -25c12 -18.667 21.333 -37.167 28 -55.5s11.667 -37.833 15 -58.5s5.33301 -43 6 -67s1 -51 1 -81v-107c0 -9.33301 -0.166992 -18.166 -0.5 -26.499
s-0.833008 -16.833 -1.5 -25.5c-2.66699 -58.667 -22.334 -106 -59.001 -142s-89.334 -54 -158.001 -54c-28.667 0 -55.5 3.83301 -80.5 11.5s-46.667 19 -65 34s-32.833 33.833 -43.5 56.5s-16 48.667 -16 78v104c0 29.333 5.5 56 16.5 80s25.667 44.5 44 61.5
s39.833 30.167 64.5 39.5s51 14 79 14c22 0 43.5 -3 64.5 -9s38.833 -15.667 53.5 -29c0.666992 0 1.16699 0.166992 1.5 0.5s0.833008 0.5 1.5 0.5c-1.33301 24 -3.83301 45.833 -7.5 65.5s-10.5 36.5 -20.5 50.5zM361.004 274.001
c0 18.667 -3.00195 34.332 -9.00195 46.999s-14 23 -24 31s-21.167 13.833 -33.5 17.5s-24.5 5.5 -36.5 5.5c-14 0 -27.5 -2.16699 -40.5 -6.5s-24.5 -11 -34.5 -20s-17.833 -20.167 -23.5 -33.5s-8.5 -29.333 -8.5 -48v-72c0 -37.333 10.333 -63.666 31 -78.999
s45.334 -23 74.001 -23c13.333 0 26.333 1.83301 39 5.5s23.834 9.66699 33.501 18s17.5 19 23.5 32s9 28.833 9 47.5v78z" />
    <glyph glyph-name="ntilde" unicode="&#xf1;" horiz-adv-x="513" 
d="M362 0v308.999c0 34 -7.33301 57.5 -22 70.5s-33 19.5 -55 19.5c-18 0 -38.333 -4.33301 -61 -13s-46.667 -21 -72 -37v-349h-106v495h96l10 -49c20 12 38.167 21.667 54.5 29s31 13 44 17s24.667 6.5 35 7.5s19.833 1.5 28.5 1.5c52 0 90.833 -15.667 116.5 -47
s38.5 -74.666 38.5 -129.999v-324h-107zM185 705.999c12.667 0 25.166 -2.5 37.499 -7.5s24.333 -10.5 36 -16.5l33 -16.5c10.333 -5 19.5 -7.5 27.5 -7.5c10.667 0 20.834 3.5 30.501 10.5s20.167 18.833 31.5 35.5l58 -34c-16 -34 -33.167 -58.5 -51.5 -73.5
s-38.5 -22.5 -60.5 -22.5c-12.667 0 -25 2.33301 -37 7s-23.667 9.66699 -35 15l-33 15c-10.667 4.66699 -20.667 7 -30 7c-11.333 0 -21.666 -2.66699 -30.999 -8s-20.666 -16.666 -33.999 -33.999l-58 34c15.333 31.333 32.666 55.166 51.999 71.499
s40.666 24.5 63.999 24.5z" />
    <glyph glyph-name="ograve" unicode="&#xf2;" horiz-adv-x="512" 
d="M466 175c0 -29.333 -5.83203 -55.332 -17.499 -77.999s-27.334 -41.5 -47.001 -56.5s-42.167 -26.333 -67.5 -34s-51.666 -11.5 -78.999 -11.5c-28 0 -54.833 3.83301 -80.5 11.5s-48 19 -67 34s-34.167 33.833 -45.5 56.5s-17 48.667 -17 78v144
c0 29.333 5.83301 55.333 17.5 78s27.167 41.667 46.5 57s41.666 27 66.999 35s52 12 80 12c30 0 57.667 -4 83 -12s47.5 -19.833 66.5 -35.5s33.833 -34.834 44.5 -57.501s16 -48.667 16 -78v-143zM361.001 300.001c0 18.667 -3.16797 34.499 -9.50098 47.499
s-14.5 23.5 -24.5 31.5s-21.333 13.833 -34 17.5s-25 5.5 -37 5.5s-24.333 -1.83301 -37 -5.5s-24 -9.5 -34 -17.5s-18.167 -18.5 -24.5 -31.5s-9.5 -28.833 -9.5 -47.5v-105c0 -37.333 10.333 -63.666 31 -78.999s45.334 -23 74.001 -23c12 0 24.333 1.83301 37 5.5
s24 9.5 34 17.5s18.167 18.5 24.5 31.5s9.5 28.833 9.5 47.5v105zM255 546l-115 177l98 32l79 -183z" />
    <glyph glyph-name="oacute" unicode="&#xf3;" horiz-adv-x="512" 
d="M466 175c0 -29.333 -5.83203 -55.332 -17.499 -77.999s-27.334 -41.5 -47.001 -56.5s-42.167 -26.333 -67.5 -34s-51.666 -11.5 -78.999 -11.5c-28 0 -54.833 3.83301 -80.5 11.5s-48 19 -67 34s-34.167 33.833 -45.5 56.5s-17 48.667 -17 78v144
c0 29.333 5.83301 55.333 17.5 78s27.167 41.667 46.5 57s41.666 27 66.999 35s52 12 80 12c30 0 57.667 -4 83 -12s47.5 -19.833 66.5 -35.5s33.833 -34.834 44.5 -57.501s16 -48.667 16 -78v-143zM361.001 300.001c0 18.667 -3.16797 34.499 -9.50098 47.499
s-14.5 23.5 -24.5 31.5s-21.333 13.833 -34 17.5s-25 5.5 -37 5.5s-24.333 -1.83301 -37 -5.5s-24 -9.5 -34 -17.5s-18.167 -18.5 -24.5 -31.5s-9.5 -28.833 -9.5 -47.5v-105c0 -37.333 10.333 -63.666 31 -78.999s45.334 -23 74.001 -23c12 0 24.333 1.83301 37 5.5
s24 9.5 34 17.5s18.167 18.5 24.5 31.5s9.5 28.833 9.5 47.5v105zM212 570l76 185l98 -31l-111 -178z" />
    <glyph glyph-name="ocircumflex" unicode="&#xf4;" horiz-adv-x="512" 
d="M466 175c0 -29.333 -5.83203 -55.332 -17.499 -77.999s-27.334 -41.5 -47.001 -56.5s-42.167 -26.333 -67.5 -34s-51.666 -11.5 -78.999 -11.5c-28 0 -54.833 3.83301 -80.5 11.5s-48 19 -67 34s-34.167 33.833 -45.5 56.5s-17 48.667 -17 78v144
c0 29.333 5.83301 55.333 17.5 78s27.167 41.667 46.5 57s41.666 27 66.999 35s52 12 80 12c30 0 57.667 -4 83 -12s47.5 -19.833 66.5 -35.5s33.833 -34.834 44.5 -57.501s16 -48.667 16 -78v-143zM361.001 300.001c0 18.667 -3.16797 34.499 -9.50098 47.499
s-14.5 23.5 -24.5 31.5s-21.333 13.833 -34 17.5s-25 5.5 -37 5.5s-24.333 -1.83301 -37 -5.5s-24 -9.5 -34 -17.5s-18.167 -18.5 -24.5 -31.5s-9.5 -28.833 -9.5 -47.5v-105c0 -37.333 10.333 -63.666 31 -78.999s45.334 -23 74.001 -23c12 0 24.333 1.83301 37 5.5
s24 9.5 34 17.5s18.167 18.5 24.5 31.5s9.5 28.833 9.5 47.5v105zM258 648c-4 -2.66699 -12.667 -9.16699 -26 -19.5l-43 -33.5l-43 -33.5c-13.333 -10.333 -22 -16.833 -26 -19.5l-44 41l149 154h70l145 -152l-46 -43z" />
    <glyph glyph-name="otilde" unicode="&#xf5;" horiz-adv-x="512" 
d="M466 175c0 -29.333 -5.83203 -55.332 -17.499 -77.999s-27.334 -41.5 -47.001 -56.5s-42.167 -26.333 -67.5 -34s-51.666 -11.5 -78.999 -11.5c-28 0 -54.833 3.83301 -80.5 11.5s-48 19 -67 34s-34.167 33.833 -45.5 56.5s-17 48.667 -17 78v144
c0 29.333 5.83301 55.333 17.5 78s27.167 41.667 46.5 57s41.666 27 66.999 35s52 12 80 12c30 0 57.667 -4 83 -12s47.5 -19.833 66.5 -35.5s33.833 -34.834 44.5 -57.501s16 -48.667 16 -78v-143zM361.001 300.001c0 18.667 -3.16797 34.499 -9.50098 47.499
s-14.5 23.5 -24.5 31.5s-21.333 13.833 -34 17.5s-25 5.5 -37 5.5s-24.333 -1.83301 -37 -5.5s-24 -9.5 -34 -17.5s-18.167 -18.5 -24.5 -31.5s-9.5 -28.833 -9.5 -47.5v-105c0 -37.333 10.333 -63.666 31 -78.999s45.334 -23 74.001 -23c12 0 24.333 1.83301 37 5.5
s24 9.5 34 17.5s18.167 18.5 24.5 31.5s9.5 28.833 9.5 47.5v105zM196 706c12.667 0 25.166 -2.5 37.499 -7.5s24.333 -10.5 36 -16.5l33 -16.5c10.333 -5 19.5 -7.5 27.5 -7.5c10.667 0 20.834 3.5 30.501 10.5s20.167 18.833 31.5 35.5l58 -34
c-16 -34 -33.167 -58.5 -51.5 -73.5s-38.5 -22.5 -60.5 -22.5c-12.667 0 -25 2.33301 -37 7s-23.667 9.66699 -35 15l-33 15c-10.667 4.66699 -20.667 7 -30 7c-11.333 0 -21.666 -2.66699 -30.999 -8s-20.666 -16.666 -33.999 -33.999l-58 34
c15.333 31.333 32.666 55.166 51.999 71.499s40.666 24.5 63.999 24.5z" />
    <glyph glyph-name="odieresis" unicode="&#xf6;" horiz-adv-x="512" 
d="M466 175c0 -29.333 -5.83203 -55.332 -17.499 -77.999s-27.334 -41.5 -47.001 -56.5s-42.167 -26.333 -67.5 -34s-51.666 -11.5 -78.999 -11.5c-28 0 -54.833 3.83301 -80.5 11.5s-48 19 -67 34s-34.167 33.833 -45.5 56.5s-17 48.667 -17 78v144
c0 29.333 5.83301 55.333 17.5 78s27.167 41.667 46.5 57s41.666 27 66.999 35s52 12 80 12c30 0 57.667 -4 83 -12s47.5 -19.833 66.5 -35.5s33.833 -34.834 44.5 -57.501s16 -48.667 16 -78v-143zM361.001 300.001c0 18.667 -3.16797 34.499 -9.50098 47.499
s-14.5 23.5 -24.5 31.5s-21.333 13.833 -34 17.5s-25 5.5 -37 5.5s-24.333 -1.83301 -37 -5.5s-24 -9.5 -34 -17.5s-18.167 -18.5 -24.5 -31.5s-9.5 -28.833 -9.5 -47.5v-105c0 -37.333 10.333 -63.666 31 -78.999s45.334 -23 74.001 -23c12 0 24.333 1.83301 37 5.5
s24 9.5 34 17.5s18.167 18.5 24.5 31.5s9.5 28.833 9.5 47.5v105zM299 632c0 16 5.66699 29.667 17 41s25 17 41 17c16.667 0 30.667 -5.66699 42 -17s17 -25 17 -41s-5.66699 -29.667 -17 -41s-25.333 -17 -42 -17c-16 0 -29.667 5.66699 -41 17s-17 25 -17 41zM103 632
c0 16 5.66699 29.667 17 41s24.666 17 39.999 17c16.667 0 30.667 -5.66699 42 -17s17 -25 17 -41s-5.66699 -29.667 -17 -41s-25.333 -17 -42 -17c-15.333 0 -28.666 5.66699 -39.999 17s-17 25 -17 41z" />
    <glyph glyph-name="divide" unicode="&#xf7;" horiz-adv-x="517" 
d="M328 484c0 -18 -6.5 -33.5 -19.5 -46.5s-28.833 -19.5 -47.5 -19.5c-19.333 0 -35.5 6.5 -48.5 19.5s-19.5 28.5 -19.5 46.5s6.5 33.333 19.5 46s29.167 19 48.5 19c18.667 0 34.5 -6.33301 47.5 -19s19.5 -28 19.5 -46zM25 255v80h471v-80h-471zM328 104
c0 -18.667 -6.5 -34.167 -19.5 -46.5s-28.833 -18.5 -47.5 -18.5c-19.333 0 -35.5 6.16699 -48.5 18.5s-19.5 27.833 -19.5 46.5c0 18 6.5 33.333 19.5 46s29.167 19 48.5 19c18.667 0 34.5 -6.33301 47.5 -19s19.5 -28 19.5 -46z" />
    <glyph glyph-name="oslash" unicode="&#xf8;" horiz-adv-x="512" 
d="M466 175c0 -29.333 -5.83203 -55.333 -17.499 -78s-27.334 -41.5 -47.001 -56.5s-42.167 -26.333 -67.5 -34s-51.666 -11.5 -78.999 -11.5s-53 3.5 -77 10.5s-45.333 17.167 -64 30.5l-35 -43l-35 29l36 45c-11.333 14 -20 30 -26 48s-9 38 -9 60v144
c0 29.333 5.83301 55.333 17.5 78s27.167 41.667 46.5 57s41.666 27 66.999 35s52 12 80 12c56.667 0 103.667 -13.667 141 -41l33 41l36 -28l-36 -45c24 -30 36 -66.667 36 -110v-143zM361.001 300c0 12.667 -1.66699 24.667 -5 36l-176 -218
c9.33301 -9.33301 20.5 -15.833 33.5 -19.5s27.167 -5.5 42.5 -5.5c12 0 24.333 1.83301 37 5.5s24 9.5 34 17.5s18.167 18.5 24.5 31.5s9.5 28.833 9.5 47.5v105zM330.001 376c-10.667 9.33301 -22.5 16.001 -35.5 20.001s-25.833 6 -38.5 6
c-12 0 -24.333 -1.83301 -37 -5.5s-24 -9.5 -34 -17.5s-18.167 -18.5 -24.5 -31.5s-9.5 -28.833 -9.5 -47.5v-105c0 -14.667 1.33301 -26.334 4 -35.001z" />
    <glyph glyph-name="ugrave" unicode="&#xf9;" horiz-adv-x="516" 
d="M151 495l0.00292969 -310.002c0 -33.333 7.66699 -56.666 23 -69.999s33.666 -20 54.999 -20c36.667 0 80.667 18 132 54v346h107v-495h-97l-10 48c-38.667 -23.333 -69.834 -38.166 -93.501 -44.499s-43.834 -9.5 -60.501 -9.5c-54 0 -94.667 16.5 -122 49.5
s-41 77.167 -41 132.5v319h107zM252.003 545.998l-115 177l98 32l79 -183z" />
    <glyph glyph-name="uacute" unicode="&#xfa;" horiz-adv-x="516" 
d="M151 495l0.00292969 -310.002c0 -33.333 7.66699 -56.666 23 -69.999s33.666 -20 54.999 -20c36.667 0 80.667 18 132 54v346h107v-495h-97l-10 48c-38.667 -23.333 -69.834 -38.166 -93.501 -44.499s-43.834 -9.5 -60.501 -9.5c-54 0 -94.667 16.5 -122 49.5
s-41 77.167 -41 132.5v319h107zM207.003 569.998l76 185l98 -31l-111 -178z" />
    <glyph glyph-name="ucircumflex" unicode="&#xfb;" horiz-adv-x="516" 
d="M151 495l0.00292969 -310.002c0 -33.333 7.66699 -56.666 23 -69.999s33.666 -20 54.999 -20c36.667 0 80.667 18 132 54v346h107v-495h-97l-10 48c-38.667 -23.333 -69.834 -38.166 -93.501 -44.499s-43.834 -9.5 -60.501 -9.5c-54 0 -94.667 16.5 -122 49.5
s-41 77.167 -41 132.5v319h107zM256.003 647.998c-4 -2.66699 -12.667 -9.16699 -26 -19.5l-43 -33.5l-43 -33.5c-13.333 -10.333 -22 -16.833 -26 -19.5l-44 41l149 154h70l145 -152l-46 -43z" />
    <glyph glyph-name="udieresis" unicode="&#xfc;" horiz-adv-x="516" 
d="M151 495l0.00292969 -310.002c0 -33.333 7.66699 -56.666 23 -69.999s33.666 -20 54.999 -20c36.667 0 80.667 18 132 54v346h107v-495h-97l-10 48c-38.667 -23.333 -69.834 -38.166 -93.501 -44.499s-43.834 -9.5 -60.501 -9.5c-54 0 -94.667 16.5 -122 49.5
s-41 77.167 -41 132.5v319h107zM294.003 631.998c0 16 5.66699 29.667 17 41s25 17 41 17c16.667 0 30.667 -5.66699 42 -17s17 -25 17 -41s-5.66699 -29.667 -17 -41s-25.333 -17 -42 -17c-16 0 -29.667 5.66699 -41 17s-17 25 -17 41zM98.0029 631.998
c0 16 5.66699 29.667 17 41s24.666 17 39.999 17c16.667 0 30.667 -5.66699 42 -17s17 -25 17 -41s-5.66699 -29.667 -17 -41s-25.333 -17 -42 -17c-15.333 0 -28.666 5.66699 -39.999 17s-17 25 -17 41z" />
    <glyph glyph-name="yacute" unicode="&#xfd;" horiz-adv-x="472" 
d="M106 -200l75 210l-36 29l-135 457h112l53 -203l49 -181h3l63 182l67 202h112l-253 -696h-110zM186 570l76 185l98 -31l-111 -178z" />
    <glyph glyph-name="thorn" unicode="&#xfe;" horiz-adv-x="509" 
d="M469 172c0 -55.333 -15.168 -98.833 -45.501 -130.5s-73.166 -47.5 -128.499 -47.5c-17.333 0 -38 1.66699 -62 5s-50.333 11.666 -79 24.999v-222h-106v887h106v-243c32 20.667 60.5 34.834 85.5 42.501s46.167 11.5 63.5 11.5c51.333 0 91.833 -14.5 121.5 -43.5
s44.5 -74.167 44.5 -135.5v-149zM361.999 312c0 33.333 -7.16602 56.168 -21.499 68.501s-32.5 18.5 -54.5 18.5c-8.66699 0 -18.5 -1.33301 -29.5 -4s-22.5 -6.33398 -34.5 -11.001s-23.833 -10 -35.5 -16s-22.5 -12.333 -32.5 -19v-226c26.667 -11.333 49.5 -19 68.5 -23
s37.5 -6 55.5 -6c11.333 0 22.166 1.33301 32.499 4s19.333 7.5 27 14.5s13.667 16.167 18 27.5s6.5 25.333 6.5 42v130z" />
    <glyph glyph-name="ydieresis" unicode="&#xff;" horiz-adv-x="472" 
d="M106 -200l75 210l-36 29l-135 457h112l53 -203l49 -181h3l63 182l67 202h112l-253 -696h-110zM277 632c0 16 5.66699 29.667 17 41s25 17 41 17c16.667 0 30.667 -5.66699 42 -17s17 -25 17 -41s-5.66699 -29.667 -17 -41s-25.333 -17 -42 -17
c-16 0 -29.667 5.66699 -41 17s-17 25 -17 41zM81 632c0 16 5.66699 29.667 17 41s24.666 17 39.999 17c16.667 0 30.667 -5.66699 42 -17s17 -25 17 -41s-5.66699 -29.667 -17 -41s-25.333 -17 -42 -17c-15.333 0 -28.666 5.66699 -39.999 17s-17 25 -17 41z" />
    <glyph glyph-name="Amacron" unicode="&#x100;" horiz-adv-x="617" 
d="M437 149h-257l-49 -149h-121l241 689h116l241 -689h-124zM213 248h191l-41 129l-53 175h-4l-51 -168zM163 773v89h289v-89h-289z" />
    <glyph glyph-name="amacron" unicode="&#x101;" horiz-adv-x="510" 
d="M354 45c-35.333 -20 -65.167 -33.1689 -89.5 -39.502s-46.833 -9.5 -67.5 -9.5c-49.333 0 -88 13.333 -116 40s-42 63.334 -42 110.001c0 27.333 6 50.333 18 69s27 33.834 45 45.501s37.5 20.167 58.5 25.5s40.5 8 58.5 8h137v30c0 29.333 -8.33301 50.333 -25 63
s-42.334 19 -77.001 19c-16.667 0 -37.167 -2.5 -61.5 -7.5s-48.833 -17.5 -73.5 -37.5l-49 79c33.333 25.333 66.833 41.833 100.5 49.5s64.834 11.5 93.501 11.5c68 0 118 -15 150 -45s48 -75.667 48 -137v-319h-96l-9 43zM355.999 211.998h-119
c-9.33301 0 -19 -0.666992 -29 -2s-19.167 -4.16602 -27.5 -8.49902s-15.333 -10.5 -21 -18.5s-8.5 -19 -8.5 -33c0 -18.667 6.66699 -33.167 20 -43.5s31 -15.5 53 -15.5c12 0 24 1.5 36 4.5s23.833 6.66699 35.5 11s22.667 9.16602 33 14.499s19.5 10.333 27.5 15v76z
M120.999 592.998v89h290v-89h-290z" />
    <glyph glyph-name="Abreve" unicode="&#x102;" horiz-adv-x="617" 
d="M437 149h-257l-49 -149h-121l241 689h116l241 -689h-124zM213 248h191l-41 129l-53 175h-4l-51 -168zM309 731c-28 0 -51.168 4.66699 -69.501 14s-33.333 21 -45 35s-20 29.167 -25 45.5s-7.83301 31.5 -8.5 45.5h82c0.666992 -6.66699 2.5 -13.834 5.5 -21.501
s7.33301 -14.667 13 -21s12.5 -11.666 20.5 -15.999s17 -6.5 27 -6.5c11.333 0 21.166 2.16699 29.499 6.5s15.333 9.66602 21 15.999s9.83398 13.333 12.501 21s4 14.834 4 21.501h81c-1.33301 -14 -4.66602 -29.167 -9.99902 -45.5s-13.5 -31.5 -24.5 -45.5
s-25.667 -25.667 -44 -35s-41.5 -14 -69.5 -14z" />
    <glyph glyph-name="abreve" unicode="&#x103;" horiz-adv-x="510" 
d="M354 45c-35.333 -20 -65.167 -33.1689 -89.5 -39.502s-46.833 -9.5 -67.5 -9.5c-49.333 0 -88 13.333 -116 40s-42 63.334 -42 110.001c0 27.333 6 50.333 18 69s27 33.834 45 45.501s37.5 20.167 58.5 25.5s40.5 8 58.5 8h137v30c0 29.333 -8.33301 50.333 -25 63
s-42.334 19 -77.001 19c-16.667 0 -37.167 -2.5 -61.5 -7.5s-48.833 -17.5 -73.5 -37.5l-49 79c33.333 25.333 66.833 41.833 100.5 49.5s64.834 11.5 93.501 11.5c68 0 118 -15 150 -45s48 -75.667 48 -137v-319h-96l-9 43zM355.999 211.998h-119
c-9.33301 0 -19 -0.666992 -29 -2s-19.167 -4.16602 -27.5 -8.49902s-15.333 -10.5 -21 -18.5s-8.5 -19 -8.5 -33c0 -18.667 6.66699 -33.167 20 -43.5s31 -15.5 53 -15.5c12 0 24 1.5 36 4.5s23.833 6.66699 35.5 11s22.667 9.16602 33 14.499s19.5 10.333 27.5 15v76z
M273.999 565.998c-28 0 -51.168 4.66699 -69.501 14s-33.333 21 -45 35s-20 29 -25 45s-7.83301 31 -8.5 45h82c0.666992 -6.66699 2.5 -13.667 5.5 -21s7.33301 -14.166 13 -20.499s12.5 -11.666 20.5 -15.999s17 -6.5 27 -6.5c11.333 0 21.166 2.16699 29.499 6.5
s15.333 9.66602 21 15.999s9.83398 13.166 12.501 20.499s4 14.333 4 21h81c-1.33301 -14 -4.66602 -29 -9.99902 -45s-13.5 -31 -24.5 -45s-25.667 -25.667 -44 -35s-41.5 -14 -69.5 -14z" />
    <glyph glyph-name="Aogonek" unicode="&#x104;" horiz-adv-x="617" 
d="M437 149h-256.997l-49 -149h-121l241 689h116l241 -689h-50c-12.667 -17.333 -21.834 -32.333 -27.501 -45s-8.5 -24.667 -8.5 -36c0 -25.333 14 -38 42 -38c7.33301 0 15.666 1.5 24.999 4.5s20.666 7.16699 33.999 12.5l23 -58c-14 -8 -29.5 -14.5 -46.5 -19.5
s-34.167 -7.5 -51.5 -7.5c-30 0 -54.167 8.83301 -72.5 26.5s-27.5 39.167 -27.5 64.5c0 14 2.66699 28.5 8 43.5s15 32.5 29 52.5h-1zM213.003 248h191l-41 129l-53 175h-4l-51 -168z" />
    <glyph glyph-name="aogonek" unicode="&#x105;" horiz-adv-x="510" 
d="M354 45c-35.333 -20 -65.1641 -33.1689 -89.4971 -39.502s-46.833 -9.5 -67.5 -9.5c-49.333 0 -88 13.333 -116 40s-42 63.334 -42 110.001c0 27.333 6 50.333 18 69s27 33.834 45 45.501s37.5 20.167 58.5 25.5s40.5 8 58.5 8h137v30c0 29.333 -8.33301 50.333 -25 63
s-42.334 19 -77.001 19c-16.667 0 -37.167 -2.5 -61.5 -7.5s-48.833 -17.5 -73.5 -37.5l-49 79c33.333 25.333 66.833 41.833 100.5 49.5s64.834 11.5 93.501 11.5c68 0 118 -15 150 -45s48 -75.667 48 -137v-319h-25c-12.667 -17.333 -21.834 -32.333 -27.501 -45
s-8.5 -24.667 -8.5 -36c0 -25.333 14 -38 42 -38c7.33301 0 15.666 1.5 24.999 4.5s20.666 7.16699 33.999 12.5l23 -58c-14 -8 -29.5 -14.5 -46.5 -19.5s-34.167 -7.5 -51.5 -7.5c-30 0 -54.167 8.83301 -72.5 26.5s-27.5 39.167 -27.5 64.5c0 14 2.66699 28.667 8 44
s15.333 33 30 53l-8 42zM356.002 211.998h-119c-9.33301 0 -19 -0.666992 -29 -2s-19.167 -4.16602 -27.5 -8.49902s-15.333 -10.5 -21 -18.5s-8.5 -19 -8.5 -33c0 -18.667 6.66699 -33.167 20 -43.5s31 -15.5 53 -15.5c12 0 24 1.5 36 4.5s23.833 6.66699 35.5 11
s22.667 9.16602 33 14.499s19.5 10.333 27.5 15v76z" />
    <glyph glyph-name="Cacute" unicode="&#x106;" horiz-adv-x="544" 
d="M457 542c-19.333 16.667 -42.0049 28.998 -68.0049 36.998s-51.333 12 -76 12c-17.333 0 -34.5 -2.66699 -51.5 -8s-32.167 -13.666 -45.5 -24.999s-24.166 -26 -32.499 -44s-12.5 -39.667 -12.5 -65v-209c0 -25.333 4.16699 -47 12.5 -65s19.333 -32.667 33 -44
s28.834 -19.666 45.501 -24.999s33.334 -8 50.001 -8c24.667 0 49.667 3.5 75 10.5s49.333 19.5 72 37.5l54 -88c-23.333 -19.333 -52.666 -35 -87.999 -47s-73 -18 -113 -18c-33.333 0 -65.333 4.83301 -96 14.5s-57.834 24 -81.501 43s-42.667 42.5 -57 70.5
s-21.5 60 -21.5 96v255c0 36 7.16699 67.833 21.5 95.5s33.333 51 57 70s50.834 33.5 81.501 43.5s62.334 15 95.001 15c38 0 74.5 -5.33301 109.5 -16s65.833 -27 92.5 -49zM226.995 786.998l168 130l60 -82l-190 -101z" />
    <glyph glyph-name="cacute" unicode="&#x107;" horiz-adv-x="441" 
d="M422 62c-26.667 -27.333 -54.998 -45.334 -84.998 -54.001s-60 -13 -90 -13c-28 0 -54.333 4 -79 12s-46 19.667 -64 35s-32.167 33.833 -42.5 55.5s-15.5 46.5 -15.5 74.5v147c0 29.333 5.66699 55.333 17 78s26.333 41.667 45 57s40 27 64 35s48.667 12 74 12
c14.667 0 29.667 -0.833008 45 -2.5s30.5 -4.66699 45.5 -9s29.667 -10.666 44 -18.999s28.166 -19.5 41.499 -33.5l-62 -79c-22.667 20.667 -42.834 33.334 -60.501 38.001s-33.167 7 -46.5 7c-11.333 0 -23 -1.83301 -35 -5.5s-22.833 -9.5 -32.5 -17.5
s-17.667 -18.5 -24 -31.5s-9.5 -28.833 -9.5 -47.5v-106c0 -18.667 2.83301 -34.5 8.5 -47.5s13.167 -23.5 22.5 -31.5s20 -13.833 32 -17.5s24.333 -5.5 37 -5.5c14 0 31 3.16699 51 9.5s38 17.166 54 32.499zM191.002 569.999l76 185l98 -31l-111 -178z" />
    <glyph glyph-name="Ccircumflex" unicode="&#x108;" horiz-adv-x="544" 
d="M457 542c-19.333 16.667 -42.0049 28.998 -68.0049 36.998s-51.333 12 -76 12c-17.333 0 -34.5 -2.66699 -51.5 -8s-32.167 -13.666 -45.5 -24.999s-24.166 -26 -32.499 -44s-12.5 -39.667 -12.5 -65v-209c0 -25.333 4.16699 -47 12.5 -65s19.333 -32.667 33 -44
s28.834 -19.666 45.501 -24.999s33.334 -8 50.001 -8c24.667 0 49.667 3.5 75 10.5s49.333 19.5 72 37.5l54 -88c-23.333 -19.333 -52.666 -35 -87.999 -47s-73 -18 -113 -18c-33.333 0 -65.333 4.83301 -96 14.5s-57.834 24 -81.501 43s-42.667 42.5 -57 70.5
s-21.5 60 -21.5 96v255c0 36 7.16699 67.833 21.5 95.5s33.333 51 57 70s50.834 33.5 81.501 43.5s62.334 15 95.001 15c38 0 74.5 -5.33301 109.5 -16s65.833 -27 92.5 -49zM308.995 818.998l-146 -84l-36 45l150 125h68l146 -124l-37 -46z" />
    <glyph glyph-name="ccircumflex" unicode="&#x109;" horiz-adv-x="441" 
d="M422 62c-26.667 -27.333 -54.998 -45.334 -84.998 -54.001s-60 -13 -90 -13c-28 0 -54.333 4 -79 12s-46 19.667 -64 35s-32.167 33.833 -42.5 55.5s-15.5 46.5 -15.5 74.5v147c0 29.333 5.66699 55.333 17 78s26.333 41.667 45 57s40 27 64 35s48.667 12 74 12
c14.667 0 29.667 -0.833008 45 -2.5s30.5 -4.66699 45.5 -9s29.667 -10.666 44 -18.999s28.166 -19.5 41.499 -33.5l-62 -79c-22.667 20.667 -42.834 33.334 -60.501 38.001s-33.167 7 -46.5 7c-11.333 0 -23 -1.83301 -35 -5.5s-22.833 -9.5 -32.5 -17.5
s-17.667 -18.5 -24 -31.5s-9.5 -28.833 -9.5 -47.5v-106c0 -18.667 2.83301 -34.5 8.5 -47.5s13.167 -23.5 22.5 -31.5s20 -13.833 32 -17.5s24.333 -5.5 37 -5.5c14 0 31 3.16699 51 9.5s38 17.166 54 32.499zM246.002 647.999c-4 -2.66699 -12.667 -9.16699 -26 -19.5
l-43 -33.5l-43 -33.5c-13.333 -10.333 -22 -16.833 -26 -19.5l-44 41l149 154h70l145 -152l-46 -43z" />
    <glyph glyph-name="Cdotaccent" unicode="&#x10a;" horiz-adv-x="544" 
d="M457 542c-19.333 16.667 -42.0049 28.998 -68.0049 36.998s-51.333 12 -76 12c-17.333 0 -34.5 -2.66699 -51.5 -8s-32.167 -13.666 -45.5 -24.999s-24.166 -26 -32.499 -44s-12.5 -39.667 -12.5 -65v-209c0 -25.333 4.16699 -47 12.5 -65s19.333 -32.667 33 -44
s28.834 -19.666 45.501 -24.999s33.334 -8 50.001 -8c24.667 0 49.667 3.5 75 10.5s49.333 19.5 72 37.5l54 -88c-23.333 -19.333 -52.666 -35 -87.999 -47s-73 -18 -113 -18c-33.333 0 -65.333 4.83301 -96 14.5s-57.834 24 -81.501 43s-42.667 42.5 -57 70.5
s-21.5 60 -21.5 96v255c0 36 7.16699 67.833 21.5 95.5s33.333 51 57 70s50.834 33.5 81.501 43.5s62.334 15 95.001 15c38 0 74.5 -5.33301 109.5 -16s65.833 -27 92.5 -49zM302.995 748.998c-19.333 0 -34.667 6.16699 -46 18.5s-17 27.833 -17 46.5
c0 16 5.66699 30.333 17 43s26.333 19 45 19c19.333 0 35 -6.33301 47 -19s18 -27 18 -43c0 -17.333 -5.66699 -32.5 -17 -45.5s-27 -19.5 -47 -19.5z" />
    <glyph glyph-name="cdotaccent" unicode="&#x10b;" horiz-adv-x="441" 
d="M422 62c-26.667 -27.333 -54.998 -45.334 -84.998 -54.001s-60 -13 -90 -13c-28 0 -54.333 4 -79 12s-46 19.667 -64 35s-32.167 33.833 -42.5 55.5s-15.5 46.5 -15.5 74.5v147c0 29.333 5.66699 55.333 17 78s26.333 41.667 45 57s40 27 64 35s48.667 12 74 12
c14.667 0 29.667 -0.833008 45 -2.5s30.5 -4.66699 45.5 -9s29.667 -10.666 44 -18.999s28.166 -19.5 41.499 -33.5l-62 -79c-22.667 20.667 -42.834 33.334 -60.501 38.001s-33.167 7 -46.5 7c-11.333 0 -23 -1.83301 -35 -5.5s-22.833 -9.5 -32.5 -17.5
s-17.667 -18.5 -24 -31.5s-9.5 -28.833 -9.5 -47.5v-106c0 -18.667 2.83301 -34.5 8.5 -47.5s13.167 -23.5 22.5 -31.5s20 -13.833 32 -17.5s24.333 -5.5 37 -5.5c14 0 31 3.16699 51 9.5s38 17.166 54 32.499zM247.002 575.999c-19.333 0 -34.667 6.16699 -46 18.5
s-17 27.833 -17 46.5c0 16 5.66699 30.333 17 43s26.333 19 45 19c19.333 0 35 -6.33301 47 -19s18 -27 18 -43c0 -17.333 -5.66699 -32.5 -17 -45.5s-27 -19.5 -47 -19.5z" />
    <glyph glyph-name="Ccaron" unicode="&#x10c;" horiz-adv-x="544" 
d="M457 542c-19.333 16.667 -42.0049 28.998 -68.0049 36.998s-51.333 12 -76 12c-17.333 0 -34.5 -2.66699 -51.5 -8s-32.167 -13.666 -45.5 -24.999s-24.166 -26 -32.499 -44s-12.5 -39.667 -12.5 -65v-209c0 -25.333 4.16699 -47 12.5 -65s19.333 -32.667 33 -44
s28.834 -19.666 45.501 -24.999s33.334 -8 50.001 -8c24.667 0 49.667 3.5 75 10.5s49.333 19.5 72 37.5l54 -88c-23.333 -19.333 -52.666 -35 -87.999 -47s-73 -18 -113 -18c-33.333 0 -65.333 4.83301 -96 14.5s-57.834 24 -81.501 43s-42.667 42.5 -57 70.5
s-21.5 60 -21.5 96v255c0 36 7.16699 67.833 21.5 95.5s33.333 51 57 70s50.834 33.5 81.501 43.5s62.334 15 95.001 15c38 0 74.5 -5.33301 109.5 -16s65.833 -27 92.5 -49zM440.995 907.998l37 -46l-145 -124h-68l-150 126l35 44l146 -84z" />
    <glyph glyph-name="ccaron" unicode="&#x10d;" horiz-adv-x="441" 
d="M422 62c-26.667 -27.333 -54.998 -45.334 -84.998 -54.001s-60 -13 -90 -13c-28 0 -54.333 4 -79 12s-46 19.667 -64 35s-32.167 33.833 -42.5 55.5s-15.5 46.5 -15.5 74.5v147c0 29.333 5.66699 55.333 17 78s26.333 41.667 45 57s40 27 64 35s48.667 12 74 12
c14.667 0 29.667 -0.833008 45 -2.5s30.5 -4.66699 45.5 -9s29.667 -10.666 44 -18.999s28.166 -19.5 41.499 -33.5l-62 -79c-22.667 20.667 -42.834 33.334 -60.501 38.001s-33.167 7 -46.5 7c-11.333 0 -23 -1.83301 -35 -5.5s-22.833 -9.5 -32.5 -17.5
s-17.667 -18.5 -24 -31.5s-9.5 -28.833 -9.5 -47.5v-106c0 -18.667 2.83301 -34.5 8.5 -47.5s13.167 -23.5 22.5 -31.5s20 -13.833 32 -17.5s24.333 -5.5 37 -5.5c14 0 31 3.16699 51 9.5s38 17.166 54 32.499zM380.002 736.999l46 -42l-145 -153h-70l-149 154l44 41
c4 -2.66699 12.667 -9 26 -19l43 -33l43 -33.5c13.333 -10.333 22 -16.833 26 -19.5z" />
    <glyph glyph-name="Dcaron" unicode="&#x10e;" horiz-adv-x="611" 
d="M559 223c0 -35.333 -6.5 -66.668 -19.5 -94.001s-30.667 -50.666 -53 -69.999s-48 -34 -77 -44s-59.5 -15 -91.5 -15h-259v689h260c32 0 62.5 -4.83301 91.5 -14.5s54.5 -24 76.5 -43s39.5 -42.333 52.5 -70s19.5 -59.5 19.5 -95.5v-243zM443 444.998
c0 26 -4.16699 48 -12.5 66s-19.5 32.5 -33.5 43.5s-29.667 19 -47 24s-35 7.5 -53 7.5h-124v-485h124c16.667 0 33.667 2.5 51 7.5s33 13 47 24s25.5 25.5 34.5 43.5s13.5 40 13.5 66v203zM421 907.998l37 -46l-145 -124h-68l-150 126l35 44l146 -84z" />
    <glyph glyph-name="dcaron" unicode="&#x10f;" horiz-adv-x="637" 
d="M504 528c16 11.333 28.667 22.335 38 33.002s15 25 17 43c-14.667 1.33301 -26.667 8 -36 20s-14 26.667 -14 44s6.5 32.666 19.5 45.999s29.167 20 48.5 20c26 0 45.167 -9 57.5 -27s18.5 -38.667 18.5 -62c0 -38 -10.833 -71.333 -32.5 -100
s-48.5 -50.334 -80.5 -65.001zM45 323.002c0 55.333 15.834 98.834 47.501 130.501s73.5 47.5 125.5 47.5c17.333 0 38.166 -1.83301 62.499 -5.5s50.5 -11.167 78.5 -22.5v243h106v-716h-96l-10 49c-34 -20.667 -62.833 -34.834 -86.5 -42.501s-44.167 -11.5 -61.5 -11.5
c-51.333 0 -91.833 14.5 -121.5 43.5s-44.5 74.167 -44.5 135.5v149zM151.001 182.003c0 -33.333 7.16504 -56.168 21.498 -68.501s32.5 -18.5 54.5 -18.5c8.66699 0 18.5 1.33301 29.5 4s22.5 6.33398 34.5 11.001s23.833 10 35.5 16s22.5 12.333 32.5 19v227
c-23.333 9.33301 -45.166 16.5 -65.499 21.5s-39.833 7.5 -58.5 7.5c-23.333 0 -43.166 -7 -59.499 -21s-24.5 -37.667 -24.5 -71v-127z" />
    <glyph glyph-name="Dcroat" unicode="&#x110;" horiz-adv-x="611" 
d="M6 390l53 -0.00195312v299h260c32 0 62.5 -4.83301 91.5 -14.5s54.5 -24 76.5 -43s39.5 -42.333 52.5 -70s19.5 -59.5 19.5 -95.5v-243c0 -35.333 -6.5 -66.666 -19.5 -93.999s-30.667 -50.666 -53 -69.999s-48 -34 -77 -44s-59.5 -15 -91.5 -15h-259v309h-53v81z
M443 444.998c0 26 -4.16699 48 -12.5 66s-19.5 32.5 -33.5 43.5s-29.667 19 -47 24s-35 7.5 -53 7.5h-124v-196h115v-81h-115v-208h124c16.667 0 33.667 2.5 51 7.5s33 13 47 24s25.5 25.5 34.5 43.5s13.5 40 13.5 66v203z" />
    <glyph glyph-name="dcroat" unicode="&#x111;" horiz-adv-x="513" 
d="M207 639l152.001 0.000976562v77h106v-77h45v-74h-45v-565h-96l-10 49c-34 -20.667 -62.833 -34.834 -86.5 -42.501s-44.167 -11.5 -61.5 -11.5c-51.333 0 -91.833 14.5 -121.5 43.5s-44.5 74.167 -44.5 135.5v149c0 55.333 15.833 98.833 47.5 130.5
s73.5 47.5 125.5 47.5c17.333 0 38.166 -1.83301 62.499 -5.5s50.5 -11.167 78.5 -22.5v92h-152v74zM151.001 182.001c0 -33.333 7.16504 -56.168 21.498 -68.501s32.5 -18.5 54.5 -18.5c8.66699 0 18.5 1.33301 29.5 4s22.5 6.33398 34.5 11.001s23.833 10 35.5 16
s22.5 12.333 32.5 19v227c-23.333 9.33301 -45.166 16.5 -65.499 21.5s-39.833 7.5 -58.5 7.5c-23.333 0 -43.166 -7 -59.499 -21s-24.5 -37.667 -24.5 -71v-127z" />
    <glyph glyph-name="Emacron" unicode="&#x112;" horiz-adv-x="567" 
d="M61 689h467v-103h-353v-189h302v-103h-302v-192h353v-102h-467v689zM157 773v89h289v-89h-289z" />
    <glyph glyph-name="emacron" unicode="&#x113;" horiz-adv-x="495" 
d="M152 213l0.00195312 -25c0 -17.333 3 -32.166 9 -44.499s13.833 -22.333 23.5 -30s21 -13.334 34 -17.001s26.5 -5.5 40.5 -5.5c15.333 0 33.833 2.66699 55.5 8s43.167 17.666 64.5 36.999l31.5 -36.5c10.333 -11.667 20.5 -23.834 30.5 -36.501
c-28 -27.333 -57.5 -45.5 -88.5 -54.5s-62.167 -13.5 -93.5 -13.5c-28.667 0 -55.834 3.66699 -81.501 11s-48.334 18.5 -68.001 33.5s-35.167 33.833 -46.5 56.5s-17 49.334 -17 80.001v130c0 30 5.16699 57 15.5 81s24.833 44.333 43.5 61s40.334 29.5 65.001 38.5
s51.667 13.5 81 13.5c30 0 57.667 -4.33301 83 -13s47.166 -21.167 65.499 -37.5s32.5 -36.166 42.5 -59.499s15 -50 15 -80v-97h-305zM350.002 304c0 34.667 -9.66602 59.833 -28.999 75.5s-42.333 23.5 -69 23.5s-49.834 -8.16699 -69.501 -24.5
s-29.5 -40.833 -29.5 -73.5v-16h197v15zM113.003 592.999v89h290v-89h-290z" />
    <glyph glyph-name="Ebreve" unicode="&#x114;" horiz-adv-x="567" 
d="M61 689h467v-103h-353v-189h302v-103h-302v-192h353v-102h-467v689zM301 731c-28 0 -51.168 4.66699 -69.501 14s-33.333 21 -45 35s-20 29.167 -25 45.5s-7.83301 31.5 -8.5 45.5h82c0.666992 -6.66699 2.5 -13.834 5.5 -21.501s7.33301 -14.667 13 -21
s12.5 -11.666 20.5 -15.999s17 -6.5 27 -6.5c11.333 0 21.166 2.16699 29.499 6.5s15.333 9.66602 21 15.999s9.83398 13.333 12.501 21s4 14.834 4 21.501h81c-1.33301 -14 -4.66602 -29.167 -9.99902 -45.5s-13.5 -31.5 -24.5 -45.5s-25.667 -25.667 -44 -35
s-41.5 -14 -69.5 -14z" />
    <glyph glyph-name="ebreve" unicode="&#x115;" horiz-adv-x="495" 
d="M152 213l0.00195312 -25c0 -17.333 3 -32.166 9 -44.499s13.833 -22.333 23.5 -30s21 -13.334 34 -17.001s26.5 -5.5 40.5 -5.5c15.333 0 33.833 2.66699 55.5 8s43.167 17.666 64.5 36.999l31.5 -36.5c10.333 -11.667 20.5 -23.834 30.5 -36.501
c-28 -27.333 -57.5 -45.5 -88.5 -54.5s-62.167 -13.5 -93.5 -13.5c-28.667 0 -55.834 3.66699 -81.501 11s-48.334 18.5 -68.001 33.5s-35.167 33.833 -46.5 56.5s-17 49.334 -17 80.001v130c0 30 5.16699 57 15.5 81s24.833 44.333 43.5 61s40.334 29.5 65.001 38.5
s51.667 13.5 81 13.5c30 0 57.667 -4.33301 83 -13s47.166 -21.167 65.499 -37.5s32.5 -36.166 42.5 -59.499s15 -50 15 -80v-97h-305zM350.002 304c0 34.667 -9.66602 59.833 -28.999 75.5s-42.333 23.5 -69 23.5s-49.834 -8.16699 -69.501 -24.5
s-29.5 -40.833 -29.5 -73.5v-16h197v15zM257.003 565.999c-28 0 -51.168 4.66699 -69.501 14s-33.333 21 -45 35s-20 29 -25 45s-7.83301 31 -8.5 45h82c0.666992 -6.66699 2.5 -13.667 5.5 -21s7.33301 -14.166 13 -20.499s12.5 -11.666 20.5 -15.999s17 -6.5 27 -6.5
c11.333 0 21.166 2.16699 29.499 6.5s15.333 9.66602 21 15.999s9.83398 13.166 12.501 20.499s4 14.333 4 21h81c-1.33301 -14 -4.66602 -29 -9.99902 -45s-13.5 -31 -24.5 -45s-25.667 -25.667 -44 -35s-41.5 -14 -69.5 -14z" />
    <glyph glyph-name="Edotaccent" unicode="&#x116;" horiz-adv-x="567" 
d="M61 689h467v-103h-353v-189h302v-103h-302v-192h353v-102h-467v689zM299 749c-19.333 0 -34.667 6.16699 -46 18.5s-17 27.833 -17 46.5c0 16 5.66699 30.333 17 43s26.333 19 45 19c19.333 0 35 -6.33301 47 -19s18 -27 18 -43c0 -17.333 -5.66699 -32.5 -17 -45.5
s-27 -19.5 -47 -19.5z" />
    <glyph glyph-name="edotaccent" unicode="&#x117;" horiz-adv-x="495" 
d="M152 213l0.00195312 -25c0 -17.333 3 -32.166 9 -44.499s13.833 -22.333 23.5 -30s21 -13.334 34 -17.001s26.5 -5.5 40.5 -5.5c15.333 0 33.833 2.66699 55.5 8s43.167 17.666 64.5 36.999l31.5 -36.5c10.333 -11.667 20.5 -23.834 30.5 -36.501
c-28 -27.333 -57.5 -45.5 -88.5 -54.5s-62.167 -13.5 -93.5 -13.5c-28.667 0 -55.834 3.66699 -81.501 11s-48.334 18.5 -68.001 33.5s-35.167 33.833 -46.5 56.5s-17 49.334 -17 80.001v130c0 30 5.16699 57 15.5 81s24.833 44.333 43.5 61s40.334 29.5 65.001 38.5
s51.667 13.5 81 13.5c30 0 57.667 -4.33301 83 -13s47.166 -21.167 65.499 -37.5s32.5 -36.166 42.5 -59.499s15 -50 15 -80v-97h-305zM350.002 304c0 34.667 -9.66602 59.833 -28.999 75.5s-42.333 23.5 -69 23.5s-49.834 -8.16699 -69.501 -24.5
s-29.5 -40.833 -29.5 -73.5v-16h197v15zM253.003 575.999c-19.333 0 -34.667 6.16699 -46 18.5s-17 27.833 -17 46.5c0 16 5.66699 30.333 17 43s26.333 19 45 19c19.333 0 35 -6.33301 47 -19s18 -27 18 -43c0 -17.333 -5.66699 -32.5 -17 -45.5s-27 -19.5 -47 -19.5z" />
    <glyph glyph-name="Eogonek" unicode="&#x118;" horiz-adv-x="567" 
d="M61 689h467.003v-103h-353v-189h302v-103h-302v-192h353v-102c-12.667 -17.333 -21.834 -32.333 -27.501 -45s-8.5 -24.667 -8.5 -36c0 -25.333 14 -38 42 -38c7.33301 0 15.666 1.5 24.999 4.5s20.666 7.16699 33.999 12.5l23 -58c-14 -8 -29.5 -14.5 -46.5 -19.5
s-34.167 -7.5 -51.5 -7.5c-30 0 -54.167 8.83301 -72.5 26.5s-27.5 39.167 -27.5 64.5c0 14 2.66699 28.5 8 43.5s15 32.5 29 52.5h-394v689z" />
    <glyph glyph-name="eogonek" unicode="&#x119;" horiz-adv-x="495" 
d="M301 -58c0 18.667 4.66992 37.667 14.0029 57c-9.33301 -1.33301 -18.666 -2.33301 -27.999 -3s-18.666 -1 -27.999 -1c-28.667 0 -55.834 3.66699 -81.501 11s-48.334 18.5 -68.001 33.5s-35.167 33.833 -46.5 56.5s-17 49.334 -17 80.001v130c0 30 5.16699 57 15.5 81
s24.833 44.333 43.5 61s40.334 29.5 65.001 38.5s51.667 13.5 81 13.5c30 0 57.667 -4.33301 83 -13s47.166 -21.167 65.499 -37.5s32.5 -36.166 42.5 -59.499s15 -50 15 -80v-97h-305v-25c0 -17.333 3 -32.166 9 -44.499s13.833 -22.333 23.5 -30s21 -13.334 34 -17.001
s26.5 -5.5 40.5 -5.5c15.333 0 33.833 2.66699 55.5 8s43.167 17.666 64.5 36.999l31.5 -36.5c10.333 -11.667 20.5 -23.834 30.5 -36.501c-8.66699 -8.66699 -18.667 -17 -30 -25c-12.667 -17.333 -21.834 -32.333 -27.501 -45s-8.5 -24.667 -8.5 -36
c0 -25.333 14 -38 42 -38c7.33301 0 15.666 1.5 24.999 4.5s20.666 7.16699 33.999 12.5l23 -58c-14 -8 -29.5 -14.5 -46.5 -19.5s-34.167 -7.5 -51.5 -7.5c-30 0 -54.167 8.83301 -72.5 26.5s-27.5 39.167 -27.5 64.5zM350.003 304c0 34.667 -9.66602 59.833 -28.999 75.5
s-42.333 23.5 -69 23.5s-49.834 -8.16699 -69.501 -24.5s-29.5 -40.833 -29.5 -73.5v-16h197v15z" />
    <glyph glyph-name="Ecaron" unicode="&#x11a;" horiz-adv-x="567" 
d="M61 689h467v-103h-353v-189h302v-103h-302v-192h353v-102h-467v689zM442 908l37 -46l-145 -124h-68l-150 126l35 44l146 -84z" />
    <glyph glyph-name="ecaron" unicode="&#x11b;" horiz-adv-x="495" 
d="M152 213l0.00195312 -25c0 -17.333 3 -32.166 9 -44.499s13.833 -22.333 23.5 -30s21 -13.334 34 -17.001s26.5 -5.5 40.5 -5.5c15.333 0 33.833 2.66699 55.5 8s43.167 17.666 64.5 36.999l31.5 -36.5c10.333 -11.667 20.5 -23.834 30.5 -36.501
c-28 -27.333 -57.5 -45.5 -88.5 -54.5s-62.167 -13.5 -93.5 -13.5c-28.667 0 -55.834 3.66699 -81.501 11s-48.334 18.5 -68.001 33.5s-35.167 33.833 -46.5 56.5s-17 49.334 -17 80.001v130c0 30 5.16699 57 15.5 81s24.833 44.333 43.5 61s40.334 29.5 65.001 38.5
s51.667 13.5 81 13.5c30 0 57.667 -4.33301 83 -13s47.166 -21.167 65.499 -37.5s32.5 -36.166 42.5 -59.499s15 -50 15 -80v-97h-305zM350.002 304c0 34.667 -9.66602 59.833 -28.999 75.5s-42.333 23.5 -69 23.5s-49.834 -8.16699 -69.501 -24.5
s-29.5 -40.833 -29.5 -73.5v-16h197v15zM389.003 736.999l46 -42l-145 -153h-70l-149 154l44 41c4 -2.66699 12.667 -9 26 -19l43 -33l43 -33.5c13.333 -10.333 22 -16.833 26 -19.5z" />
    <glyph glyph-name="Gcircumflex" unicode="&#x11c;" horiz-adv-x="593" 
d="M537 87c-30 -34.667 -65.166 -59.001 -105.499 -73.001s-79.166 -21 -116.499 -21c-32.667 0 -64.5 4.83301 -95.5 14.5s-58.667 24 -83 43s-43.833 42.5 -58.5 70.5s-22 60 -22 96v254c0 36 7.16699 67.833 21.5 95.5s33.666 51.167 57.999 70.5s52.333 34 84 44
s64.834 15 99.501 15c38.667 0 75.667 -5.33301 111 -16s66 -27 92 -49l-56 -89c-19.333 16.667 -42.333 29 -69 37s-52.334 12 -77.001 12c-18.667 0 -36.834 -2.66699 -54.501 -8s-33.5 -13.666 -47.5 -24.999s-25.333 -26 -34 -44s-13 -39.667 -13 -65v-209
c0 -25.333 4 -47 12 -65s18.833 -32.667 32.5 -44s29.167 -19.666 46.5 -24.999s35 -8 53 -8c14 0 30.5 2.16699 49.5 6.5s38.5 14.166 58.5 29.499v138h-105v100h219v-285zM307.001 818.999l-146 -84l-36 45l150 125h68l146 -124l-37 -46z" />
    <glyph glyph-name="gcircumflex" unicode="&#x11d;" horiz-adv-x="511" 
d="M463 -29c0 -29.333 -6.49902 -55.167 -19.499 -77.5s-30 -41 -51 -56s-44.5 -26.167 -70.5 -33.5s-52.333 -11 -79 -11c-30 0 -61.833 5.16699 -95.5 15.5s-64.5 29.5 -92.5 57.5l67 73c8 -8 17.167 -15 27.5 -21s21.166 -11 32.499 -15s22.333 -6.83301 33 -8.5
s20 -2.5 28 -2.5c14.667 0 28.834 1.83301 42.501 5.5s25.667 9.5 36 17.5s18.666 18.333 24.999 31s9.5 28.334 9.5 47.001v53c-31.333 -19.333 -59.833 -32.166 -85.5 -38.499s-47.167 -9.5 -64.5 -9.5c-52 0 -92.333 15.667 -121 47s-43 74.666 -43 129.999v146
c0 57.333 15.167 101.666 45.5 132.999s70.5 47 120.5 47c18 0 39 -3.66699 63 -11s52.333 -21.333 85 -42l10 47h97v-524zM149.001 188.999c0 -33.333 6.99805 -56.834 20.998 -70.501s32 -20.167 54 -19.5c18.667 0 39.834 4.33301 63.501 13s46.5 20 68.5 34v201
c-21.333 15.333 -44.166 27.833 -68.499 37.5s-45.5 14.5 -63.5 14.5c-22 0 -40 -6.66699 -54 -20s-21 -36.666 -21 -69.999v-120zM254.999 647.998c-4 -2.66699 -12.667 -9.16699 -26 -19.5l-43 -33.5l-43 -33.5c-13.333 -10.333 -22 -16.833 -26 -19.5l-44 41l149 154h70
l145 -152l-46 -43z" />
    <glyph glyph-name="Gbreve" unicode="&#x11e;" horiz-adv-x="593" 
d="M537 87c-30 -34.667 -65.166 -59.001 -105.499 -73.001s-79.166 -21 -116.499 -21c-32.667 0 -64.5 4.83301 -95.5 14.5s-58.667 24 -83 43s-43.833 42.5 -58.5 70.5s-22 60 -22 96v254c0 36 7.16699 67.833 21.5 95.5s33.666 51.167 57.999 70.5s52.333 34 84 44
s64.834 15 99.501 15c38.667 0 75.667 -5.33301 111 -16s66 -27 92 -49l-56 -89c-19.333 16.667 -42.333 29 -69 37s-52.334 12 -77.001 12c-18.667 0 -36.834 -2.66699 -54.501 -8s-33.5 -13.666 -47.5 -24.999s-25.333 -26 -34 -44s-13 -39.667 -13 -65v-209
c0 -25.333 4 -47 12 -65s18.833 -32.667 32.5 -44s29.167 -19.666 46.5 -24.999s35 -8 53 -8c14 0 30.5 2.16699 49.5 6.5s38.5 14.166 58.5 29.499v138h-105v100h219v-285zM308.001 730.999c-28 0 -51.168 4.66699 -69.501 14s-33.333 21 -45 35s-20 29.167 -25 45.5
s-7.83301 31.5 -8.5 45.5h82c0.666992 -6.66699 2.5 -13.834 5.5 -21.501s7.33301 -14.667 13 -21s12.5 -11.666 20.5 -15.999s17 -6.5 27 -6.5c11.333 0 21.166 2.16699 29.499 6.5s15.333 9.66602 21 15.999s9.83398 13.333 12.501 21s4 14.834 4 21.501h81
c-1.33301 -14 -4.66602 -29.167 -9.99902 -45.5s-13.5 -31.5 -24.5 -45.5s-25.667 -25.667 -44 -35s-41.5 -14 -69.5 -14z" />
    <glyph glyph-name="gbreve" unicode="&#x11f;" horiz-adv-x="511" 
d="M463 -29c0 -29.333 -6.49902 -55.167 -19.499 -77.5s-30 -41 -51 -56s-44.5 -26.167 -70.5 -33.5s-52.333 -11 -79 -11c-30 0 -61.833 5.16699 -95.5 15.5s-64.5 29.5 -92.5 57.5l67 73c8 -8 17.167 -15 27.5 -21s21.166 -11 32.499 -15s22.333 -6.83301 33 -8.5
s20 -2.5 28 -2.5c14.667 0 28.834 1.83301 42.501 5.5s25.667 9.5 36 17.5s18.666 18.333 24.999 31s9.5 28.334 9.5 47.001v53c-31.333 -19.333 -59.833 -32.166 -85.5 -38.499s-47.167 -9.5 -64.5 -9.5c-52 0 -92.333 15.667 -121 47s-43 74.666 -43 129.999v146
c0 57.333 15.167 101.666 45.5 132.999s70.5 47 120.5 47c18 0 39 -3.66699 63 -11s52.333 -21.333 85 -42l10 47h97v-524zM149.001 188.999c0 -33.333 6.99805 -56.834 20.998 -70.501s32 -20.167 54 -19.5c18.667 0 39.834 4.33301 63.501 13s46.5 20 68.5 34v201
c-21.333 15.333 -44.166 27.833 -68.499 37.5s-45.5 14.5 -63.5 14.5c-22 0 -40 -6.66699 -54 -20s-21 -36.666 -21 -69.999v-120zM272.999 565.998c-28 0 -51.168 4.66699 -69.501 14s-33.333 21 -45 35s-20 29 -25 45s-7.83301 31 -8.5 45h82
c0.666992 -6.66699 2.5 -13.667 5.5 -21s7.33301 -14.166 13 -20.499s12.5 -11.666 20.5 -15.999s17 -6.5 27 -6.5c11.333 0 21.166 2.16699 29.499 6.5s15.333 9.66602 21 15.999s9.83398 13.166 12.501 20.499s4 14.333 4 21h81c-1.33301 -14 -4.66602 -29 -9.99902 -45
s-13.5 -31 -24.5 -45s-25.667 -25.667 -44 -35s-41.5 -14 -69.5 -14z" />
    <glyph glyph-name="Gdotaccent" unicode="&#x120;" horiz-adv-x="593" 
d="M537 87c-30 -34.667 -65.166 -59.001 -105.499 -73.001s-79.166 -21 -116.499 -21c-32.667 0 -64.5 4.83301 -95.5 14.5s-58.667 24 -83 43s-43.833 42.5 -58.5 70.5s-22 60 -22 96v254c0 36 7.16699 67.833 21.5 95.5s33.666 51.167 57.999 70.5s52.333 34 84 44
s64.834 15 99.501 15c38.667 0 75.667 -5.33301 111 -16s66 -27 92 -49l-56 -89c-19.333 16.667 -42.333 29 -69 37s-52.334 12 -77.001 12c-18.667 0 -36.834 -2.66699 -54.501 -8s-33.5 -13.666 -47.5 -24.999s-25.333 -26 -34 -44s-13 -39.667 -13 -65v-209
c0 -25.333 4 -47 12 -65s18.833 -32.667 32.5 -44s29.167 -19.666 46.5 -24.999s35 -8 53 -8c14 0 30.5 2.16699 49.5 6.5s38.5 14.166 58.5 29.499v138h-105v100h219v-285zM311.001 748.999c-19.333 0 -34.667 6.16699 -46 18.5s-17 27.833 -17 46.5
c0 16 5.66699 30.333 17 43s26.333 19 45 19c19.333 0 35 -6.33301 47 -19s18 -27 18 -43c0 -17.333 -5.66699 -32.5 -17 -45.5s-27 -19.5 -47 -19.5z" />
    <glyph glyph-name="gdotaccent" unicode="&#x121;" horiz-adv-x="511" 
d="M463 -29c0 -29.333 -6.49902 -55.167 -19.499 -77.5s-30 -41 -51 -56s-44.5 -26.167 -70.5 -33.5s-52.333 -11 -79 -11c-30 0 -61.833 5.16699 -95.5 15.5s-64.5 29.5 -92.5 57.5l67 73c8 -8 17.167 -15 27.5 -21s21.166 -11 32.499 -15s22.333 -6.83301 33 -8.5
s20 -2.5 28 -2.5c14.667 0 28.834 1.83301 42.501 5.5s25.667 9.5 36 17.5s18.666 18.333 24.999 31s9.5 28.334 9.5 47.001v53c-31.333 -19.333 -59.833 -32.166 -85.5 -38.499s-47.167 -9.5 -64.5 -9.5c-52 0 -92.333 15.667 -121 47s-43 74.666 -43 129.999v146
c0 57.333 15.167 101.666 45.5 132.999s70.5 47 120.5 47c18 0 39 -3.66699 63 -11s52.333 -21.333 85 -42l10 47h97v-524zM149.001 188.999c0 -33.333 6.99805 -56.834 20.998 -70.501s32 -20.167 54 -19.5c18.667 0 39.834 4.33301 63.501 13s46.5 20 68.5 34v201
c-21.333 15.333 -44.166 27.833 -68.499 37.5s-45.5 14.5 -63.5 14.5c-22 0 -40 -6.66699 -54 -20s-21 -36.666 -21 -69.999v-120zM263.999 575.998c-19.333 0 -34.667 6.16699 -46 18.5s-17 27.833 -17 46.5c0 16 5.66699 30.333 17 43s26.333 19 45 19
c19.333 0 35 -6.33301 47 -19s18 -27 18 -43c0 -17.333 -5.66699 -32.5 -17 -45.5s-27 -19.5 -47 -19.5z" />
    <glyph glyph-name="Gcommaaccent" unicode="&#x122;" horiz-adv-x="593" 
d="M537 87c-30 -34.667 -65.166 -59.001 -105.499 -73.001s-79.166 -21 -116.499 -21c-32.667 0 -64.5 4.83301 -95.5 14.5s-58.667 24 -83 43s-43.833 42.5 -58.5 70.5s-22 60 -22 96v254c0 36 7.16699 67.833 21.5 95.5s33.666 51.167 57.999 70.5s52.333 34 84 44
s64.834 15 99.501 15c38.667 0 75.667 -5.33301 111 -16s66 -27 92 -49l-56 -89c-19.333 16.667 -42.333 29 -69 37s-52.334 12 -77.001 12c-18.667 0 -36.834 -2.66699 -54.501 -8s-33.5 -13.666 -47.5 -24.999s-25.333 -26 -34 -44s-13 -39.667 -13 -65v-209
c0 -25.333 4 -47 12 -65s18.833 -32.667 32.5 -44s29.167 -19.666 46.5 -24.999s35 -8 53 -8c14 0 30.5 2.16699 49.5 6.5s38.5 14.166 58.5 29.499v138h-105v100h219v-285zM233.001 -250.001c16 11.333 28.667 22.335 38 33.002s15 25 17 43
c-14.667 1.33301 -26.667 8 -36 20s-14 26.667 -14 44s6.5 32.666 19.5 45.999s29.167 20 48.5 20c26 0 45.167 -9 57.5 -27s18.5 -38.667 18.5 -62c0 -38 -10.833 -71.333 -32.5 -100s-48.5 -50.334 -80.5 -65.001z" />
    <glyph glyph-name="gcommaaccent" unicode="&#x123;" horiz-adv-x="511" 
d="M352 745c-16 -11.333 -28.667 -22.335 -38 -33.002s-15 -25 -17 -43c14.667 -1.33301 26.667 -8 36 -20s14 -26.667 14 -44s-6.5 -32.666 -19.5 -45.999s-29.167 -20 -48.5 -20c-26 0 -45.167 9 -57.5 27s-18.5 38.667 -18.5 62c0 38 10.833 71.333 32.5 100
s48.5 50.334 80.5 65.001zM463 -29.002c0 -29.333 -6.49902 -55.167 -19.499 -77.5s-30 -41 -51 -56s-44.5 -26.167 -70.5 -33.5s-52.333 -11 -79 -11c-30 0 -61.833 5.16699 -95.5 15.5s-64.5 29.5 -92.5 57.5l67 73c8 -8 17.167 -15 27.5 -21s21.166 -11 32.499 -15
s22.333 -6.83301 33 -8.5s20 -2.5 28 -2.5c14.667 0 28.834 1.83301 42.501 5.5s25.667 9.5 36 17.5s18.666 18.333 24.999 31s9.5 28.334 9.5 47.001v53c-31.333 -19.333 -59.833 -32.166 -85.5 -38.499s-47.167 -9.5 -64.5 -9.5c-52 0 -92.333 15.667 -121 47
s-43 74.666 -43 129.999v146c0 57.333 15.167 101.666 45.5 132.999s70.5 47 120.5 47c18 0 39 -3.66699 63 -11s52.333 -21.333 85 -42l10 47h97v-524zM149.001 188.997c0 -33.333 6.99805 -56.834 20.998 -70.501s32 -20.167 54 -19.5c18.667 0 39.834 4.33301 63.501 13
s46.5 20 68.5 34v201c-21.333 15.333 -44.166 27.833 -68.499 37.5s-45.5 14.5 -63.5 14.5c-22 0 -40 -6.66699 -54 -20s-21 -36.666 -21 -69.999v-120z" />
    <glyph glyph-name="Hcircumflex" unicode="&#x124;" horiz-adv-x="631" 
d="M459 0v298h-289v-298h-114v689h114v-288h289v288h116v-689h-116zM310 819l-146 -84l-36 45l150 125h68l146 -124l-37 -46z" />
    <glyph glyph-name="hcircumflex" unicode="&#x125;" horiz-adv-x="513" 
d="M364 0v308.999c0 16.667 -2 30.834 -6 42.501s-9.5 21 -16.5 28s-15.167 12 -24.5 15s-19.333 4.5 -30 4.5c-18 0 -38.333 -4.33301 -61 -13s-46.667 -21 -72 -37v-349h-106v716h106v-271c38 24.667 69.5 40.167 94.5 46.5s46.5 9.5 64.5 9.5
c54.667 0 94.667 -15.833 120 -47.5s38 -75.167 38 -130.5v-323h-107zM102 818.999l-146 -84l-36 45l150 125h68l146 -124l-37 -46z" />
    <glyph glyph-name="Hbar" unicode="&#x126;" horiz-adv-x="631" 
d="M459 0v298h-289v-298h-114v523h-40v76h40v90h114v-90h289v90h116v-90h47v-76h-47v-523h-116zM459 401v122h-289v-122h289z" />
    <glyph glyph-name="hbar" unicode="&#x127;" horiz-adv-x="513" 
d="M364 0v308.999c0 16.667 -2 30.834 -6 42.501s-9.5 21 -16.5 28s-15.167 12 -24.5 15s-19.333 4.5 -30 4.5c-18 0 -38.333 -4.33301 -61 -13s-46.667 -21 -72 -37v-349h-106v568h-48v76h48v72h106v-72h203v-76h-203v-123c38 24.667 69.5 40.167 94.5 46.5
s46.5 9.5 64.5 9.5c54.667 0 94.667 -15.833 120 -47.5s38 -75.167 38 -130.5v-323h-107z" />
    <glyph glyph-name="Itilde" unicode="&#x128;" horiz-adv-x="274" 
d="M194 689v-689h-114v689h114zM75 876c12.667 0 25.166 -2.5 37.499 -7.5s24.333 -10.5 36 -16.5l33 -16.5c10.333 -5 19.5 -7.5 27.5 -7.5c10.667 0 20.834 3.5 30.501 10.5s20.167 18.833 31.5 35.5l58 -34c-16 -34 -33.167 -58.5 -51.5 -73.5s-38.5 -22.5 -60.5 -22.5
c-12.667 0 -25 2.33301 -37 7s-23.667 9.66699 -35 15l-33 15c-10.667 4.66699 -20.667 7 -30 7c-11.333 0 -21.666 -2.66699 -30.999 -8s-20.666 -16.666 -33.999 -33.999l-58 34c15.333 31.333 32.666 55.166 51.999 71.499s40.666 24.5 63.999 24.5z" />
    <glyph glyph-name="itilde" unicode="&#x129;" horiz-adv-x="350" 
d="M121 0v495h106v-495h-106zM106 706c12.667 0 25.166 -2.5 37.499 -7.5s24.333 -10.5 36 -16.5l33 -16.5c10.333 -5 19.5 -7.5 27.5 -7.5c10.667 0 20.834 3.5 30.501 10.5s20.167 18.833 31.5 35.5l58 -34c-16 -34 -33.167 -58.5 -51.5 -73.5s-38.5 -22.5 -60.5 -22.5
c-12.667 0 -25 2.33301 -37 7s-23.667 9.66699 -35 15l-33 15c-10.667 4.66699 -20.667 7 -30 7c-11.333 0 -21.666 -2.66699 -30.999 -8s-20.666 -16.666 -33.999 -33.999l-58 34c15.333 31.333 32.666 55.166 51.999 71.499s40.666 24.5 63.999 24.5z" />
    <glyph glyph-name="Imacron" unicode="&#x12a;" horiz-adv-x="274" 
d="M194 689v-689h-114v689h114zM-5 773v89h289v-89h-289z" />
    <glyph glyph-name="imacron" unicode="&#x12b;" horiz-adv-x="254" 
d="M74 0v495h106v-495h-106zM-20 593v89h290v-89h-290z" />
    <glyph glyph-name="Ibreve" unicode="&#x12c;" horiz-adv-x="274" 
d="M139 731c-28 0 -51.168 4.66699 -69.501 14s-33.333 21 -45 35s-20 29.167 -25 45.5s-7.83301 31.5 -8.5 45.5h82c0.666992 -6.66699 2.5 -13.834 5.5 -21.501s7.33301 -14.667 13 -21s12.5 -11.666 20.5 -15.999s17 -6.5 27 -6.5c11.333 0 21.166 2.16699 29.499 6.5
s15.333 9.66602 21 15.999s9.83398 13.333 12.501 21s4 14.834 4 21.501h81c-1.33301 -14 -4.66602 -29.167 -9.99902 -45.5s-13.5 -31.5 -24.5 -45.5s-25.667 -25.667 -44 -35s-41.5 -14 -69.5 -14zM193.999 689v-689h-114v689h114z" />
    <glyph glyph-name="ibreve" unicode="&#x12d;" horiz-adv-x="254" 
d="M74 0v495h106v-495h-106zM126 572c-28 0 -51.168 4.66699 -69.501 14s-33.333 21 -45 35s-20 29 -25 45s-7.83301 31 -8.5 45h82c0.666992 -6.66699 2.5 -13.667 5.5 -21s7.33301 -14.166 13 -20.499s12.5 -11.666 20.5 -15.999s17 -6.5 27 -6.5
c11.333 0 21.166 2.16699 29.499 6.5s15.333 9.66602 21 15.999s9.83398 13.166 12.501 20.499s4 14.333 4 21h81c-1.33301 -14 -4.66602 -29 -9.99902 -45s-13.5 -31 -24.5 -45s-25.667 -25.667 -44 -35s-41.5 -14 -69.5 -14z" />
    <glyph glyph-name="Iogonek" unicode="&#x12e;" horiz-adv-x="274" 
d="M64 -96c0 14 2.66992 28.5 8.00293 43.5s15 32.5 29 52.5h-21v689h114v-689h-20c-12.667 -17.333 -21.834 -32.333 -27.501 -45s-8.5 -24.667 -8.5 -36c0 -25.333 14 -38 42 -38c7.33301 0 15.666 1.5 24.999 4.5s20.666 7.16699 33.999 12.5l23 -58
c-14 -8 -29.5 -14.5 -46.5 -19.5s-34.167 -7.5 -51.5 -7.5c-30 0 -54.167 8.83301 -72.5 26.5s-27.5 39.167 -27.5 64.5z" />
    <glyph glyph-name="iogonek" unicode="&#x12f;" horiz-adv-x="254" 
d="M54 -95c0 13.333 2.66895 27.498 8.00195 42.498s15 32.5 29 52.5h-17v495h106v-495h-17c-12.667 -17.333 -21.667 -32.166 -27 -44.499s-8 -24.166 -8 -35.499c0 -25.333 14 -38 42 -38c7.33301 0 15.666 1.5 24.999 4.5s20.666 7.16699 33.999 12.5l23 -58
c-14 -8 -29.5 -14.5 -46.5 -19.5s-34.167 -7.5 -51.5 -7.5c-30 0 -54.167 8.83301 -72.5 26.5s-27.5 39.167 -27.5 64.5zM66.002 636.998c0 17.333 5.83301 31.833 17.5 43.5s25.834 17.5 42.501 17.5c17.333 0 31.833 -5.83301 43.5 -17.5s17.5 -26.167 17.5 -43.5
s-5.83301 -31.833 -17.5 -43.5s-26.167 -17.5 -43.5 -17.5c-16.667 0 -30.834 5.83301 -42.501 17.5s-17.5 26.167 -17.5 43.5z" />
    <glyph glyph-name="Idotaccent" unicode="&#x130;" horiz-adv-x="274" 
d="M194 689v-689h-114v689h114zM139 749c-19.333 0 -34.667 6.16699 -46 18.5s-17 27.833 -17 46.5c0 16 5.66699 30.333 17 43s26.333 19 45 19c19.333 0 35 -6.33301 47 -19s18 -27 18 -43c0 -17.333 -5.66699 -32.5 -17 -45.5s-27 -19.5 -47 -19.5z" />
    <glyph glyph-name="dotlessi" unicode="&#x131;" horiz-adv-x="254" 
d="M74 0v495h106v-495h-106z" />
    <glyph glyph-name="IJ" unicode="&#x132;" horiz-adv-x="763" 
d="M194 689v-689h-114v689h114zM687 219c0 -36 -6.50293 -67.998 -19.5029 -95.998s-30.667 -51.667 -53 -71s-48 -34 -77 -44s-59.5 -15 -91.5 -15c-17.333 0 -35.166 1.16699 -53.499 3.5s-36.166 6 -53.499 11s-34 11.167 -50 18.5s-30.333 15.666 -43 24.999l53 90
c23.333 -16 45.833 -27.167 67.5 -33.5s42.834 -9.5 63.501 -9.5s39.667 2.66699 57 8s32.333 13.666 45 24.999s22.5 26.333 29.5 45s10.5 41.667 10.5 69v444h115v-470z" />
    <glyph glyph-name="ij" unicode="&#x133;" horiz-adv-x="480" 
d="M74 0v495h106v-495h-106zM66 637c0 17.333 5.83301 31.833 17.5 43.5s25.834 17.5 42.501 17.5c17.333 0 31.833 -5.83301 43.5 -17.5s17.5 -26.167 17.5 -43.5s-5.83301 -31.833 -17.5 -43.5s-26.167 -17.5 -43.5 -17.5c-16.667 0 -30.834 5.83301 -42.501 17.5
s-17.5 26.167 -17.5 43.5zM412 -52c0 -52 -13.667 -90.167 -41 -114.5s-64 -36.5 -110 -36.5h-53v94h36c24.667 0 41.167 5.66699 49.5 17s12.5 30 12.5 56v531h106v-547zM299 638c0 16.667 5.66699 30.834 17 42.501s25.666 17.5 42.999 17.5s31.833 -5.83301 43.5 -17.5
s17.5 -25.834 17.5 -42.501c0 -17.333 -5.83301 -31.833 -17.5 -43.5s-26.167 -17.5 -43.5 -17.5s-31.666 5.83301 -42.999 17.5s-17 26.167 -17 43.5z" />
    <glyph glyph-name="Jcircumflex" unicode="&#x134;" horiz-adv-x="527" 
d="M451 220c0 -36 -6.50293 -67.998 -19.5029 -95.998s-30.667 -51.667 -53 -71s-48 -34 -77 -44s-59.5 -15 -91.5 -15c-17.333 0 -35.166 1.16699 -53.499 3.5s-36.166 6 -53.499 11s-34 11.167 -50 18.5s-30.333 15.666 -43 24.999l53 90
c23.333 -16 45.833 -27.167 67.5 -33.5s42.834 -9.5 63.501 -9.5s39.667 2.66699 57 8s32.333 13.666 45 24.999s22.5 26.333 29.5 45s10.5 41.667 10.5 69v444h115v-470zM394.997 821.002l-146 -84l-36 45l150 125h68l146 -124l-37 -46z" />
    <glyph glyph-name="jcircumflex" unicode="&#x135;" horiz-adv-x="344" 
d="M224 -53c0 -52 -13.667 -90 -41 -114s-64 -36 -110 -36h-53v93h36c24.667 0 41.167 5.66699 49.5 17s12.5 30 12.5 56v532h106v-548zM172 648c-4 -2.66699 -12.667 -9.16699 -26 -19.5l-43 -33.5l-43 -33.5c-13.333 -10.333 -22 -16.833 -26 -19.5l-44 41l149 154h70
l145 -152l-46 -43z" />
    <glyph glyph-name="Kcommaaccent" unicode="&#x136;" horiz-adv-x="609" 
d="M176 358l110 137l161 194h137l-226 -275l245 -414h-134l-93.5 161l-93.5 161l-55.5 -65.5l-54.5 -65.5v-191h-115v689h115v-331h4zM235 -230c16 11.333 28.667 22.335 38 33.002s15 25 17 43c-14.667 1.33301 -26.667 8 -36 20s-14 26.667 -14 44s6.5 32.666 19.5 45.999
s29.167 20 48.5 20c26 0 45.167 -9 57.5 -27s18.5 -38.667 18.5 -62c0 -38 -10.833 -71.333 -32.5 -100s-48.5 -50.334 -80.5 -65.001z" />
    <glyph glyph-name="kcommaaccent" unicode="&#x137;" horiz-adv-x="497" 
d="M47 0v716h107v-379h57c20 0 37.167 4 51.5 12s27.5 24 39.5 48l51 100h119l-60 -125c-9.33301 -19.333 -19.333 -35.666 -30 -48.999s-26 -23.666 -46 -30.999c14 -4.66699 25.667 -10.834 35 -18.501s17 -16.167 23 -25.5s11 -19.333 15 -30s7.66699 -21.334 11 -32.001
l62 -186h-118l-51 160c-9.33301 29.333 -21 49.333 -35 60s-34 16 -60 16h-64v-236h-107zM183 -250c16 11.333 28.667 22.335 38 33.002s15 25 17 43c-14.667 1.33301 -26.667 8 -36 20s-14 26.667 -14 44s6.5 32.666 19.5 45.999s29.167 20 48.5 20
c26 0 45.167 -9 57.5 -27s18.5 -38.667 18.5 -62c0 -38 -10.833 -71.333 -32.5 -100s-48.5 -50.334 -80.5 -65.001z" />
    <glyph glyph-name="kgreenlandic" unicode="&#x138;" horiz-adv-x="504" 
d="M50 0v496.002h106v-198h63c20 0 38 4 54 12s29.333 26.667 40 56l45 130h112l-51 -144c-8 -24 -17.5 -43.833 -28.5 -59.5s-26.167 -26.834 -45.5 -33.501c23.333 -6.66699 40.333 -18.5 51 -35.5s20 -37.833 28 -62.5l55 -161h-116l-41 134
c-4.66699 15.333 -10.167 27.666 -16.5 36.999s-13.5 16.5 -21.5 21.5s-16.833 8.33301 -26.5 10s-20.5 2.5 -32.5 2.5h-69v-205h-106z" />
    <glyph glyph-name="Lacute" unicode="&#x139;" horiz-adv-x="540" 
d="M64 0v689h113v-587h355v-102h-468zM77 787l168 130l60 -82l-190 -101z" />
    <glyph glyph-name="lacute" unicode="&#x13a;" horiz-adv-x="281" 
d="M181 145c0 -24 5 -39 15 -45s28.667 -9 56 -9l2 -92c-10 -2 -19.667 -3.33301 -29 -4s-18 -1 -26 -1c-26.667 0 -48 3.16699 -64 9.5s-28.5 15.333 -37.5 27s-15 25.667 -18 42s-4.5 34.833 -4.5 55.5v588h106v-571zM85 797l168 130l60 -82l-190 -101z" />
    <glyph glyph-name="Lcommaaccent" unicode="&#x13b;" horiz-adv-x="540" 
d="M64 0v689h113v-587h355v-102h-468zM217 -250c16 11.333 28.667 22.335 38 33.002s15 25 17 43c-14.667 1.33301 -26.667 8 -36 20s-14 26.667 -14 44s6.5 32.666 19.5 45.999s29.167 20 48.5 20c26 0 45.167 -9 57.5 -27s18.5 -38.667 18.5 -62
c0 -38 -10.833 -71.333 -32.5 -100s-48.5 -50.334 -80.5 -65.001z" />
    <glyph glyph-name="lcommaaccent" unicode="&#x13c;" horiz-adv-x="281" 
d="M181 145c0 -24 5 -39 15 -45s28.667 -9 56 -9l2 -92c-10 -2 -19.667 -3.33301 -29 -4s-18 -1 -26 -1c-26.667 0 -48 3.16699 -64 9.5s-28.5 15.333 -37.5 27s-15 25.667 -18 42s-4.5 34.833 -4.5 55.5v588h106v-571zM76 -249c16 11.333 28.667 22.335 38 33.002
s15 25 17 43c-14.667 1.33301 -26.667 8 -36 20s-14 26.667 -14 44s6.5 32.666 19.5 45.999s29.167 20 48.5 20c26 0 45.167 -9 57.5 -27s18.5 -38.667 18.5 -62c0 -38 -10.833 -71.333 -32.5 -100s-48.5 -50.334 -80.5 -65.001z" />
    <glyph glyph-name="Lcaron" unicode="&#x13d;" horiz-adv-x="540" 
d="M64 0v689h113v-587h355v-102h-468zM296 488c16 11.333 28.667 22.335 38 33.002s15 25 17 43c-14.667 1.33301 -26.667 8 -36 20s-14 26.667 -14 44s6.5 32.666 19.5 45.999s29.167 20 48.5 20c26 0 45.167 -9 57.5 -27s18.5 -38.667 18.5 -62
c0 -38 -10.833 -71.333 -32.5 -100s-48.5 -50.334 -80.5 -65.001z" />
    <glyph glyph-name="lcaron" unicode="&#x13e;" horiz-adv-x="368" 
d="M223 511c16 11.333 28.667 22.335 38 33.002s15 25 17 43c-14.667 1.33301 -26.667 8 -36 20s-14 26.667 -14 44s6.5 32.666 19.5 45.999s29.167 20 48.5 20c26 0 45.167 -9 57.5 -27s18.5 -38.667 18.5 -62c0 -38 -10.833 -71.333 -32.5 -100
s-48.5 -50.334 -80.5 -65.001zM181 145.002c0 -24 5 -39 15 -45s28.667 -9 56 -9l2 -92c-10 -2 -19.667 -3.33301 -29 -4s-18 -1 -26 -1c-26.667 0 -48 3.16699 -64 9.5s-28.5 15.333 -37.5 27s-15 25.667 -18 42s-4.5 34.833 -4.5 55.5v588h106v-571z" />
    <glyph glyph-name="Ldot" unicode="&#x13f;" horiz-adv-x="540" 
d="M64 0v689h113v-587h355v-102h-468zM358 297c-19.333 0 -34.667 6.16699 -46 18.5s-17 27.833 -17 46.5c0 16 5.66699 30.333 17 43s26.333 19 45 19c19.333 0 35 -6.33301 47 -19s18 -27 18 -43c0 -17.333 -5.66699 -32.5 -17 -45.5s-27 -19.5 -47 -19.5z" />
    <glyph glyph-name="ldot" unicode="&#x140;" horiz-adv-x="341" 
d="M290 317c-19.333 0 -34.667 6.16699 -46 18.5s-17 27.833 -17 46.5c0 16 5.66699 30.333 17 43s26.333 19 45 19c19.333 0 35 -6.33301 47 -19s18 -27 18 -43c0 -17.333 -5.66699 -32.5 -17 -45.5s-27 -19.5 -47 -19.5zM180.999 145c0 -24 5 -39 15 -45s28.667 -9 56 -9
l2 -92c-10 -2 -19.667 -3.33301 -29 -4s-18 -1 -26 -1c-26.667 0 -48 3.16699 -64 9.5s-28.5 15.333 -37.5 27s-15 25.667 -18 42s-4.5 34.833 -4.5 55.5v588h106v-571z" />
    <glyph glyph-name="Lslash" unicode="&#x141;" horiz-adv-x="540" 
d="M64 0v211l-38 -22l-39 68l77 45v387h113v-322l145 85l39 -68l-184 -107v-175h355v-102h-468z" />
    <glyph glyph-name="lslash" unicode="&#x142;" horiz-adv-x="302" 
d="M194 426l74 44l39 -67l-113 -67v-191c0 -24 5 -39 15 -45s28.667 -9 56 -9l2 -92c-10 -2 -19.667 -3.33301 -29 -4s-18 -1 -26 -1c-26.667 0 -48 3.16699 -64 9.5s-28.5 15.333 -37.5 27s-15 25.667 -18 42s-4.5 34.833 -4.5 55.5v145l-54 -32l-39 68l93 55v352h106v-290
z" />
    <glyph glyph-name="Nacute" unicode="&#x143;" horiz-adv-x="660" 
d="M173 473v-473h-114v689h106l205 -305l111 -171h6v476h114v-689h-107l-208 310l-106 163h-7zM266 787l168 130l60 -82l-190 -101z" />
    <glyph glyph-name="nacute" unicode="&#x144;" horiz-adv-x="513" 
d="M362 0v308.999c0 34 -7.33301 57.5 -22 70.5s-33 19.5 -55 19.5c-18 0 -38.333 -4.33301 -61 -13s-46.667 -21 -72 -37v-349h-106v495h96l10 -49c20 12 38.167 21.667 54.5 29s31 13 44 17s24.667 6.5 35 7.5s19.833 1.5 28.5 1.5c52 0 90.833 -15.667 116.5 -47
s38.5 -74.666 38.5 -129.999v-324h-107zM196 569.999l76 185l98 -31l-111 -178z" />
    <glyph glyph-name="Ncommaaccent" unicode="&#x145;" horiz-adv-x="660" 
d="M173 473v-473h-114v689h106l205 -305l111 -171h6v476h114v-689h-107l-208 310l-106 163h-7zM263 -230c16 11.333 28.667 22.335 38 33.002s15 25 17 43c-14.667 1.33301 -26.667 8 -36 20s-14 26.667 -14 44s6.5 32.666 19.5 45.999s29.167 20 48.5 20
c26 0 45.167 -9 57.5 -27s18.5 -38.667 18.5 -62c0 -38 -10.833 -71.333 -32.5 -100s-48.5 -50.334 -80.5 -65.001z" />
    <glyph glyph-name="ncommaaccent" unicode="&#x146;" horiz-adv-x="513" 
d="M362 0v308.999c0 34 -7.33301 57.5 -22 70.5s-33 19.5 -55 19.5c-18 0 -38.333 -4.33301 -61 -13s-46.667 -21 -72 -37v-349h-106v495h96l10 -49c20 12 38.167 21.667 54.5 29s31 13 44 17s24.667 6.5 35 7.5s19.833 1.5 28.5 1.5c52 0 90.833 -15.667 116.5 -47
s38.5 -74.666 38.5 -129.999v-324h-107zM182 -250.001c16 11.333 28.667 22.335 38 33.002s15 25 17 43c-14.667 1.33301 -26.667 8 -36 20s-14 26.667 -14 44s6.5 32.666 19.5 45.999s29.167 20 48.5 20c26 0 45.167 -9 57.5 -27s18.5 -38.667 18.5 -62
c0 -38 -10.833 -71.333 -32.5 -100s-48.5 -50.334 -80.5 -65.001z" />
    <glyph glyph-name="Ncaron" unicode="&#x147;" horiz-adv-x="660" 
d="M173 473v-473h-114v689h106l205 -305l111 -171h6v476h114v-689h-107l-208 310l-106 163h-7zM469 908l37 -46l-145 -124h-68l-150 126l35 44l146 -84z" />
    <glyph glyph-name="ncaron" unicode="&#x148;" horiz-adv-x="513" 
d="M362 0v308.999c0 34 -7.33301 57.5 -22 70.5s-33 19.5 -55 19.5c-18 0 -38.333 -4.33301 -61 -13s-46.667 -21 -72 -37v-349h-106v495h96l10 -49c20 12 38.167 21.667 54.5 29s31 13 44 17s24.667 6.5 35 7.5s19.833 1.5 28.5 1.5c52 0 90.833 -15.667 116.5 -47
s38.5 -74.666 38.5 -129.999v-324h-107zM376 736.999l46 -42l-145 -153h-70l-149 154l44 41c4 -2.66699 12.667 -9 26 -19l43 -33l43 -33.5c13.333 -10.333 22 -16.833 26 -19.5z" />
    <glyph glyph-name="napostrophe" unicode="&#x149;" horiz-adv-x="618" 
d="M467 0v308.999c0 34 -7.33301 57.5 -22 70.5s-33 19.5 -55 19.5c-18 0 -38.333 -4.33301 -61 -13s-46.667 -21 -72 -37v-349h-106v495h96l10 -49c20 12 38.167 21.667 54.5 29s31 13 44 17s24.667 6.5 35 7.5s19.833 1.5 28.5 1.5c52 0 90.833 -15.667 116.5 -47
s38.5 -74.666 38.5 -129.999v-324h-107zM-13 476.999c16 11.333 28.667 22.335 38 33.002s15 25 17 43c-14.667 1.33301 -26.667 8 -36 20s-14 26.667 -14 44s6.5 32.666 19.5 45.999s29.167 20 48.5 20c26 0 45.167 -9 57.5 -27s18.5 -38.667 18.5 -62
c0 -38 -10.833 -71.333 -32.5 -100s-48.5 -50.334 -80.5 -65.001z" />
    <glyph glyph-name="Eng" unicode="&#x14a;" horiz-adv-x="660" 
d="M173 473v-473h-114v689h106l205 -305l111 -171h6v476h114l-1 -761c0 -20 -3 -37 -9 -51s-14.167 -25.5 -24.5 -34.5s-22.333 -15.5 -36 -19.5s-28.167 -6 -43.5 -6c-32.667 0 -65.667 7.33301 -99 22l24 80c8 -2 15.5 -3.66699 22.5 -5s13.167 -2 18.5 -2
c27.333 0 41 15.667 41 47v42l-208 309l-106 163h-7z" />
    <glyph glyph-name="eng" unicode="&#x14b;" horiz-adv-x="513" 
d="M469 -72c0 -20 -3.00098 -37.001 -9.00098 -51.001s-14.167 -25.5 -24.5 -34.5s-22.5 -15.5 -36.5 -19.5s-28.667 -6 -44 -6c-31.333 0 -64.333 7.33301 -99 22l24 80c8.66699 -2 16.334 -3.66699 23.001 -5s12.667 -2 18 -2c27.333 0 41 15.667 41 47v350
c0 34 -7.33301 57.5 -22 70.5s-33 19.5 -55 19.5c-18 0 -38.333 -4.33301 -61 -13s-46.667 -21 -72 -37v-349h-106v495h94l10 -49c40 24.667 73 40 99 46s47.667 9 65 9c52 0 90.833 -15.667 116.5 -47s38.5 -74.666 38.5 -129.999v-396v0z" />
    <glyph glyph-name="Omacron" unicode="&#x14c;" horiz-adv-x="625" 
d="M572 223c0 -36 -6.66602 -68.332 -19.999 -96.999s-31.833 -52.834 -55.5 -72.501s-51.334 -34.667 -83.001 -45s-65.5 -15.5 -101.5 -15.5c-36.667 0 -70.834 5.16699 -102.501 15.5s-59 25.333 -82 45s-41.167 43.834 -54.5 72.501s-20 61 -20 97v245
c0 36 6.83301 68 20.5 96s32.167 51.833 55.5 71.5s50.666 34.667 81.999 45s65 15.5 101 15.5c35.333 0 68.833 -5.33301 100.5 -16s59.334 -25.834 83.001 -45.501s42.334 -43.667 56.001 -72s20.5 -60.5 20.5 -96.5v-243zM457.001 449.001c0 24.667 -4 46 -12 64
s-18.667 32.833 -32 44.5s-28.833 20.167 -46.5 25.5s-35.834 8 -54.501 8c-19.333 0 -37.666 -2.66699 -54.999 -8s-32.5 -13.833 -45.5 -25.5s-23.5 -26.5 -31.5 -44.5s-12 -39.333 -12 -64v-209c0 -25.333 4 -47 12 -65s18.667 -32.667 32 -44
s28.666 -19.666 45.999 -24.999s35.333 -8 54 -8s36.834 2.66699 54.501 8s33.167 13.666 46.5 24.999s24 26 32 44s12 39.667 12 65v209zM168.001 773.001v89h289v-89h-289z" />
    <glyph glyph-name="omacron" unicode="&#x14d;" horiz-adv-x="512" 
d="M466 175c0 -29.333 -5.83203 -55.332 -17.499 -77.999s-27.334 -41.5 -47.001 -56.5s-42.167 -26.333 -67.5 -34s-51.666 -11.5 -78.999 -11.5c-28 0 -54.833 3.83301 -80.5 11.5s-48 19 -67 34s-34.167 33.833 -45.5 56.5s-17 48.667 -17 78v144
c0 29.333 5.83301 55.333 17.5 78s27.167 41.667 46.5 57s41.666 27 66.999 35s52 12 80 12c30 0 57.667 -4 83 -12s47.5 -19.833 66.5 -35.5s33.833 -34.834 44.5 -57.501s16 -48.667 16 -78v-143zM361.001 300.001c0 18.667 -3.16797 34.499 -9.50098 47.499
s-14.5 23.5 -24.5 31.5s-21.333 13.833 -34 17.5s-25 5.5 -37 5.5s-24.333 -1.83301 -37 -5.5s-24 -9.5 -34 -17.5s-18.167 -18.5 -24.5 -31.5s-9.5 -28.833 -9.5 -47.5v-105c0 -37.333 10.333 -63.666 31 -78.999s45.334 -23 74.001 -23c12 0 24.333 1.83301 37 5.5
s24 9.5 34 17.5s18.167 18.5 24.5 31.5s9.5 28.833 9.5 47.5v105zM111 593v89h290v-89h-290z" />
    <glyph glyph-name="Obreve" unicode="&#x14e;" horiz-adv-x="625" 
d="M572 223c0 -36 -6.66602 -68.332 -19.999 -96.999s-31.833 -52.834 -55.5 -72.501s-51.334 -34.667 -83.001 -45s-65.5 -15.5 -101.5 -15.5c-36.667 0 -70.834 5.16699 -102.501 15.5s-59 25.333 -82 45s-41.167 43.834 -54.5 72.501s-20 61 -20 97v245
c0 36 6.83301 68 20.5 96s32.167 51.833 55.5 71.5s50.666 34.667 81.999 45s65 15.5 101 15.5c35.333 0 68.833 -5.33301 100.5 -16s59.334 -25.834 83.001 -45.501s42.334 -43.667 56.001 -72s20.5 -60.5 20.5 -96.5v-243zM457.001 449.001c0 24.667 -4 46 -12 64
s-18.667 32.833 -32 44.5s-28.833 20.167 -46.5 25.5s-35.834 8 -54.501 8c-19.333 0 -37.666 -2.66699 -54.999 -8s-32.5 -13.833 -45.5 -25.5s-23.5 -26.5 -31.5 -44.5s-12 -39.333 -12 -64v-209c0 -25.333 4 -47 12 -65s18.667 -32.667 32 -44
s28.666 -19.666 45.999 -24.999s35.333 -8 54 -8s36.834 2.66699 54.501 8s33.167 13.666 46.5 24.999s24 26 32 44s12 39.667 12 65v209zM315.001 731.001c-28 0 -51.168 4.66699 -69.501 14s-33.333 21 -45 35s-20 29.167 -25 45.5s-7.83301 31.5 -8.5 45.5h82
c0.666992 -6.66699 2.5 -13.834 5.5 -21.501s7.33301 -14.667 13 -21s12.5 -11.666 20.5 -15.999s17 -6.5 27 -6.5c11.333 0 21.166 2.16699 29.499 6.5s15.333 9.66602 21 15.999s9.83398 13.333 12.501 21s4 14.834 4 21.501h81
c-1.33301 -14 -4.66602 -29.167 -9.99902 -45.5s-13.5 -31.5 -24.5 -45.5s-25.667 -25.667 -44 -35s-41.5 -14 -69.5 -14z" />
    <glyph glyph-name="obreve" unicode="&#x14f;" horiz-adv-x="512" 
d="M466 175c0 -29.333 -5.83203 -55.332 -17.499 -77.999s-27.334 -41.5 -47.001 -56.5s-42.167 -26.333 -67.5 -34s-51.666 -11.5 -78.999 -11.5c-28 0 -54.833 3.83301 -80.5 11.5s-48 19 -67 34s-34.167 33.833 -45.5 56.5s-17 48.667 -17 78v144
c0 29.333 5.83301 55.333 17.5 78s27.167 41.667 46.5 57s41.666 27 66.999 35s52 12 80 12c30 0 57.667 -4 83 -12s47.5 -19.833 66.5 -35.5s33.833 -34.834 44.5 -57.501s16 -48.667 16 -78v-143zM361.001 300.001c0 18.667 -3.16797 34.499 -9.50098 47.499
s-14.5 23.5 -24.5 31.5s-21.333 13.833 -34 17.5s-25 5.5 -37 5.5s-24.333 -1.83301 -37 -5.5s-24 -9.5 -34 -17.5s-18.167 -18.5 -24.5 -31.5s-9.5 -28.833 -9.5 -47.5v-105c0 -37.333 10.333 -63.666 31 -78.999s45.334 -23 74.001 -23c12 0 24.333 1.83301 37 5.5
s24 9.5 34 17.5s18.167 18.5 24.5 31.5s9.5 28.833 9.5 47.5v105zM258 566c-28 0 -51.168 4.66699 -69.501 14s-33.333 21 -45 35s-20 29 -25 45s-7.83301 31 -8.5 45h82c0.666992 -6.66699 2.5 -13.667 5.5 -21s7.33301 -14.166 13 -20.499s12.5 -11.666 20.5 -15.999
s17 -6.5 27 -6.5c11.333 0 21.166 2.16699 29.499 6.5s15.333 9.66602 21 15.999s9.83398 13.166 12.501 20.499s4 14.333 4 21h81c-1.33301 -14 -4.66602 -29 -9.99902 -45s-13.5 -31 -24.5 -45s-25.667 -25.667 -44 -35s-41.5 -14 -69.5 -14z" />
    <glyph glyph-name="Ohungarumlaut" unicode="&#x150;" horiz-adv-x="625" 
d="M572 223c0 -36 -6.66602 -68.332 -19.999 -96.999s-31.833 -52.834 -55.5 -72.501s-51.334 -34.667 -83.001 -45s-65.5 -15.5 -101.5 -15.5c-36.667 0 -70.834 5.16699 -102.501 15.5s-59 25.333 -82 45s-41.167 43.834 -54.5 72.501s-20 61 -20 97v245
c0 36 6.83301 68 20.5 96s32.167 51.833 55.5 71.5s50.666 34.667 81.999 45s65 15.5 101 15.5c35.333 0 68.833 -5.33301 100.5 -16s59.334 -25.834 83.001 -45.501s42.334 -43.667 56.001 -72s20.5 -60.5 20.5 -96.5v-243zM457.001 449.001c0 24.667 -4 46 -12 64
s-18.667 32.833 -32 44.5s-28.833 20.167 -46.5 25.5s-35.834 8 -54.501 8c-19.333 0 -37.666 -2.66699 -54.999 -8s-32.5 -13.833 -45.5 -25.5s-23.5 -26.5 -31.5 -44.5s-12 -39.333 -12 -64v-209c0 -25.333 4 -47 12 -65s18.667 -32.667 32 -44
s28.666 -19.666 45.999 -24.999s35.333 -8 54 -8s36.834 2.66699 54.501 8s33.167 13.666 46.5 24.999s24 26 32 44s12 39.667 12 65v209zM159.001 781.001l152 132l74 -72l-180 -108zM334.001 781.001l152 132l74 -72l-180 -108z" />
    <glyph glyph-name="ohungarumlaut" unicode="&#x151;" horiz-adv-x="512" 
d="M466 175c0 -29.333 -5.83203 -55.332 -17.499 -77.999s-27.334 -41.5 -47.001 -56.5s-42.167 -26.333 -67.5 -34s-51.666 -11.5 -78.999 -11.5c-28 0 -54.833 3.83301 -80.5 11.5s-48 19 -67 34s-34.167 33.833 -45.5 56.5s-17 48.667 -17 78v144
c0 29.333 5.83301 55.333 17.5 78s27.167 41.667 46.5 57s41.666 27 66.999 35s52 12 80 12c30 0 57.667 -4 83 -12s47.5 -19.833 66.5 -35.5s33.833 -34.834 44.5 -57.501s16 -48.667 16 -78v-143zM361.001 300.001c0 18.667 -3.16797 34.499 -9.50098 47.499
s-14.5 23.5 -24.5 31.5s-21.333 13.833 -34 17.5s-25 5.5 -37 5.5s-24.333 -1.83301 -37 -5.5s-24 -9.5 -34 -17.5s-18.167 -18.5 -24.5 -31.5s-9.5 -28.833 -9.5 -47.5v-105c0 -37.333 10.333 -63.666 31 -78.999s45.334 -23 74.001 -23c12 0 24.333 1.83301 37 5.5
s24 9.5 34 17.5s18.167 18.5 24.5 31.5s9.5 28.833 9.5 47.5v105zM141 570l76 185l98 -31l-111 -178zM289 570l77 185l98 -31l-112 -178z" />
    <glyph glyph-name="OE" unicode="&#x152;" horiz-adv-x="894" 
d="M312 696c13.333 0 26.335 -0.500977 39.002 -1.50098s25 -2.83301 37 -5.5h467v-103h-353v-189h302v-103h-302v-192h353v-102h-466c-23.333 -4.66699 -49 -7 -77 -7c-36.667 0 -70.834 5.16699 -102.501 15.5s-59 25.333 -82 45s-41.167 43.834 -54.5 72.501
s-20 61 -20 97v245c0 36 6.83301 68 20.5 96s32.167 51.833 55.5 71.5s50.666 34.667 81.999 45s65 15.5 101 15.5zM312.002 97.999c13.333 0 26.5 0.999023 39.5 2.99902s25.167 6 36.5 12v462c-11.333 6 -23.5 10.167 -36.5 12.5s-26.167 3.5 -39.5 3.5
c-19.333 0 -37.666 -2.66699 -54.999 -8s-32.5 -13.833 -45.5 -25.5s-23.5 -26.5 -31.5 -44.5s-12 -39.333 -12 -64v-209c0 -25.333 4 -47 12 -65s18.667 -32.667 32 -44s28.666 -19.666 45.999 -24.999s35.333 -8 54 -8z" />
    <glyph glyph-name="oe" unicode="&#x153;" horiz-adv-x="812" 
d="M468 213l0.00195312 -25.001c0 -18 3.33301 -33.167 10 -45.5s15.334 -22.166 26.001 -29.499s23 -12.666 37 -15.999s28.667 -5 44 -5s32.833 3.16699 52.5 9.5s39.167 17.833 58.5 34.5c10 -12.667 20.167 -24.834 30.5 -36.501l31.5 -36.5
c-28 -27.333 -57.5 -45.5 -88.5 -54.5s-62.167 -13.5 -93.5 -13.5c-32 0 -62.167 4.5 -90.5 13.5s-52.166 23.167 -71.499 42.5c-19.333 -18.667 -42.833 -32.667 -70.5 -42s-56.834 -14 -87.501 -14c-28.667 0 -55.667 3.83301 -81 11.5s-47.5 19 -66.5 34
s-34.167 33.833 -45.5 56.5s-17 48.667 -17 78v144c0 29.333 5.66699 55.333 17 78s26.666 41.667 45.999 57s41.666 27 66.999 35s52 12 80 12c33.333 0 63.666 -5 90.999 -15s50.333 -24.333 69 -43c18.667 18 41 32 67 42s54.333 15 85 15c30 0 57.5 -4.33301 82.5 -13
s46.667 -21.334 65 -38.001s32.5 -36.667 42.5 -60s15 -49.666 15 -78.999v-97h-305zM362.002 301.999c-0.666992 18.667 -4.16895 34.332 -10.502 46.999s-14.5 23 -24.5 31s-21.167 13.667 -33.5 17s-24.5 5 -36.5 5s-24.333 -1.83301 -37 -5.5s-24 -9.5 -34 -17.5
s-18.167 -18.5 -24.5 -31.5s-9.5 -28.833 -9.5 -47.5v-105c0 -37.333 10.333 -63.666 31 -78.999s45.334 -23 74.001 -23c12 0 24 1.66699 36 5s23 8.83301 33 16.5s18.333 17.667 25 30s10.334 27.5 11.001 45.5v112zM666 303.997c0 34.667 -9.66699 59.832 -29 75.499
s-42.333 23.5 -69 23.5c-28 0 -51.5 -8.66699 -70.5 -26s-28.5 -43.666 -28.5 -78.999v-9h197v15z" />
    <glyph glyph-name="Racute" unicode="&#x154;" horiz-adv-x="583" 
d="M354 689c34.667 0 64.333 -6.33203 89 -18.999s45 -29.167 61 -49.5s27.833 -43 35.5 -68s11.5 -49.833 11.5 -74.5c0 -18.667 -2.66699 -37.5 -8 -56.5s-13 -37 -23 -54s-22.167 -32.333 -36.5 -46s-30.833 -24.834 -49.5 -33.501l126 -288h-124l-113 268h-151v-268
h-115v689h297zM438.999 478.001c0 32 -9.83301 57.833 -29.5 77.5s-46.5 29.5 -80.5 29.5h-157v-213h157c34 0 60.833 9.66699 80.5 29s29.5 45 29.5 77zM223.999 787.001l168 130l60 -82l-190 -101z" />
    <glyph glyph-name="racute" unicode="&#x155;" horiz-adv-x="356" 
d="M349 391c-44 -4 -80.501 -11.333 -109.501 -22s-53.167 -22 -72.5 -34v-335h-106v496h96l9 -73h1c8.66699 8.66699 19.834 17.667 33.501 27s28.667 17.833 45 25.5s33.333 14 51 19s35.167 7.5 52.5 7.5v-111zM124.999 570l76 185l98 -31l-111 -178z" />
    <glyph glyph-name="Rcommaaccent" unicode="&#x156;" horiz-adv-x="583" 
d="M354 689c34.667 0 64.333 -6.33203 89 -18.999s45 -29.167 61 -49.5s27.833 -43 35.5 -68s11.5 -49.833 11.5 -74.5c0 -18.667 -2.66699 -37.5 -8 -56.5s-13 -37 -23 -54s-22.167 -32.333 -36.5 -46s-30.833 -24.834 -49.5 -33.501l126 -288h-124l-113 268h-151v-268
h-115v689h297zM438.999 478.001c0 32 -9.83301 57.833 -29.5 77.5s-46.5 29.5 -80.5 29.5h-157v-213h157c34 0 60.833 9.66699 80.5 29s29.5 45 29.5 77zM217.999 -229.999c16 11.333 28.667 22.335 38 33.002s15 25 17 43c-14.667 1.33301 -26.667 8 -36 20
s-14 26.667 -14 44s6.5 32.666 19.5 45.999s29.167 20 48.5 20c26 0 45.167 -9 57.5 -27s18.5 -38.667 18.5 -62c0 -38 -10.833 -71.333 -32.5 -100s-48.5 -50.334 -80.5 -65.001z" />
    <glyph glyph-name="rcommaaccent" unicode="&#x157;" horiz-adv-x="356" 
d="M349 391c-44 -4 -80.501 -11.333 -109.501 -22s-53.167 -22 -72.5 -34v-335h-106v496h96l9 -73h1c8.66699 8.66699 19.834 17.667 33.501 27s28.667 17.833 45 25.5s33.333 14 51 19s35.167 7.5 52.5 7.5v-111zM36.999 -250c16 11.333 28.667 22.335 38 33.002
s15 25 17 43c-14.667 1.33301 -26.667 8 -36 20s-14 26.667 -14 44s6.5 32.666 19.5 45.999s29.167 20 48.5 20c26 0 45.167 -9 57.5 -27s18.5 -38.667 18.5 -62c0 -38 -10.833 -71.333 -32.5 -100s-48.5 -50.334 -80.5 -65.001z" />
    <glyph glyph-name="Rcaron" unicode="&#x158;" horiz-adv-x="583" 
d="M354 689c34.667 0 64.333 -6.33203 89 -18.999s45 -29.167 61 -49.5s27.833 -43 35.5 -68s11.5 -49.833 11.5 -74.5c0 -18.667 -2.66699 -37.5 -8 -56.5s-13 -37 -23 -54s-22.167 -32.333 -36.5 -46s-30.833 -24.834 -49.5 -33.501l126 -288h-124l-113 268h-151v-268
h-115v689h297zM438.999 478.001c0 32 -9.83301 57.833 -29.5 77.5s-46.5 29.5 -80.5 29.5h-157v-213h157c34 0 60.833 9.66699 80.5 29s29.5 45 29.5 77zM420.999 908.001l37 -46l-145 -124h-68l-150 126l35 44l146 -84z" />
    <glyph glyph-name="rcaron" unicode="&#x159;" horiz-adv-x="356" 
d="M349 391c-44 -4 -80.501 -11.333 -109.501 -22s-53.167 -22 -72.5 -34v-335h-106v496h96l9 -73h1c8.66699 8.66699 19.834 17.667 33.501 27s28.667 17.833 45 25.5s33.333 14 51 19s35.167 7.5 52.5 7.5v-111zM311.999 737l46 -42l-145 -153h-70l-149 154l44 41
c4 -2.66699 12.667 -9 26 -19l43 -33l43 -33.5c13.333 -10.333 22 -16.833 26 -19.5z" />
    <glyph glyph-name="Sacute" unicode="&#x15a;" horiz-adv-x="577" 
d="M545 195c0 -32 -6.33203 -60.502 -18.999 -85.502s-30.167 -46 -52.5 -63s-49.166 -30 -80.499 -39s-65.333 -13.5 -102 -13.5c-48.667 0 -94.5 6.83301 -137.5 20.5s-84.5 36.834 -124.5 69.501l64 83c30 -22 61.833 -39.167 95.5 -51.5s67.5 -18.5 101.5 -18.5
c45.333 0 79.166 9.16699 101.499 27.5s33.5 41.5 33.5 69.5c0 19.333 -4.5 35 -13.5 47s-21.167 22 -36.5 30s-32.833 14.333 -52.5 19l-61.5 15c-26.667 6 -52.5 13.667 -77.5 23s-47 21.5 -66 36.5s-34.333 33.333 -46 55s-17.5 48.167 -17.5 79.5
c0 29.333 5.33301 56.333 16 81s26 46 46 64s44 32.167 72 42.5s59.333 15.5 94 15.5c41.333 0 82.166 -4.16699 122.499 -12.5s78.833 -24.166 115.5 -47.499l-51 -94c-30.667 18.667 -61.167 31.667 -91.5 39s-60.166 11 -89.499 11c-16 0 -31.167 -2 -45.5 -6
s-27 -10 -38 -18s-19.833 -18.167 -26.5 -30.5s-10 -26.833 -10 -43.5s4.33301 -30.667 13 -42s20.167 -20.833 34.5 -28.5s30.666 -14 48.999 -19s37.5 -9.5 57.5 -13.5c32.667 -7.33301 62.667 -16 90 -26s50.833 -22.833 70.5 -38.5s35 -34.5 46 -56.5s16.5 -49 16.5 -81
zM220.001 786.998l168 130l60 -82l-190 -101z" />
    <glyph glyph-name="sacute" unicode="&#x15b;" horiz-adv-x="460" 
d="M232 -6c-36 0 -71 4.33203 -105 12.999s-69 27.334 -105 56.001l58 77c24.667 -20.667 49.667 -34.834 75 -42.501s52 -11.5 80 -11.5c23.333 0 44.166 5 62.499 15s27.5 25.333 27.5 46c0 17.333 -6 30.166 -18 38.499s-29.667 14.5 -53 18.5
c-24 4 -48.333 8.5 -73 13.5s-47 12.5 -67 22.5s-36.333 23.5 -49 40.5s-19 39.5 -19 67.5c0 24 5 45.5 15 64.5s23.5 35 40.5 48s36.5 23 58.5 30s45.333 10.5 70 10.5c38 0 72.167 -3.83301 102.5 -11.5s60.166 -22.167 89.499 -43.5l-52 -79
c-24 15.333 -47.333 25.833 -70 31.5s-45.667 8.5 -69 8.5c-25.333 0 -45.166 -5.66699 -59.499 -17s-21.5 -24.666 -21.5 -39.999s7 -26.5 21 -33.5s31.5 -12.667 52.5 -17l68.5 -13.5c24.667 -4.66699 47.5 -12 68.5 -22s38.5 -24.167 52.5 -42.5s21 -43.166 21 -74.499
c0 -24 -5.16699 -45.5 -15.5 -64.5s-24.666 -35 -42.999 -48s-39.833 -23 -64.5 -30s-51 -10.5 -79 -10.5zM187 569.999l76 185l98 -31l-111 -178z" />
    <glyph glyph-name="Scircumflex" unicode="&#x15c;" horiz-adv-x="577" 
d="M545 195c0 -32 -6.33203 -60.502 -18.999 -85.502s-30.167 -46 -52.5 -63s-49.166 -30 -80.499 -39s-65.333 -13.5 -102 -13.5c-48.667 0 -94.5 6.83301 -137.5 20.5s-84.5 36.834 -124.5 69.501l64 83c30 -22 61.833 -39.167 95.5 -51.5s67.5 -18.5 101.5 -18.5
c45.333 0 79.166 9.16699 101.499 27.5s33.5 41.5 33.5 69.5c0 19.333 -4.5 35 -13.5 47s-21.167 22 -36.5 30s-32.833 14.333 -52.5 19l-61.5 15c-26.667 6 -52.5 13.667 -77.5 23s-47 21.5 -66 36.5s-34.333 33.333 -46 55s-17.5 48.167 -17.5 79.5
c0 29.333 5.33301 56.333 16 81s26 46 46 64s44 32.167 72 42.5s59.333 15.5 94 15.5c41.333 0 82.166 -4.16699 122.499 -12.5s78.833 -24.166 115.5 -47.499l-51 -94c-30.667 18.667 -61.167 31.667 -91.5 39s-60.166 11 -89.499 11c-16 0 -31.167 -2 -45.5 -6
s-27 -10 -38 -18s-19.833 -18.167 -26.5 -30.5s-10 -26.833 -10 -43.5s4.33301 -30.667 13 -42s20.167 -20.833 34.5 -28.5s30.666 -14 48.999 -19s37.5 -9.5 57.5 -13.5c32.667 -7.33301 62.667 -16 90 -26s50.833 -22.833 70.5 -38.5s35 -34.5 46 -56.5s16.5 -49 16.5 -81
zM291.001 818.998l-146 -84l-36 45l150 125h68l146 -124l-37 -46z" />
    <glyph glyph-name="scircumflex" unicode="&#x15d;" horiz-adv-x="460" 
d="M232 -6c-36 0 -71 4.33203 -105 12.999s-69 27.334 -105 56.001l58 77c24.667 -20.667 49.667 -34.834 75 -42.501s52 -11.5 80 -11.5c23.333 0 44.166 5 62.499 15s27.5 25.333 27.5 46c0 17.333 -6 30.166 -18 38.499s-29.667 14.5 -53 18.5
c-24 4 -48.333 8.5 -73 13.5s-47 12.5 -67 22.5s-36.333 23.5 -49 40.5s-19 39.5 -19 67.5c0 24 5 45.5 15 64.5s23.5 35 40.5 48s36.5 23 58.5 30s45.333 10.5 70 10.5c38 0 72.167 -3.83301 102.5 -11.5s60.166 -22.167 89.499 -43.5l-52 -79
c-24 15.333 -47.333 25.833 -70 31.5s-45.667 8.5 -69 8.5c-25.333 0 -45.166 -5.66699 -59.499 -17s-21.5 -24.666 -21.5 -39.999s7 -26.5 21 -33.5s31.5 -12.667 52.5 -17l68.5 -13.5c24.667 -4.66699 47.5 -12 68.5 -22s38.5 -24.167 52.5 -42.5s21 -43.166 21 -74.499
c0 -24 -5.16699 -45.5 -15.5 -64.5s-24.666 -35 -42.999 -48s-39.833 -23 -64.5 -30s-51 -10.5 -79 -10.5zM238 647.999c-4 -2.66699 -12.667 -9.16699 -26 -19.5l-43 -33.5l-43 -33.5c-13.333 -10.333 -22 -16.833 -26 -19.5l-44 41l149 154h70l145 -152l-46 -43z" />
    <glyph glyph-name="Scedilla" unicode="&#x15e;" horiz-adv-x="577" 
d="M545 195c0 -31.333 -5.83105 -59.1699 -17.498 -83.5029s-28.167 -45 -49.5 -62s-46.666 -30.167 -75.999 -39.5s-61.666 -14.666 -96.999 -15.999l-10 -32c18.667 -1.33301 34.334 -4.83301 47.001 -10.5s22.834 -12.667 30.501 -21s13.167 -17.166 16.5 -26.499
s5 -18.333 5 -27c0 -10 -2.16699 -20 -6.5 -30s-10.833 -19.333 -19.5 -28s-19.834 -15.667 -33.501 -21s-29.834 -8 -48.501 -8c-15.333 0 -32 1.5 -50 4.5s-35 8.16699 -51 15.5c3.33301 8 6.5 16 9.5 24l9.5 25c15.333 -6 29.166 -9.83301 41.499 -11.5
s23.5 -2.5 33.5 -2.5c13.333 0 24.333 3 33 9s13 14.333 13 25c0 8.66699 -3.33301 16.667 -10 24s-17.667 11 -33 11c-2.66699 0 -5.16699 -0.166992 -7.5 -0.5s-5.16602 -0.833008 -8.49902 -1.5l-34 18l10 33l10 32c-40.667 3.33301 -79.334 12 -116.001 26
s-72.334 35 -107.001 63l64 83c30 -22 61.833 -39.167 95.5 -51.5s67.5 -18.5 101.5 -18.5c45.333 0 79.166 9.16699 101.499 27.5s33.5 41.5 33.5 69.5c0 19.333 -4.5 35 -13.5 47s-21.167 22 -36.5 30s-32.833 14.333 -52.5 19l-61.5 15c-26.667 6 -52.5 13.667 -77.5 23
s-47 21.5 -66 36.5s-34.333 33.333 -46 55s-17.5 48.167 -17.5 79.5c0 29.333 5.33301 56.333 16 81s26 46 46 64s44 32.167 72 42.5s59.333 15.5 94 15.5c41.333 0 82.166 -4.16699 122.499 -12.5s78.833 -24.166 115.5 -47.499l-51 -94
c-30.667 18.667 -61.167 31.667 -91.5 39s-60.166 11 -89.499 11c-16 0 -31.167 -2 -45.5 -6s-27 -10 -38 -18s-19.833 -18.167 -26.5 -30.5s-10 -26.833 -10 -43.5s4.33301 -30.667 13 -42s20.167 -20.833 34.5 -28.5s30.666 -14 48.999 -19s37.5 -9.5 57.5 -13.5
c32.667 -7.33301 62.667 -16 90 -26s50.833 -22.833 70.5 -38.5s35 -34.5 46 -56.5s16.5 -49 16.5 -81z" />
    <glyph glyph-name="scedilla" unicode="&#x15f;" horiz-adv-x="460" 
d="M434 147c0 -22.667 -4.66699 -43.001 -14 -61.001s-22.166 -33.5 -38.499 -46.5s-35.5 -23.333 -57.5 -31s-46 -12.167 -72 -13.5l-10 -33c18.667 -1.33301 34.334 -4.83301 47.001 -10.5s22.834 -12.667 30.501 -21s13.167 -17.166 16.5 -26.499s5 -18.333 5 -27
c0 -10 -2.16699 -20 -6.5 -30s-10.833 -19.333 -19.5 -28s-19.834 -15.667 -33.501 -21s-29.834 -8 -48.501 -8c-15.333 0 -32 1.5 -50 4.5s-35 8.16699 -51 15.5c3.33301 8 6.5 16 9.5 24l9.5 25c15.333 -6 29.166 -9.83301 41.499 -11.5s23.5 -2.5 33.5 -2.5
c13.333 0 24.333 3 33 9s13 14.333 13 25c0 8.66699 -3.33301 16.667 -10 24s-17.667 11 -33 11c-2.66699 0 -5.16699 -0.166992 -7.5 -0.5s-5.16602 -0.833008 -8.49902 -1.5l-34 18l10 33l10 32c-30 2 -59.5 7.83301 -88.5 17.5s-58.5 26.5 -88.5 50.5l58 77
c24.667 -20.667 49.667 -34.834 75 -42.501s52 -11.5 80 -11.5c23.333 0 44.166 5 62.499 15s27.5 25.333 27.5 46c0 17.333 -6 30.166 -18 38.499s-29.667 14.5 -53 18.5c-24 4 -48.333 8.5 -73 13.5s-47 12.5 -67 22.5s-36.333 23.5 -49 40.5s-19 39.5 -19 67.5
c0 24 5 45.5 15 64.5s23.5 35 40.5 48s36.5 23 58.5 30s45.333 10.5 70 10.5c38 0 72.167 -3.83301 102.5 -11.5s60.166 -22.167 89.499 -43.5l-52 -79c-24 15.333 -47.333 25.833 -70 31.5s-45.667 8.5 -69 8.5c-25.333 0 -45.166 -5.66699 -59.499 -17
s-21.5 -24.666 -21.5 -39.999s7 -26.5 21 -33.5s31.5 -12.667 52.5 -17l68.5 -13.5c24.667 -4.66699 47.5 -12 68.5 -22s38.5 -24.167 52.5 -42.5s21 -43.166 21 -74.499z" />
    <glyph glyph-name="Scaron" unicode="&#x160;" horiz-adv-x="577" 
d="M545 195c0 -32 -6.33203 -60.502 -18.999 -85.502s-30.167 -46 -52.5 -63s-49.166 -30 -80.499 -39s-65.333 -13.5 -102 -13.5c-48.667 0 -94.5 6.83301 -137.5 20.5s-84.5 36.834 -124.5 69.501l64 83c30 -22 61.833 -39.167 95.5 -51.5s67.5 -18.5 101.5 -18.5
c45.333 0 79.166 9.16699 101.499 27.5s33.5 41.5 33.5 69.5c0 19.333 -4.5 35 -13.5 47s-21.167 22 -36.5 30s-32.833 14.333 -52.5 19l-61.5 15c-26.667 6 -52.5 13.667 -77.5 23s-47 21.5 -66 36.5s-34.333 33.333 -46 55s-17.5 48.167 -17.5 79.5
c0 29.333 5.33301 56.333 16 81s26 46 46 64s44 32.167 72 42.5s59.333 15.5 94 15.5c41.333 0 82.166 -4.16699 122.499 -12.5s78.833 -24.166 115.5 -47.499l-51 -94c-30.667 18.667 -61.167 31.667 -91.5 39s-60.166 11 -89.499 11c-16 0 -31.167 -2 -45.5 -6
s-27 -10 -38 -18s-19.833 -18.167 -26.5 -30.5s-10 -26.833 -10 -43.5s4.33301 -30.667 13 -42s20.167 -20.833 34.5 -28.5s30.666 -14 48.999 -19s37.5 -9.5 57.5 -13.5c32.667 -7.33301 62.667 -16 90 -26s50.833 -22.833 70.5 -38.5s35 -34.5 46 -56.5s16.5 -49 16.5 -81
zM441.001 907.998l37 -46l-145 -124h-68l-150 126l35 44l146 -84z" />
    <glyph glyph-name="scaron" unicode="&#x161;" horiz-adv-x="460" 
d="M232 -6c-36 0 -71 4.33203 -105 12.999s-69 27.334 -105 56.001l58 77c24.667 -20.667 49.667 -34.834 75 -42.501s52 -11.5 80 -11.5c23.333 0 44.166 5 62.499 15s27.5 25.333 27.5 46c0 17.333 -6 30.166 -18 38.499s-29.667 14.5 -53 18.5
c-24 4 -48.333 8.5 -73 13.5s-47 12.5 -67 22.5s-36.333 23.5 -49 40.5s-19 39.5 -19 67.5c0 24 5 45.5 15 64.5s23.5 35 40.5 48s36.5 23 58.5 30s45.333 10.5 70 10.5c38 0 72.167 -3.83301 102.5 -11.5s60.166 -22.167 89.499 -43.5l-52 -79
c-24 15.333 -47.333 25.833 -70 31.5s-45.667 8.5 -69 8.5c-25.333 0 -45.166 -5.66699 -59.499 -17s-21.5 -24.666 -21.5 -39.999s7 -26.5 21 -33.5s31.5 -12.667 52.5 -17l68.5 -13.5c24.667 -4.66699 47.5 -12 68.5 -22s38.5 -24.167 52.5 -42.5s21 -43.166 21 -74.499
c0 -24 -5.16699 -45.5 -15.5 -64.5s-24.666 -35 -42.999 -48s-39.833 -23 -64.5 -30s-51 -10.5 -79 -10.5zM374 736.999l46 -42l-145 -153h-70l-149 154l44 41c4 -2.66699 12.667 -9 26 -19l43 -33l43 -33.5c13.333 -10.333 22 -16.833 26 -19.5z" />
    <glyph glyph-name="Tcommaaccent" unicode="&#x162;" horiz-adv-x="524" 
d="M320 585v-585h-115v585h-191v104h496v-104h-190zM188 -250c16 11.333 28.667 22.335 38 33.002s15 25 17 43c-14.667 1.33301 -26.667 8 -36 20s-14 26.667 -14 44s6.5 32.666 19.5 45.999s29.167 20 48.5 20c26 0 45.167 -9 57.5 -27s18.5 -38.667 18.5 -62
c0 -38 -10.833 -71.333 -32.5 -100s-48.5 -50.334 -80.5 -65.001z" />
    <glyph glyph-name="tcommaaccent" unicode="&#x163;" horiz-adv-x="370" 
d="M27 405l-0.00195312 89.999h68l21 119h82v-119h129v-90h-129v-224c0 -31.333 4.33301 -53.833 13 -67.5s27.334 -20.5 56.001 -20.5c8.66699 0 20 0.833008 34 2.5s28.333 4.83398 43 9.50098l21 -93c-20 -7.33301 -41.167 -12 -63.5 -14s-40.166 -3 -53.499 -3
c-29.333 0 -53.833 3.83301 -73.5 11.5s-35.5 18.667 -47.5 33s-20.667 32 -26 53s-8 44.833 -8 71.5v241h-66zM96.998 -250.001c16 11.333 28.667 22.335 38 33.002s15 25 17 43c-14.667 1.33301 -26.667 8 -36 20s-14 26.667 -14 44s6.5 32.666 19.5 45.999
s29.167 20 48.5 20c26 0 45.167 -9 57.5 -27s18.5 -38.667 18.5 -62c0 -38 -10.833 -71.333 -32.5 -100s-48.5 -50.334 -80.5 -65.001z" />
    <glyph glyph-name="Tcaron" unicode="&#x164;" horiz-adv-x="524" 
d="M320 585v-585h-115v585h-191v104h496v-104h-190zM410 908l37 -46l-145 -124h-68l-150 126l35 44l146 -84z" />
    <glyph glyph-name="tcaron" unicode="&#x165;" horiz-adv-x="392" 
d="M252 589c16 11.333 28.667 22.335 38 33.002s15 25 17 43c-14.667 1.33301 -26.667 8 -36 20s-14 26.667 -14 44s6.5 32.666 19.5 45.999s29.167 20 48.5 20c26 0 45.167 -9 57.5 -27s18.5 -38.667 18.5 -62c0 -38 -10.833 -71.333 -32.5 -100
s-48.5 -50.334 -80.5 -65.001zM27 405.002l-0.00195312 89.999h68l21 119h82v-119h129v-90h-129v-224c0 -31.333 4.33301 -53.833 13 -67.5s27.334 -20.5 56.001 -20.5c8.66699 0 20 0.833008 34 2.5s28.333 4.83398 43 9.50098l21 -93c-20 -7.33301 -41.167 -12 -63.5 -14
s-40.166 -3 -53.499 -3c-29.333 0 -53.833 3.83301 -73.5 11.5s-35.5 18.667 -47.5 33s-20.667 32 -26 53s-8 44.833 -8 71.5v241h-66z" />
    <glyph glyph-name="Tbar" unicode="&#x166;" horiz-adv-x="524" 
d="M320 585v-182h151v-80h-151v-323h-115v323h-151v80h151v182h-191v104h496v-104h-190z" />
    <glyph glyph-name="tbar" unicode="&#x167;" horiz-adv-x="370" 
d="M27 405l-0.00195312 89.999h68l21 119h82v-119h129v-90h-129v-94h129v-76h-129v-54c0 -31.333 4.33301 -53.833 13 -67.5s27.334 -20.5 56.001 -20.5c8.66699 0 20 0.833008 34 2.5s28.333 4.83398 43 9.50098l21 -93c-20 -7.33301 -41.167 -12 -63.5 -14
s-40.166 -3 -53.499 -3c-29.333 0 -53.833 3.83301 -73.5 11.5s-35.5 18.667 -47.5 33s-20.667 32 -26 53s-8 44.833 -8 71.5v71h-66v76h66v94h-66z" />
    <glyph glyph-name="Utilde" unicode="&#x168;" horiz-adv-x="627" 
d="M574 218c0 -36 -7.16602 -68 -21.499 -96s-33.5 -51.5 -57.5 -70.5s-51.667 -33.5 -83 -43.5s-64 -15 -98 -15c-34.667 0 -67.667 4.83301 -99 14.5s-58.833 24 -82.5 43s-42.5 42.5 -56.5 70.5s-21 60 -21 96v472h114v-451c0 -25.333 4 -46.833 12 -64.5
s18.833 -32.167 32.5 -43.5s29.167 -19.666 46.5 -24.999s35.333 -8 54 -8c18 0 35.833 2.66699 53.5 8s33.167 13.666 46.5 24.999s24.166 25.833 32.499 43.5s12.5 39.167 12.5 64.5v451h115v-471zM248.001 876c12.667 0 25.166 -2.5 37.499 -7.5s24.333 -10.5 36 -16.5
l33 -16.5c10.333 -5 19.5 -7.5 27.5 -7.5c10.667 0 20.834 3.5 30.501 10.5s20.167 18.833 31.5 35.5l58 -34c-16 -34 -33.167 -58.5 -51.5 -73.5s-38.5 -22.5 -60.5 -22.5c-12.667 0 -25 2.33301 -37 7s-23.667 9.66699 -35 15l-33 15c-10.667 4.66699 -20.667 7 -30 7
c-11.333 0 -21.666 -2.66699 -30.999 -8s-20.666 -16.666 -33.999 -33.999l-58 34c15.333 31.333 32.666 55.166 51.999 71.499s40.666 24.5 63.999 24.5z" />
    <glyph glyph-name="utilde" unicode="&#x169;" horiz-adv-x="516" 
d="M151 495l0.00292969 -310.002c0 -33.333 7.66699 -56.666 23 -69.999s33.666 -20 54.999 -20c36.667 0 80.667 18 132 54v346h107v-495h-97l-10 48c-38.667 -23.333 -69.834 -38.166 -93.501 -44.499s-43.834 -9.5 -60.501 -9.5c-54 0 -94.667 16.5 -122 49.5
s-41 77.167 -41 132.5v319h107zM188.003 705.998c12.667 0 25.166 -2.5 37.499 -7.5s24.333 -10.5 36 -16.5l33 -16.5c10.333 -5 19.5 -7.5 27.5 -7.5c10.667 0 20.834 3.5 30.501 10.5s20.167 18.833 31.5 35.5l58 -34c-16 -34 -33.167 -58.5 -51.5 -73.5
s-38.5 -22.5 -60.5 -22.5c-12.667 0 -25 2.33301 -37 7s-23.667 9.66699 -35 15l-33 15c-10.667 4.66699 -20.667 7 -30 7c-11.333 0 -21.666 -2.66699 -30.999 -8s-20.666 -16.666 -33.999 -33.999l-58 34c15.333 31.333 32.666 55.166 51.999 71.499
s40.666 24.5 63.999 24.5z" />
    <glyph glyph-name="Umacron" unicode="&#x16a;" horiz-adv-x="627" 
d="M574 218c0 -36 -7.16602 -68 -21.499 -96s-33.5 -51.5 -57.5 -70.5s-51.667 -33.5 -83 -43.5s-64 -15 -98 -15c-34.667 0 -67.667 4.83301 -99 14.5s-58.833 24 -82.5 43s-42.5 42.5 -56.5 70.5s-21 60 -21 96v472h114v-451c0 -25.333 4 -46.833 12 -64.5
s18.833 -32.167 32.5 -43.5s29.167 -19.666 46.5 -24.999s35.333 -8 54 -8c18 0 35.833 2.66699 53.5 8s33.167 13.666 46.5 24.999s24.166 25.833 32.499 43.5s12.5 39.167 12.5 64.5v451h115v-471zM168.001 773v89h289v-89h-289z" />
    <glyph glyph-name="umacron" unicode="&#x16b;" horiz-adv-x="516" 
d="M151 495l0.00292969 -310.002c0 -33.333 7.66699 -56.666 23 -69.999s33.666 -20 54.999 -20c36.667 0 80.667 18 132 54v346h107v-495h-97l-10 48c-38.667 -23.333 -69.834 -38.166 -93.501 -44.499s-43.834 -9.5 -60.501 -9.5c-54 0 -94.667 16.5 -122 49.5
s-41 77.167 -41 132.5v319h107zM115.003 592.998v89h290v-89h-290z" />
    <glyph glyph-name="Ubreve" unicode="&#x16c;" horiz-adv-x="627" 
d="M574 218c0 -36 -7.16602 -68 -21.499 -96s-33.5 -51.5 -57.5 -70.5s-51.667 -33.5 -83 -43.5s-64 -15 -98 -15c-34.667 0 -67.667 4.83301 -99 14.5s-58.833 24 -82.5 43s-42.5 42.5 -56.5 70.5s-21 60 -21 96v472h114v-451c0 -25.333 4 -46.833 12 -64.5
s18.833 -32.167 32.5 -43.5s29.167 -19.666 46.5 -24.999s35.333 -8 54 -8c18 0 35.833 2.66699 53.5 8s33.167 13.666 46.5 24.999s24.166 25.833 32.499 43.5s12.5 39.167 12.5 64.5v451h115v-471zM317.001 722c-28 0 -51.165 4.66699 -69.498 14s-33.333 21 -45 35
s-20 29.167 -25 45.5s-7.83301 31.5 -8.5 45.5h82c0 -6.66699 1.66699 -13.834 5 -21.501s7.66602 -14.667 12.999 -21s12.166 -11.666 20.499 -15.999s17.5 -6.5 27.5 -6.5c11.333 0 21.166 2.16699 29.499 6.5s15.333 9.66602 21 15.999s9.83398 13.333 12.501 21
s4 14.834 4 21.501h80c-1.33301 -14 -4.5 -29.167 -9.5 -45.5s-13 -31.5 -24 -45.5s-25.667 -25.667 -44 -35s-41.5 -14 -69.5 -14z" />
    <glyph glyph-name="ubreve" unicode="&#x16d;" horiz-adv-x="516" 
d="M151 495l0.00292969 -310.002c0 -33.333 7.66699 -56.666 23 -69.999s33.666 -20 54.999 -20c36.667 0 80.667 18 132 54v346h107v-495h-97l-10 48c-38.667 -23.333 -69.834 -38.166 -93.501 -44.499s-43.834 -9.5 -60.501 -9.5c-54 0 -94.667 16.5 -122 49.5
s-41 77.167 -41 132.5v319h107zM262.003 565.998c-28 0 -51.168 4.66699 -69.501 14s-33.333 21 -45 35s-20 29 -25 45s-7.83301 31 -8.5 45h82c0.666992 -6.66699 2.5 -13.667 5.5 -21s7.33301 -14.166 13 -20.499s12.5 -11.666 20.5 -15.999s17 -6.5 27 -6.5
c11.333 0 21.166 2.16699 29.499 6.5s15.333 9.66602 21 15.999s9.83398 13.166 12.501 20.499s4 14.333 4 21h81c-1.33301 -14 -4.66602 -29 -9.99902 -45s-13.5 -31 -24.5 -45s-25.667 -25.667 -44 -35s-41.5 -14 -69.5 -14z" />
    <glyph glyph-name="Uring" unicode="&#x16e;" horiz-adv-x="627" 
d="M574 218c0 -36 -7.16602 -68 -21.499 -96s-33.5 -51.5 -57.5 -70.5s-51.667 -33.5 -83 -43.5s-64 -15 -98 -15c-34.667 0 -67.667 4.83301 -99 14.5s-58.833 24 -82.5 43s-42.5 42.5 -56.5 70.5s-21 60 -21 96v472h114v-451c0 -25.333 4 -46.833 12 -64.5
s18.833 -32.167 32.5 -43.5s29.167 -19.666 46.5 -24.999s35.333 -8 54 -8c18 0 35.833 2.66699 53.5 8s33.167 13.666 46.5 24.999s24.166 25.833 32.499 43.5s12.5 39.167 12.5 64.5v451h115v-471zM368.001 808c0 13.333 -4.83301 24.666 -14.5 33.999s-21.5 14 -35.5 14
s-26 -4.66699 -36 -14s-15 -20.666 -15 -33.999c0 -14 5 -25.833 15 -35.5s22 -14.5 36 -14.5s25.833 4.83301 35.5 14.5s14.5 21.5 14.5 35.5zM207.001 808c0 14.667 3 28.5 9 41.5s14 24.167 24 33.5s21.667 16.833 35 22.5s27.666 8.5 42.999 8.5
s29.666 -2.83301 42.999 -8.5s25 -13.167 35 -22.5s17.833 -20.5 23.5 -33.5s8.5 -26.833 8.5 -41.5c0 -15.333 -2.83301 -29.5 -8.5 -42.5s-13.5 -24.333 -23.5 -34s-21.667 -17.334 -35 -23.001s-27.666 -8.5 -42.999 -8.5s-29.666 2.83301 -42.999 8.5
s-25 13.334 -35 23.001s-18 21 -24 34s-9 27.167 -9 42.5z" />
    <glyph glyph-name="uring" unicode="&#x16f;" horiz-adv-x="516" 
d="M151 495l0.00292969 -310.002c0 -33.333 7.66699 -56.666 23 -69.999s33.666 -20 54.999 -20c36.667 0 80.667 18 132 54v346h107v-495h-97l-10 48c-38.667 -23.333 -69.834 -38.166 -93.501 -44.499s-43.834 -9.5 -60.501 -9.5c-54 0 -94.667 16.5 -122 49.5
s-41 77.167 -41 132.5v319h107zM310.003 643.998c0 13.333 -4.83301 24.666 -14.5 33.999s-21.5 14 -35.5 14s-26 -4.66699 -36 -14s-15 -20.666 -15 -33.999c0 -14 5 -25.833 15 -35.5s22 -14.5 36 -14.5s25.833 4.83301 35.5 14.5s14.5 21.5 14.5 35.5zM149.003 643.998
c0 14.667 3 28.5 9 41.5s14 24.167 24 33.5s21.667 16.833 35 22.5s27.666 8.5 42.999 8.5s29.666 -2.83301 42.999 -8.5s25 -13.167 35 -22.5s17.833 -20.5 23.5 -33.5s8.5 -26.833 8.5 -41.5c0 -15.333 -2.83301 -29.5 -8.5 -42.5s-13.5 -24.333 -23.5 -34
s-21.667 -17.334 -35 -23.001s-27.666 -8.5 -42.999 -8.5s-29.666 2.83301 -42.999 8.5s-25 13.334 -35 23.001s-18 21 -24 34s-9 27.167 -9 42.5z" />
    <glyph glyph-name="Uhungarumlaut" unicode="&#x170;" horiz-adv-x="627" 
d="M574 218c0 -36 -7.16602 -68 -21.499 -96s-33.5 -51.5 -57.5 -70.5s-51.667 -33.5 -83 -43.5s-64 -15 -98 -15c-34.667 0 -67.667 4.83301 -99 14.5s-58.833 24 -82.5 43s-42.5 42.5 -56.5 70.5s-21 60 -21 96v472h114v-451c0 -25.333 4 -46.833 12 -64.5
s18.833 -32.167 32.5 -43.5s29.167 -19.666 46.5 -24.999s35.333 -8 54 -8c18 0 35.833 2.66699 53.5 8s33.167 13.666 46.5 24.999s24.166 25.833 32.499 43.5s12.5 39.167 12.5 64.5v451h115v-471zM164.001 781l152 132l74 -72l-180 -108zM339.001 781l152 132l74 -72
l-180 -108z" />
    <glyph glyph-name="uhungarumlaut" unicode="&#x171;" horiz-adv-x="516" 
d="M151 495l0.00292969 -310.002c0 -33.333 7.66699 -56.666 23 -69.999s33.666 -20 54.999 -20c36.667 0 80.667 18 132 54v346h107v-495h-97l-10 48c-38.667 -23.333 -69.834 -38.166 -93.501 -44.499s-43.834 -9.5 -60.501 -9.5c-54 0 -94.667 16.5 -122 49.5
s-41 77.167 -41 132.5v319h107zM133.003 569.998l76 185l98 -31l-111 -178zM281.003 569.998l77 185l98 -31l-112 -178z" />
    <glyph glyph-name="Uogonek" unicode="&#x172;" horiz-adv-x="627" 
d="M249 -94c0 13.333 2.33398 26.833 7.00098 40.5s13 29.834 25 48.501c-31.333 2.66699 -60.666 9.5 -87.999 20.5s-51.166 25.833 -71.499 44.5s-36.5 41.167 -48.5 67.5s-18 56.166 -18 89.499v472h114v-451c0 -25.333 4 -46.833 12 -64.5s18.833 -32.167 32.5 -43.5
s29.167 -19.666 46.5 -24.999s35.333 -8 54 -8c18 0 35.833 2.66699 53.5 8s33.167 13.666 46.5 24.999s24.166 25.833 32.499 43.5s12.5 39.167 12.5 64.5v451h115v-471c0 -32.667 -5.83301 -62 -17.5 -88s-27.5 -48.333 -47.5 -67s-43.333 -33.667 -70 -45
s-55 -18.666 -85 -21.999c-11.333 -16 -19.333 -29.833 -24 -41.5s-7 -22.834 -7 -33.501c0 -25.333 14 -38 42 -38c7.33301 0 15.666 1.5 24.999 4.5s20.666 7.16699 33.999 12.5l23 -58c-14 -8 -29.5 -14.5 -46.5 -19.5s-34.167 -7.5 -51.5 -7.5
c-30 0 -54.167 8.83301 -72.5 26.5s-27.5 39.167 -27.5 64.5z" />
    <glyph glyph-name="uogonek" unicode="&#x173;" horiz-adv-x="516" 
d="M332 -94c0 14 2.67188 28.498 8.00488 43.498s15.333 32.833 30 53.5l-9 45c-38.667 -23.333 -69.834 -38.166 -93.501 -44.499s-43.834 -9.5 -60.501 -9.5c-54 0 -94.667 16.5 -122 49.5s-41 77.167 -41 132.5v319h107v-310c0 -33.333 7.66699 -56.666 23 -69.999
s33.666 -20 54.999 -20c36.667 0 80.667 18 132 54v346h107v-495h-28c-12 -17.333 -20.667 -32 -26 -44s-8 -23.667 -8 -35c0 -25.333 14 -38 42 -38c7.33301 0 15.666 1.5 24.999 4.5s20.666 7.16699 33.999 12.5l23 -58c-14 -8 -29.5 -14.5 -46.5 -19.5
s-34.167 -7.5 -51.5 -7.5c-30 0 -54.167 8.83301 -72.5 26.5s-27.5 39.167 -27.5 64.5z" />
    <glyph glyph-name="Wcircumflex" unicode="&#x174;" horiz-adv-x="885" 
d="M439 490l-51 -206l-72 -284h-127l-179 689h123l69 -295l50 -220h6l54 222l74 293h112l77 -305l52 -210h5l48 212l71 303h123l-180 -689h-126l-73 286l-50 204h-6zM441 819l-146 -84l-36 45l150 125h68l146 -124l-37 -46z" />
    <glyph glyph-name="wcircumflex" unicode="&#x175;" horiz-adv-x="719" 
d="M356 305l-50 -160l-47 -145h-104l-140 496h111l43 -170l41 -173h4l57 173l40 122h97l45 -136l50 -161h5l41 176l42 169h108l-135 -496h-105l-49 149l-50 156h-4zM359 648c-4 -2.66699 -12.667 -9.16699 -26 -19.5l-43 -33.5l-43 -33.5
c-13.333 -10.333 -22 -16.833 -26 -19.5l-44 41l149 154h70l145 -152l-46 -43z" />
    <glyph glyph-name="Ycircumflex" unicode="&#x176;" horiz-adv-x="556" 
d="M282 382l66 150l74 157h122l-208 -422v-267h-115v267l-210 422h124l75 -161l65 -146h7zM278 819l-146 -84l-36 45l150 125h68l146 -124l-37 -46z" />
    <glyph glyph-name="ycircumflex" unicode="&#x177;" horiz-adv-x="472" 
d="M106 -200l75 210l-36 29l-135 457h112l53 -203l49 -181h3l63 182l67 202h112l-253 -696h-110zM232 648c-4 -2.66699 -12.667 -9.16699 -26 -19.5l-43 -33.5l-43 -33.5c-13.333 -10.333 -22 -16.833 -26 -19.5l-44 41l149 154h70l145 -152l-46 -43z" />
    <glyph glyph-name="Ydieresis" unicode="&#x178;" horiz-adv-x="556" 
d="M282 382l66 150l74 157h122l-208 -422v-267h-115v267l-210 422h124l75 -161l65 -146h7zM318 811c0 16 5.66699 29.667 17 41s25 17 41 17c16.667 0 30.5 -5.66699 41.5 -17s16.5 -25 16.5 -41s-5.5 -29.667 -16.5 -41s-24.833 -17 -41.5 -17
c-16 0 -29.667 5.66699 -41 17s-17 25 -17 41zM122 811c0 16 5.66699 29.667 17 41s24.666 17 39.999 17c16.667 0 30.667 -5.66699 42 -17s17 -25 17 -41s-5.66699 -29.667 -17 -41s-25.333 -17 -42 -17c-15.333 0 -28.666 5.66699 -39.999 17s-17 25 -17 41z" />
    <glyph glyph-name="Zacute" unicode="&#x179;" horiz-adv-x="531" 
d="M35 99l325 487h-312v103h450v-96l-330 -491h329v-102h-462v99zM194 787l168 130l60 -82l-190 -101z" />
    <glyph glyph-name="zacute" unicode="&#x17a;" horiz-adv-x="462" 
d="M39 0v85l254 319h-240v91h371v-85l-253 -317h253v-93h-385zM187 570l76 185l98 -31l-111 -178z" />
    <glyph glyph-name="Zdotaccent" unicode="&#x17b;" horiz-adv-x="531" 
d="M35 99l325 487h-312v103h450v-96l-330 -491h329v-102h-462v99zM283 749c-19.333 0 -34.667 6.16699 -46 18.5s-17 27.833 -17 46.5c0 16 5.66699 30.333 17 43s26.333 19 45 19c19.333 0 35 -6.33301 47 -19s18 -27 18 -43c0 -17.333 -5.66699 -32.5 -17 -45.5
s-27 -19.5 -47 -19.5z" />
    <glyph glyph-name="zdotaccent" unicode="&#x17c;" horiz-adv-x="462" 
d="M39 0v85l254 319h-240v91h371v-85l-253 -317h253v-93h-385zM248 576c-19.333 0 -34.667 6.16699 -46 18.5s-17 27.833 -17 46.5c0 16 5.66699 30.333 17 43s26.333 19 45 19c19.333 0 35 -6.33301 47 -19s18 -27 18 -43c0 -17.333 -5.66699 -32.5 -17 -45.5
s-27 -19.5 -47 -19.5z" />
    <glyph glyph-name="Zcaron" unicode="&#x17d;" horiz-adv-x="531" 
d="M35 99l325 487h-312v103h450v-96l-330 -491h329v-102h-462v99zM414 908l37 -46l-145 -124h-68l-150 126l35 44l146 -84z" />
    <glyph glyph-name="zcaron" unicode="&#x17e;" horiz-adv-x="462" 
d="M39 0v85l254 319h-240v91h371v-85l-253 -317h253v-93h-385zM375 737l46 -42l-145 -153h-70l-149 154l44 41c4 -2.66699 12.667 -9 26 -19l43 -33l43 -33.5c13.333 -10.333 22 -16.833 26 -19.5z" />
    <glyph glyph-name="florin" unicode="&#x192;" horiz-adv-x="517" 
d="M123 424l95.9971 0.000976562l10 67c2.66699 23.333 7.83398 47.333 15.501 72s18.834 47.167 33.501 67.5s33.334 37 56.001 50s51 19.5 85 19.5c32.667 0 62.667 -5.33301 90 -16l-23 -89c-12 4.66699 -23.833 7.66699 -35.5 9s-22.167 2 -31.5 2
c-14 0 -25.833 -3.33301 -35.5 -10s-17.834 -15.334 -24.501 -26.001s-12 -23 -16 -37s-7 -28 -9 -42c0 -1.33301 -0.5 -5.33301 -1.5 -12l-3 -21l-3 -21c-1 -6.66699 -1.5 -11 -1.5 -13h101l2 -88h-114l-30 -215c-4 -30.667 -10 -59.167 -18 -85.5s-18.833 -49 -32.5 -68
s-30.667 -34 -51 -45s-44.5 -16.5 -72.5 -16.5c-14.667 0 -32.167 2 -52.5 6s-38.166 9.33301 -53.499 16l29 84c14.667 -6 27 -9.83301 37 -11.5s19 -2.5 27 -2.5c24 0 42 11.5 54 34.5s20.667 53.833 26 92.5l30 211h-83z" />
    <glyph glyph-name="Ohorn" unicode="&#x1a0;" horiz-adv-x="640" 
d="M572 223c0 -36 -6.66406 -68.3359 -19.9971 -97.0029s-31.833 -52.834 -55.5 -72.501s-51.334 -34.667 -83.001 -45s-65.5 -15.5 -101.5 -15.5c-36.667 0 -70.834 5.16699 -102.501 15.5s-59 25.333 -82 45s-41.167 43.834 -54.5 72.501s-20 61 -20 97v245
c0 36 6.83301 68 20.5 96s32.167 51.833 55.5 71.5s50.666 34.667 81.999 45s65 15.5 101 15.5c31.333 0 61 -4.16699 89 -12.5s53.333 -20.166 76 -35.499c24 1.33301 41.333 8.33301 52 21s16 37.667 16 75v28h86v-37c0 -40.667 -7 -74.5 -21 -101.5
s-36.333 -46.167 -67 -57.5c9.33301 -15.333 16.5 -32.166 21.5 -50.499s7.5 -38.166 7.5 -59.499v-243zM457.003 448.997c0 24.667 -4 46 -12 64s-18.667 32.833 -32 44.5s-28.833 20.167 -46.5 25.5s-35.834 8 -54.501 8c-19.333 0 -37.666 -2.66699 -54.999 -8
s-32.5 -13.833 -45.5 -25.5s-23.5 -26.5 -31.5 -44.5s-12 -39.333 -12 -64v-209c0 -25.333 4 -47 12 -65s18.667 -32.667 32 -44s28.666 -19.666 45.999 -24.999s35.333 -8 54 -8s36.834 2.66699 54.501 8s33.167 13.666 46.5 24.999s24 26 32 44s12 39.667 12 65v209z" />
    <glyph glyph-name="ohorn" unicode="&#x1a1;" horiz-adv-x="556" 
d="M466 175c0 -29.333 -5.83301 -55.333 -17.5 -78s-27.334 -41.5 -47.001 -56.5s-42.167 -26.333 -67.5 -34s-51.666 -11.5 -78.999 -11.5c-28 0 -54.833 3.83301 -80.5 11.5s-48 19 -67 34s-34.167 33.833 -45.5 56.5s-17 48.667 -17 78v144
c0 29.333 5.83301 55.333 17.5 78s27.167 41.667 46.5 57s41.666 27 66.999 35s52 12 80 12c58.667 0 106.667 -14.667 144 -44c0.666992 0 1.33398 0.166992 2.00098 0.5s1.33398 0.5 2.00098 0.5c20 2 34.667 9.66699 44 23s14 37.333 14 72v27h86v-36
c0 -42 -7.33301 -76.667 -22 -104s-38.334 -46.333 -71.001 -57c7.33301 -20 11 -41.667 11 -65v-143zM361 300c0 18.667 -3.16797 34.499 -9.50098 47.499s-14.5 23.5 -24.5 31.5s-21.333 13.833 -34 17.5s-25 5.5 -37 5.5s-24.333 -1.83301 -37 -5.5s-24 -9.5 -34 -17.5
s-18.167 -18.5 -24.5 -31.5s-9.5 -28.833 -9.5 -47.5v-105c0 -37.333 10.333 -63.666 31 -78.999s45.334 -23 74.001 -23c12 0 24.333 1.83301 37 5.5s24 9.5 34 17.5s18.167 18.5 24.5 31.5s9.5 28.833 9.5 47.5v105z" />
    <glyph glyph-name="Uhorn" unicode="&#x1af;" horiz-adv-x="694" 
d="M574 218c0 -36 -7.16602 -68.001 -21.499 -96.001s-33.5 -51.5 -57.5 -70.5s-51.667 -33.5 -83 -43.5s-64 -15 -98 -15c-34.667 0 -67.667 4.83301 -99 14.5s-58.833 24 -82.5 43s-42.5 42.5 -56.5 70.5s-21 60 -21 96v472h114v-451c0 -25.333 4 -46.833 12 -64.5
s18.833 -32.167 32.5 -43.5s29.167 -19.666 46.5 -24.999s35.333 -8 54 -8c18 0 35.833 2.66699 53.5 8s33.167 13.666 46.5 24.999s24.166 25.833 32.499 43.5s12.5 39.167 12.5 64.5v451h115v-40c20 2 34.333 9.83301 43 23.5s13 37.5 13 71.5v28h86v-37
c0 -51.333 -11.167 -91.666 -33.5 -120.999s-58.5 -45.333 -108.5 -48v-348v0z" />
    <glyph glyph-name="uhorn" unicode="&#x1b0;" horiz-adv-x="601" 
d="M154 495l0.00390625 -310.002c0 -33.333 7.66699 -56.666 23 -69.999s33.666 -20 54.999 -20c36.667 0 80.667 18 132 54v346h107v-36c17.333 3.33301 29.666 11.833 36.999 25.5s11 36.5 11 68.5v28h86v-37c0 -50 -10.333 -89.5 -31 -118.5s-55 -45.5 -103 -49.5v-376
h-97l-10 48c-38.667 -23.333 -69.834 -38.166 -93.501 -44.499s-43.834 -9.5 -60.501 -9.5c-54 0 -94.667 16.5 -122 49.5s-41 77.167 -41 132.5v319h107z" />
    <glyph glyph-name="AEacute" unicode="&#x1fc;" horiz-adv-x="991" 
d="M491 0v183c-42 0 -83.667 0.166992 -125 0.5s-83 0.5 -125 0.5l-114 -184h-126l217 344.5l217 344.5h523v-104h-353v-189h302v-102h-302v-192h353v-102h-467zM490 586l-97 -153.5l-96 -153.5c32 0 64.167 -0.166992 96.5 -0.5s64.833 -0.5 97.5 -0.5v308h-1zM613 787
l168 130l60 -82l-190 -101z" />
    </font>
</defs>
</svg>
